<?xml version="1.0" encoding="utf-8"?>
<!-- Generator: Adobe Illustrator 16.0.0, SVG Export Plug-In . SVG Version: 6.00 Build 0)  -->
<!DOCTYPE svg PUBLIC "-//W3C//DTD SVG 1.1//EN" "http://www.w3.org/Graphics/SVG/1.1/DTD/svg11.dtd">
<svg version="1.1" xmlns="http://www.w3.org/2000/svg" xmlns:xlink="http://www.w3.org/1999/xlink" x="0px" y="0px"
	 width="1347.553px" height="1281.275px" viewBox="-2.208 -10.082 1347.553 1281.275"
	 enable-background="new -2.208 -10.082 1347.553 1281.275" xml:space="preserve">
<metadata><?xpacket begin="﻿" id="W5M0MpCehiHzreSzNTczkc9d"?>
<x:xmpmeta xmlns:x="adobe:ns:meta/" x:xmptk="Adobe XMP Core 5.3-c011 66.145661, 2012/02/06-14:56:27        ">
   <rdf:RDF xmlns:rdf="http://www.w3.org/1999/02/22-rdf-syntax-ns#">
      <rdf:Description rdf:about=""
            xmlns:xmp="http://ns.adobe.com/xap/1.0/"
            xmlns:xmpGImg="http://ns.adobe.com/xap/1.0/g/img/">
         <xmp:CreatorTool>Adobe Illustrator CS6 (Windows)</xmp:CreatorTool>
         <xmp:CreateDate>2023-09-27T18:41:09+02:00</xmp:CreateDate>
         <xmp:MetadataDate>2023-09-27T18:41:10+02:00</xmp:MetadataDate>
         <xmp:ModifyDate>2023-09-27T18:41:10+02:00</xmp:ModifyDate>
         <xmp:Thumbnails>
            <rdf:Alt>
               <rdf:li rdf:parseType="Resource">
                  <xmpGImg:width>256</xmpGImg:width>
                  <xmpGImg:height>232</xmpGImg:height>
                  <xmpGImg:format>JPEG</xmpGImg:format>
                  <xmpGImg:image>/9j/4AAQSkZJRgABAgEASABIAAD/7QAsUGhvdG9zaG9wIDMuMAA4QklNA+0AAAAAABAASAAAAAEA&#xA;AQBIAAAAAQAB/+4ADkFkb2JlAGTAAAAAAf/bAIQABgQEBAUEBgUFBgkGBQYJCwgGBggLDAoKCwoK&#xA;DBAMDAwMDAwQDA4PEA8ODBMTFBQTExwbGxscHx8fHx8fHx8fHwEHBwcNDA0YEBAYGhURFRofHx8f&#xA;Hx8fHx8fHx8fHx8fHx8fHx8fHx8fHx8fHx8fHx8fHx8fHx8fHx8fHx8fHx8f/8AAEQgA6AEAAwER&#xA;AAIRAQMRAf/EAaIAAAAHAQEBAQEAAAAAAAAAAAQFAwIGAQAHCAkKCwEAAgIDAQEBAQEAAAAAAAAA&#xA;AQACAwQFBgcICQoLEAACAQMDAgQCBgcDBAIGAnMBAgMRBAAFIRIxQVEGE2EicYEUMpGhBxWxQiPB&#xA;UtHhMxZi8CRygvElQzRTkqKyY3PCNUQnk6OzNhdUZHTD0uIIJoMJChgZhJRFRqS0VtNVKBry4/PE&#xA;1OT0ZXWFlaW1xdXl9WZ2hpamtsbW5vY3R1dnd4eXp7fH1+f3OEhYaHiImKi4yNjo+Ck5SVlpeYmZ&#xA;qbnJ2en5KjpKWmp6ipqqusra6voRAAICAQIDBQUEBQYECAMDbQEAAhEDBCESMUEFURNhIgZxgZEy&#xA;obHwFMHR4SNCFVJicvEzJDRDghaSUyWiY7LCB3PSNeJEgxdUkwgJChgZJjZFGidkdFU38qOzwygp&#xA;0+PzhJSktMTU5PRldYWVpbXF1eX1RlZmdoaWprbG1ub2R1dnd4eXp7fH1+f3OEhYaHiImKi4yNjo&#xA;+DlJWWl5iZmpucnZ6fkqOkpaanqKmqq6ytrq+v/aAAwDAQACEQMRAD8AIc9DdS7FXYq7FXYq7FXY&#xA;q7FXYq7FXYqoy3ltF9uQA+A3P3DKsmohDmUiJKDk1qEf3aM3udh/HMOfaURyFshjQz6xdN9kKg9h&#xA;U/jmNLtDIeVBl4YUHv7xusrfRt+qmUS1WQ/xFlwhSaWVvtOx+ZJyozkeZTS3IJdirauy/ZJHyOES&#xA;I5IVFu7pekr/AHnLBnmOUijhCvHq14vVg4/yh/SmXx1+QdbQYBFRa1GdpYyvuu4zLx9pA/UGJxo6&#xA;G5gmFY3De3f7szseaM/pLAghVyxDsVdirsVdirsVdir1f/nH3/js6t/zDx/8TzRdu/RH3uTpeZe4&#xA;ZzLmvjjPQ3UuxV2KuxV2KuxV2KuxVpmVVLMQFHUnYYCQBZVAXGsQptEPUbx6LmBl7QiNo7sxBLp7&#xA;+6m+09F/lXYZrsmqyT5lsEQEPmOydirsVdirsVdirsVdirsVdirsVcCQQQaEdCMINIR1tq08dFl/&#xA;eJ4/tffmdh18o7S3H2sDAJtb3UM61javivcfRm1xZo5BcS1kEKuWodirsVdirsVer/8AOPv/AB2d&#xA;W/5h4/8AieaLt36I+9ydLzL3DOZc18cZ6G6l2KuxV2KuxV2KuxVBXepwwVRP3kngOg+ZzDz62MNh&#xA;uWUYWlFxdTztWRqjsvYfRmny55ZD6i2gAKWVMnYq7FXYq7FXYq7FXYq7FXYq7FXYq7FXYq7FW0d0&#xA;YMhKsOhGSjIxNhCb2Wqq9I56K/Z+x+fhm202uEtp7HvapQ7kxzYsHYq7FXYq9X/5x9/47Orf8w8f&#xA;/E80Xbv0R97k6XmXuGcy5r44z0N1LsVdirsVdirTuqKWYhVHUnBKQAsqk97qjyVjhqsfQt3P9M0+&#xA;p1xltHYNsYJfmvbHYq7FXYq7FXYq7FXYq7FXYq7FXYq7FXYq7FXYq7FXYq7FUfYak0VI5jWLoG7r&#xA;/Zmw0usMfTL6fua5QtOQwYAqag9CM3IN7hqbxV2KvV/+cff+Ozq3/MPH/wATzRdu/RH3uTpeZe4Z&#xA;zLmvjjPQ3UuxV2KuxVbJIkaF3NFHU5GcxEWeSgJDe30ly1PsxD7K/wATmi1OqOQ/0W6MaQ2YrN2K&#xA;uxV2KuxV2KuxV2KuxV2KuxV2KuxV2KuxV2KuxV2KuxV2KuxVG6dfmBvTkNYm/wCFPjmdpNVwHhP0&#xA;/cwlG08BBFRuDm7aXYq9X/5x9/47Orf8w8f/ABPNF279Efe5Ol5l7hnMua+OM9DdS7FXYqtd1RSz&#xA;GiqKknBKQAsqkN9evcybbRL9lf4nNDqdSch/ot8Y0hsxWTsVdirsVdirsVTDR9JXUZJBJfWthDEA&#xA;0k11JxrU9ERQzuf9VfnmFrdYcAFQnkkeQgL+ZNRHxPuZwhxdQGU6LZaRpkpbSfPKWl2/wuotrmOF&#xA;qHYO7Dgw37jOc12oz6iNZ9CZwHL14zIe4A2PgXIhGMfpyUfinGryeYLS0+u67o+l+adHf7eq2Sqr&#xA;gf8AGeAIye5KU981eijpcuTw9Nmz6TP/AKnMmv8ASTsS+Er8m2fEBchGce8fsY9d+VNH1mym1Pyh&#xA;LJKbdTJeaLcUNzEvdoiP71Px+k5u8PbGfS5I4deIji2jlj9Ej3S/my+z4NEsMZC8fy6/tYfnUuM7&#xA;FXYq7FXYq7FXYq7FXYq7FXYq7FXYqmmk3vS3kP8AxjP8M2ug1P8AAfg1Tj1TXNo1vV/+cff+Ozq3&#xA;/MPH/wATzRdu/RH3uTpeZe4ZzLmvjjPQ3UuxV2KpLql76r+ih/dqfiPic02t1PEeEcg2wjSAzXtj&#xA;sVdirsVdirsVdirJPL35d+bNeCyWlmYrV+l3cfuoqeIqOTD/AFQc0HaftNotFYyTuf8ANj6pfqHx&#xA;Ib8WlnPkNnoekfkNp8YD6vqUk7bExWyiJQfDm/MsPoGcLrf+CNlO2DGI+cjf2Cq+Zc/H2aP4j8mc&#xA;+XvJfl3y9zOl27QtKvGZmllfmB/MrMU/DOO7T7f1eurxpAgcvTEV7iBf2ubi00MfJGWnl3y/Z3X1&#xA;u00y1t7qpInigjSQchQ0ZVB375iZu1NVlh4c8uSUO4ykR8rZxwwBsAWhbvyV5SvJGluNItHlduTy&#xA;ekqszHqSVAJzJwe0GuxARhmmAOnFf3sZabGecQhJfy28jSU5aPAKdOPNOv8AqsMyo+1faQ5ZpfYf&#xA;0MPyeL+agbn8oPIUysFsGgZq/HFNNUV8AzMv4Zl4fbftOHPIJe+Mf0AFhLQYj0Y9qn5C6a4LaXqc&#xA;0DdQlyqygnw5J6ZH3HN9pP8Agj5RtmxRl5xJH2Hi+8NE+zR/CWDa7+VXnLSA0n1UX1uu5msyZafN&#xA;KLJ8/hpnY9ne2Og1W3H4cu6e32/T9rhZNHkh0v3MQZWVirAhgaEHYgjOnBvcOK7CrsVdirsVdirs&#xA;VdirgSpDA0I3Bwg0bQyKyuRcW6v+10ce4zotPm8SAPVokKL17/nH3/js6t/zDx/8TzUdu/RH3uRp&#xA;eZe4ZzLmvjjPQ3UuxVBapd+jF6aGkknfwHc5ha3UcEaHMs4RtI80bc7FXYq7FXYq7FUy8v8AlzV9&#xA;f1BbHTIDLKd3c7JGv8zt+yP8xvmv7S7UwaLEcmaXDH7Se4DqfwWePFKZqL3Dyf8AlNoGhrHc3yrq&#xA;WpihMkgrDG3/ABXGdtv5m37imePdue2mp1ZMMR8LD3D6j75foG3Q27rBoYw3O5Z1nGua7FXYq7FX&#xA;Yq7FXYq7FXYqx7zP5C8teYoyb22Ed1+zew0SYfNqUYezA5veyfaTV6E/u5XD+ZLeP7PhTj5tLDJz&#xA;G7xDzp+XGt+WHMzD63phNEvYwQFrsBKu/A/h757B2D7U6btAcI9Gb+Yf96ev3+TptRpZY/Md7E86&#xA;ZxnYq7FXYq7FXYq7FUdpFx6dx6ZPwybfSOmZ2gy8M66FrmNnuX/OPv8Ax2dW/wCYeP8A4nke3foj&#xA;72zS8y9wzmXNfHGehupadlRSzGiqKk+wwSkALKsbuZ2nmaRu/QeA7ZzmbKZyMi5AFKeVJdirsVdi&#xA;rsVTzyh5Q1PzPqgs7McIUo13dMKpEhPU+LH9le/yqc0/bfbWHs/D4mTcn6Y9ZH9XeenvoN2DBLJK&#xA;g+jfLvlzSvL+mpYadEI413kkNC8j03d27k/7W2eC9qdq59dmOXKbPQdIjuH497v8OGOMUEzzXNrs&#xA;VdirsVdirsVdirEvN/5l+X/LZa3djeakB/vFCRVaio9Rzsn4n2zp+xPZTVa+pj0Yv50uv9UdfsHm&#xA;4ufVwx7cy8t1X86fON3I31NodOi/ZWKNZGp7tKH3+QGej6P2C0GIfvBLLLzND5Rr7SXWz7QyHlsy&#xA;T8qPPnmvWdek07Up/rtr6DyeoY0VoypFDyRVqDWm+aD2y9nNFpdMMuGPhz4gKsni+BJ9+zkaLUzn&#xA;Kpbh63nmDtFs0MU0TxTIskUgKyRuAysp2IIOxGShklCQlE1IciFIBFF4T+Z35aHQnbVtJRm0hz+9&#xA;i3Y27HpU7ngexPTp4Z7N7Je1f5weBnNZxyP8/wD493jrzHV0ms0nB6o/T9zzvO7cB2KuxV2KuxV2&#xA;KtqxVgw2KmoPuMINGwh77/zjxIJNU1Nx0a1jP3vmT21LixQPf+plphuXuWc25j44z0N1KXaxccYl&#xA;hU7vu3+qM1/aGWo8I6s4BJ80zc7FXYq7FXYqitL0y81TUbfT7JPUurlxHEvue58ABuT4Zj6vVY9P&#xA;illyGoQFn8fcyhEyNDm+k/Lfl/SvKHlwwKwEcCNPf3ZG7sq1kc07ADYdhnz/ANq9p5u1NXxHnI8M&#xA;I9wvYe/vPe9DhxRxQ+9gOqfn2BKyaXpXKMV4zXMlCfD92g2/4LO20f8AwONgc2XfuiP0n/iXBn2n&#xA;/NCTt+e/mzkeNnYBewKTE/f6ozaD/gdaGt55fnH/AIhq/lLJ3D8fFMtK/Pq6EqLq2mRtESA8tqzK&#xA;yjuQkhbl8uQzA1n/AAOIcJODKeLumL+0VXyLZDtM/wAQ+T1nStTs9U0631CzfnbXKCSJiKGh7Edi&#xA;Dsc8y1mkyafLLFkFTgaLtITEgCORRWYzJ2KuxVD6jHdSafcx2j+ndPE627/yyFSEP0HL9LKEcsTM&#xA;XASF+69/sRMGjXN82DyL54urqQNpF40xY+pJLGyhmJ3PqPRT8659AH2h7OxwFZsfDWwBH3Dce6nn&#xA;fy2Un6SyjRPyO8xXTK+q3EWnw/tIp9aX5UU8Pp5ZznaH/BC0mMEYIyyy7/pj9vq+xycfZ0z9Rp63&#xA;5Y8p6N5bsfqmmxEc6Ged/ilkYd3bb6ANhnmHa/bOo1+TjzHlyA+mPu/Fu1w4I4xQTjNU2uxVZPBD&#xA;cQSQTossMqlJI3FVZWFCCD2OTxZZY5CUTUomwR0QQCKL5y/MbyTJ5Y1njCC2l3dXspDU8QPtRMT3&#xA;Sv0jPevZft8do6e5f30Npj/fe4/YXn9Vp/Dl5HkxPOmcZ2KuxV2KuxV2KvdP+cZ5Od5qg/kgVf8A&#xA;kpX+OOvleCHlIs8A9Re+ZpXKfHGehupY5eT+vcu/7NaL8h0zndRl45kt8RQUcoZOxV2KuxV2Kva/&#xA;yU8oC1sX8xXaf6Rdgx2QP7MIPxP83YfcPfPI/b7tvxMg0kD6Ybz85dB8Pv8Ac7fs/BQ4z8Hpl5aQ&#xA;XlpPaXC84LiNopk8UdSrD7jnnuDNLFOOSJqUSCPeNw7KUQRReUah+QcbXDtp+rGO3O6RTxc2X2Lq&#xA;y1/4HPStN/wSCIgZcNy74yofIg/e6uXZm+xQD/kJrQX4NTtmbsGWQD7wDmdH/gj6e98U/mGH8mS7&#xA;wjNJ/IVhMr6tqYMQNXhtkNWHh6j0p/wOYmt/4I44SMGLfvkeX+aOfzZw7N/nF6xY2NrYWcNnaRiK&#xA;2t0EcUY6BVFB1zzPUaiebJLJM8U5GyXaRiIihyU9Ui1OS2C6bPHb3IkjYvKnqKUDAutAR1WuT0k8&#xA;MZ3miZQo8jRutj8CiYlW3NclrOuoS3RupGhkjRFtCF9NGUsS6mnKrct98jLNE4hDhAkCTxb2brbu&#xA;2URN3aJyhk7FXYq7FXYq7FXYq7FUl83+WrbzHoNxps1FkYc7aU/7rmUHg3y7H2rm27D7WnoNTHNH&#xA;lykO+PUfq82nUYRkjT5hurae1uZbW4QxzwO0csZ6q6GjA/IjPonDljkgJxNxkLB8i84QQaKnliHY&#xA;q7FXYq7FXt3/ADjC3+5TW18IIj97n+mUas/uwP6X6GzDzfQWaxyXxdqM3pWjkfab4V+n+zO61eTg&#xA;xnz2dXEWUgzn292KuxV2KuxVOfKHl2bzD5htNMSojkblcSD9iFN3b7th70zVdt9px0OlnmPMD0jv&#xA;keQ/X5NuDEZzEX0/b28NtbxW8CCOCFFjijXYKqiigfIDPnTLllkkZyNykbJ8y9IAAKCpkEuxV2Ku&#xA;JAFTsB1OKse17z1oOkaNJqol+vwRzC2ItGSWkxBPFiDxWlN65vezvZ7U6rUDBXhyMeL13H0942st&#xA;GXUxhHi5+5j+h/mo2v6brRsLEW+pafbPc2kEknqCVVB3NFQ1U0+H365u+0PY8aLNg8XJxYssxGRA&#xA;rhv4nn3+XJox63jEqG4Dza4/N7z7M4YX6wqCD6ccMQG3uys3453+P2J7MiK8My8zKX66+x1x12U9&#xA;WUfmd5t822HmS1TSL2aK1urOKeCGJVYHmWB24mp2znfZLsXQ5tJM54RlOGSUSST0rz2cnWZ8kZjh&#xA;OxCZv5j/ADDh/LvS7u1tri61q4mdJpPqxlkWBGfizRhduVF+Ir0+dc10ey+ypdq5YTlCGnjEEDjo&#xA;GRq6lfTfYHn7qbPFyjCCATL3IPSvzA/NaNlS88tTXi92NrPA5/2VOA/4HMvWezXYkgTj1MYH/hkJ&#xA;D5c/tYw1WfrG/gWd+X/NV1qbrDe6Lf6XOQd54i0OwrT1QBT/AGQGcX2n2PDTjix58WaP9GXq/wBL&#xA;+olzcWYy2MTFkGaRvdirsVdirsVeF/nd5eWy16DV4VpDqSETUGwnioCf9khX6a57J/wP+0zm00sE&#xA;j6sR2/qy/Ub+x0vaGLhnxd7zfO/de7FXYq7FXYq9m/5xjlYeZNYi/ZezVz81lAH/ABLMbV/R8f1t&#xA;uHm+is1zkPiHWpayJEOijkfmc6ztHJchHuddjCW5rWx2KuxV2KuxV7V+Rfl8QaZd65Kn727b6vbM&#xA;R/uqM1cg+DPt/sc8k/4IfaXHmhponaA4pf1jy+Q/3Tt+zcVAyepZ5u7N2KuxVI/NnnHRvLNl9Yv5&#xA;C0sm1vax0Msh9h2A7sdvp2zcdjdhajtDJwYh6R9Ujyj+3uH6N2nPnjjFl51+Yd75i80aLpGp+Xxd&#xA;S6RfI8VzYQKzMsyOR+9CfaB3G+23vneezGn0nZ2ozYdV4cc+MgxnKvpI/hvkevfv5Ov1Up5IxlC+&#xA;E9FLyp5J1aw8ua1Y+ZpoNJ0zVIk9E3EqcknibkknHlQDxHKuWds9v4M2rw5NGJZs2GRvhiaMZCiO&#xA;Xy2pGHTyjCQn6QUNok35aeT9QW/XV7rWL+JXQx2sQSFg6lWBDUDDf/fmZHaEO1+1MRxHDjwYyQbn&#xA;K5bG+nL/AErHGcOI3xGRQD+fvJtk7HR/KNtyJqs143rEH2QhqfQ2ZsfZvX5QPzGsn7oDh+3b7YsP&#xA;zOMfTAfF13+dnnSb+5+q2o7CKKv/ACcaTHD7A9nw+rjn75f8SAsu0Mh7glc35pefZq89XcV2+COF&#xA;P+IIubKHsh2ZHlhHxMj98mo6zKeqFk/MHztJTlrN0Kfyvx/4jTMiPsz2dHlhh8r+9idVk/nFuP8A&#xA;MLzsi8V1m5I/yn5H72rgl7M9nH/Iw+SjVZP5xTLS/wA3fO9jKpkvFvYh1huI1IP+yUK//DZgav2J&#xA;7OzDaHhy74k/cbH2NkNdlHW3rfkn8ydG8zqIB/oeqKKvZuQeVOpibbmPbr+vPMO3/ZXUdnni+vD/&#xA;ADh0/rDp933O10+rjk25SZdnLuU7FXYqw382tGOp+SrtkXlNYFbyP5R1En/JNmOdX7F678v2jAH6&#xA;cnoPx5f7IBw9dj4sZ8t3zrnvDoXYq7FXYq7FXsf/ADjJ/wApVqv/ADA/8zkzG1f0fH9bbh5vo3Nc&#xA;5D4WvpOd3K3+UQPo2zodTLiyE+bgRGyhlDJ2KuxV2KuxV9UeVtKGk+XNO07jxe3gRZQP9+EcpD9L&#xA;knPm7tnWfmdXky9JTNe7lH7KelwQ4YAeSaZrW12KoLWbq+tdOmmsLcXN2BSKN3EaAn9qRmIoqjc5&#xA;l6DDjyZRHLLgh1IFn3Ad55BhkkQNhZeIatN5Ui1CTUfM+pv5m1h/tWdgeFqlOiGfaqf8YxnsGjx6&#xA;2WIYtHiGkwD+LJvM+fB3/wBZ00zAG5njl5cvmg9Q/NfzE9stjo6Q6Jp0YKxW9oo5BSa/bYdanqoX&#xA;MrTexukEzkzmWoynnKZ/QP02xlrZ1UfSPJiN1eXl3MZrueS4mbrJK7Ox+liTnU4cGPFHhhERj3AU&#xA;PscSUidyo5ah2KuxV2KuxV2KuxVfBPNBMk0EjRTRkNHIhKsrDcEEbg5DJjjOJjIAxPMHkoJG4e9f&#xA;ll+Y6+YYRpmpME1mFah9gLhF6sB/OP2h9I9vFfa32WOhl42HfBI/6Q93u7j8D57zR6vxBwn6vvZ/&#xA;nEuc7FVk0MU0LwyqHilUpIh6FWFCPuyWOZhISjsQbCCLFPlHWNPfTdVvNPepa0nkhJPf02K1+mmf&#xA;S+i1Iz4IZRynES+Yt5iceGRHchMymLsVdirsVeyf84yKx8z6s9PhFkAT7mVafqzG1f0fH9bbh5vo&#xA;zNc5D4PJJJJ6nc5uybLguwJdirsVdiqaeVbMXvmbSrVhVJruFXH+SZBy/DNd2xn8HSZZ9Y45H40a&#xA;bMMeKYHm+qM+bXpnYqhdV1Oz0vTrjULx+FtbIZJG6mg7AdyTsMydHpMmpyxxYxc5mgxnMRBJ5B85&#xA;eb/P2u+ZbqQzTNBp9f3NgjERqo6c6U5t7n6KZ712J7N6bQQHCBLL1mefw/mjyHxt5/PqZZDvy7mN&#xA;Z0DjuxV2KuxV2KuxV2KuxV2KuxV2Kq1le3Vldw3lrIYrmBxJFIvUMpqMq1GCGaBxzHFCQohMZEGx&#xA;zfTHknzTB5l0CDUEotwP3d5CP2JV+19B+0PY5899v9jy7P1UsR+nnE98f2cj5vR6fMMkLT7NK3Ox&#xA;V84/mvarb+fdTCiiymKUfN4kLf8ADVz3v2NzGfZmK+nEPlI19jz+tjWUsRzqHFdirsVdir23/nGE&#xA;f7ltbbxt4h9zn+uY+rH7sHz/AENuHm+g81rkPg/N04TsVdirsVdirKvytiEnn3SFIrR5Gp/qQu38&#xA;M5z2unw9mZj/AEQPnIByNILyxfSWfP70TsVeW/ntrbQaXY6PG1DeOZpwP99xUCg+xdq/7HPR/wDg&#xA;d9niebJqCPoHCPfLn8gP9k63tLJURHveK5646d2KuxV2KuxV2KuxV2KuxV2KuxV2KuxVnv5O+ZW0&#xA;vzOunyvS01WkJB6CYV9I/STx+nOK9ueyvzOj8WI9eH1f5v8AF+v4OboM3DOuknv+eIu9dirwL87o&#xA;wnnQNWvqWkTH2+J1/wCNc9s9gJX2fXdkl+gui7Q/vPgwDO3cJ2KuxV2Kvcf+cY1pf6wf5oU/B8hr&#xA;R+4if6R+5sw/UXv+ahyXweQQSD1HXN2RTguwJdirsVdirLfyofj+YGknrvMPvt5B/HOZ9so32XmH&#xA;9X7JxcnRGsofR+eBPQuxV8+/nPqBuvO80NarZQRQCnSpHqn8ZM9x9hNN4fZwl1ySlL/e/wC9dF2h&#xA;K8ldzBc7JwnYq7FXYq7FXYq7FXYq7FXYq7FXYq7FV8E0sE0c8TFJYmDxsOoZTUH78hkxicTGW4Io&#xA;qDRt9W6PqKalpNnqCbLdwxzADtzUNT6K0z5p12lOnzzxHnCRj8i9RjnxRB70ZmKyeCfnhOsvnONB&#xA;SsFnFG1PEu77/Q+e1/8AA/xmPZ5P87JI/ZEfodH2gf3nwefZ3DguxV2KuxV7v/zjWnG81EdzbIfv&#xA;kJyfaMa08PeWWD6i95zROW+FLtOF1Kvgxp8iajOgzx4ZkebgR5KWUsnYq7FXYqyH8vLn6v520aSt&#xA;OVykfWn97WP/AI2zR+02Pj7OzD+gT8t/0N+mNZI+99N588PRuxV8v+ero3PnHWZa1H1uVFPWojYo&#xA;PwXPor2ew+HoMMf9rifmL/S83qTeSXvSPNy0uxV2KuxV2KuxV2KuxV2KuxV2KuxV2KuxV9G/lLcv&#xA;P5C03nu0frR1Pgsz8fuG2eC+2mIQ7Ty114T84h6DQm8QZfnLOU+bPzRvFu/PerOrcljkSEexijVG&#xA;H/BKc9/9kcBx9m4geoMv9NIkfYXntZK8pYtnSOM7FXYq4Ak0HXFD37/nHhOGqamn8trGPuemZXbU&#xA;eHHAd36mWm5l7lnNuY+HtZi43CyDpIN/mNv1Z1XaOOp33uuxnZAZr2x2KuxV2KovSL36jq1le/8A&#xA;LLPFNt/xW4b+GY2tweNhnj/nxlH5imUJUQX1iCCKjcHPmUh6h2KvlDXHZ9a1B2NWa5mLH3MhOfTH&#xA;Z8QNPjA/mR+4PMZPqPvQWZbB2KuxV2KuxV2KuxV2KuxV2KuxV2KuxV2Kvo/8qbR7byHpiuCGlEkx&#xA;B8JJWZf+FpngftlmGTtPKRyHCPlEX9r0GijWIMh1jU4NK0q71G4/urSJpWHc8RUKPdjsM0Wh0ktT&#xA;nhhj9U5Aft+HNvyTEYkno+VLu6mu7qa6nbnPcO0sr+LuSzH7zn0rhxRxwjCO0YgAe4bPMk2bUssQ&#xA;7FXYqr2EfqXcS9geR+Q3zI0sOLIAxkdnvP8Azj7/AMdnVv8AmHj/AOJ5Z279Efey0vMvcM5lzXxZ&#xA;qkHq2rED4o/iHy753Gtx8WP3burgd0izQt7sVdirsVdir6f8i6sNV8o6XecuUjQLHMT19SL925Pz&#xA;ZSc+dvaLRfltdlx9OIke6XqH3vR6afFjBT3NK3vk7Wf+Ovff8xEv/Ezn0zof7jH/AFI/c8vk+o+9&#xA;CZlMXYq7FXYq7FXYq7FXYq7FXYq7FXYq7FUx8vaJda3rNppdsP3ly4UvSoROrufZVqcwO09fDSae&#xA;eafKA+Z6D4nZnixmchEdX1NZ2sFnaQWkC8YLeNYol8ERQqj7hnzhnzSyzlOW8pEk+87l6aMQBQeV&#xA;/nl5oVLe38uW7/vJSLi+oeiKf3SH5t8VPYeOekf8D3sgmUtXMbD0w9/8R+A2+JdZ2jm5QHxeOZ6s&#xA;6l2KuxV2KpnosNWkmPYcR9O5zZ9m49zL4NWQvbf+cff+Ozq3/MPH/wATyjt36I+9t0vMvcM5lzXx&#xA;uQCKHoeuehkOpY5dwGC4ePsD8PyPTOcz4uCZDfE2FLKWTsVdirsVev8A5E+YRxvdAmbcH63aA9xs&#xA;sq/8RIHzzy3/AIInZn0aqI/oS++J+8fJ2vZuXnD4vXc8udq+WvOFqbXzXrEBFAl5Px/1TISv4HPo&#xA;/sPN4miwy78cf9yLeazipyHmlGbRqdirsVdirsVdirsVdirsVdirsVdiq6GGWaVIYUaSWRgscagl&#xA;mYmgAA6k5Gc4wiZSNRHMqBb6B/LD8vx5csTe36g6zdrSQbH0Y+vpg+J6sf6b+Ie13tL+fyeHiP7i&#xA;B2/pH+d/xP7dt7o9L4Ys/UWTeZNfsdA0e41O8P7uFfgjrRpJD9hF92P3dc53srs3JrdRHDj5y69w&#xA;6k+79jk5soxxMi+YdX1W81bU7nUbx+dzdOZJD2Feij2UbD2z6J0Wjx6bDHFjFQgKH47zzLzc5mRJ&#xA;PMoTMpi7FXYq7FWRWUHoWyIftUq3zOdHpsXBABx5Gy9e/wCcff8Ajs6t/wAw8f8AxPNR279Efe5G&#xA;l5l7hnMua+OM9DdSl+r23OITKPij+1/q/wBma/tDDxR4hzH3M4FJs0zc7FXYq7FUdoWs3ei6va6p&#xA;aGk9q4cA9GHRlPsykg5h9oaGGrwSw5PpmK/Ufgd2eOZhIEdH1Boms2Ws6VbanZNyt7lAy16qejK3&#xA;up2OfOnaGgyaTPLDkHqifn3EeR5vSYsgnESDw/8AOjRpbLzc98EIt9RjSRX/AGfURfTdfn8Ib6c9&#xA;h9g9eMuhGO/VikR8DuD9pHwdN2hjrJfewHO2cF2KuxV2KuxV2KuxV2KuxV2KuxVGaRo+p6vfJZad&#xA;btcXMnRFHQd2Y9FUeJzE1uuw6XGcmWQjAfih3nyZQxymaA3e8eQPyysPLaLe3nG71lh/e0qkNRus&#xA;Ve/i36s8X9pPa3LryceO4YO7rL+t+r73eaXRjHud5M0ubm3tbeS5uJFighUvLK5oqqoqSTnJ4sUs&#xA;kxCA4pSNADqXLlIAWXzv+Y/nuXzPqYS3JTSLQkWkZqC56GVh4nsOw+nPdvZb2dj2dhuW+ef1Hu/o&#xA;j3de8/B0Gq1PiS2+kMPzqXFdirsVdiqN0q29W45sPgj3+ntmbocPHOzyDCZoJ5m8aXq//OPv/HZ1&#xA;b/mHj/4nmi7d+iPvcnS8y9wzmXNfHGehupaIBBBFQdiMSLVj99am3nK/sNuh9s57U4PDlXTo3xNh&#xA;D5jsnYq7FXYqzX8s/P7+Wr82t4xbRrth66ip9J+nqqB7bMB1Hyzkfav2bHaGLjx7Z4Db+kP5p/R3&#xA;H3uXpNT4Zo/SXvV1Z6TrWnCO4jivrC4UOtaOjAiqsp+R2IzxXDnz6TLcDLHlia7iPI/qd4RGcd9w&#xA;861z8idMnkaXR757Ou4t519VB7K4KuB8+Wd52f8A8ETNACOoxif9KPpPy5fLhcDJ2bE/SaYZqn5O&#xA;edrKrRQRX8Y3LW0grT/Vk9NvuBzrNJ7c9nZtpSljP9IfpjxD5uHPQZB5sbuvLHmS0bjc6VdxHoC0&#xA;EgB+RpQ50GHtfSZR6MuOX+dH9bjywzHMFDjSNWPSynNNv7p/6Zcdbg/nw/0wY+HLuKqnlzzDIAU0&#xA;u7cN0KwSmv3Llcu1NLHnlxj/AD4/rT4U+4/JEp5L84O3EaJfg/5VtKo+8qBmPLt7QAX4+L/Tx/Wy&#xA;/L5P5p+SIj/LzztIKro1yN6fEnH/AIlTKJ+03Z0eeaHzv7mQ0uT+aUZD+U/n+U7aWUFaEvNAtPoL&#xA;1zEn7Z9mR/yt+6M/+JZjRZT0+5MLf8k/O0tOYtYK/wC/Jq0/4BXzCy+33Z0eXHL3R/WQ2Ds/Ie5H&#xA;x/kffRvHHqGt2dq8lAqqGck7D4Q5irmFP/gg45AnFgyTA9w+dcTMdnHrIBPrP8hNIQg3mqTzgdRE&#xA;iRV/4Iy5pc//AAR85/u8UI+8mX3cLfHsyPUln3l/yzomgWn1bS7ZYFahkk+1I5Hd3O5zie0u1tRr&#xA;Z8eaXEeg6D3BzsWGMBUQq63r2k6JZNeancpbwj7PI/E5/lRRux9hlfZ/ZufV5PDwxMpfYPMnkAnJ&#xA;ljAXIvBfP35k6h5nk+q24a00eNqpb1+OQjo0pH4L0HvntXs37K4uzxxy9ec/xdI+Uf18z5Oj1OrO&#xA;TblFhmdY4jsVdirsVXRxvI6ogqzGgGShAyNDmglkNrbrbwrGvbdj4nOiwYhjjwhoJtWy1D1f/nH3&#xA;/js6t/zDx/8AE80Xbv0R97k6XmXuGcy5r44z0N1LsVULu1W4hKHZhujeBynUYRkjSYmmPyRvG5Rx&#xA;Rl2IznpwMTR5t4K3IpdirsVdirM/IP5k6h5YlFrOGutHdqyW9fijJ6vET+K9D7dc5P2k9lcXaEeO&#xA;PozjlLofKX6+Y+xy9Nqzj25xe+aPrWmazYpfabcLcWz/ALS9VNKlWHVWFehzxTXaDNpMhx5omMh+&#xA;LHePN3mPJGYsFj+u/lto2pXD3lrcXWl37ks09rKwBY92Qkj/AIGmbvs/2q1GniMc4wzYx0nEff8A&#xA;rtoyaSMjYJB8kF5e8oeetJ1yCSfzG2oaNHy9WGcu0jgghRR/UpuevPMvtPtvs3U6aQjpvCzmqMao&#xA;d/Kv9ywxYMsZbyuLEtZ1H879P1C4K/WJ4Q7CN7a3hnjKV+EqFjYjbxFc6fQ6X2cz4o3wRlW/FOUT&#xA;fnch+pxck9TEnn8kw86+a/Pln5X8vXcAls726SVtTKQgkMvAR8gynhyDE0/pmD2B2N2Zl1mohLhn&#xA;jgY+Hcuhviqj6qoC/wBbZqM2UQiRsTzQH5b+cvPOpebrSz1G4muLCRZTcK8ShVCxsytyVVp8YUfT&#xA;mb7Vdhdm6fQzyYoxjkBjw1I/zhYq99ra9JqMssgBOyD8yaj+az+Y9UtrH9J/VEupVthBFIEEXqH0&#xA;qMi/Z4U3rmX2VpexBpMU8ngcZxx4uKQvir1bE87YZZ5+MgcVWy3R9H8/Xn5cahZ3lzPFr9zPztJL&#xA;iVkkWJWiJXmpLLyCPt75zGu13ZmLtbHkxxjLTQjUhGIIMqlvXI1cfk5ePHlOEgn1FKdM/JrzBcyJ&#xA;Nr2uNQGrRQtJKxB6j1JCvE/Qc2er9utLjBjpsA98hGI/0ou/mGqGgmfqk9QbSdMe7hvHtYnu7dPT&#xA;guHUNIijsrGpGecjW5hA4xKQhI2QDQJ8w7Lgjd1uiZZooYmlmdY4kBZ5HIVVA6kk7DKIQlMiMRZP&#xA;QMiQObzTzf8AnTptkr2vl9RfXfQ3bgiBD/kjYyH7h7nPQuxPYLLlInqj4cP5o+o+/pH7T7nW5+0A&#xA;NobvHNW1nVNXvGvNSuXurhv23NaCteKjoq+w2z1XR6HDpsYx4YiER3fp7z5l1M5mRsm0HmUxdirs&#xA;VdirgCTQbk9BhAQnmm2PoJ6jj96w/wCBHhm70el8MWfqLVOVo3M1g7FXq/8Azj7/AMdnVv8AmHj/&#xA;AOJ5ou3foj73J0vMvcM5lzXxxnobqXYq7FUHqFiLhOabTKNvf2OYer0viCx9TKMqSJlKkqwoRsQc&#xA;0ZBBotzsCXYq7FXYqmOheYtZ0K7+taXdPbyH7ajdHA7OhqrD55gdodmafWQ4M0RIfaPceYZ48soG&#xA;4l6noP572rqseu2DRP0NxafEh+cbnko+THPOO0f+B1MG9NksfzZ8/wDTDb7A7PF2l/OHyZ3pPnny&#xA;jqoX6lqkDO2wikb0pCfZJODH6BnGaz2d12m/vMUq7wOIfONhzYanHLkU9BBFRuDmlIb3Yq7FXYq4&#xA;kAVOwGICpHqvnnyjpQb67qsCuuzRRt6sgPukfNh92bnR+zuu1P8Ad4p13kcI+cqDRPU448ywPXfz&#xA;3tUDR6HYNM/QXF2eCA+0aEsw+bLnadnf8DqZ31OSh/Nhuf8ATHl8i4WXtL+aPm808wecPMWvyctT&#xA;vXljrVbdfghXwpGtF+k756D2b2JpNEKwwET385H4nf4cnXZc85/UUmzatTsVdirsVdiraqzMFUEs&#xA;dgBhAJNBCc6fpwhpJLvL2HZf7c3Wl0fB6pfV9zVKVo/M5g7FXYq9X/5x9/47Orf8w8f/ABPNF279&#xA;Efe5Ol5l7hnMua+OM9DdS7FXYq7FUHfaelwOS0WUdD2PzzE1WkGTcbSZRlSSSRvG5R1KsOoOaOcD&#xA;E0ebcCtyKXYq7FXYq7FXYqjbHW9Z08UsL+4tR1pDK8Y+5SMxNRoMGf8AvMcJ/wBaIP3so5JR5Gk6&#xA;t/zN89wKAmrykD/fixyHb3dWzU5PZTs2fPDH4WPuIbhq8o/iKI/5W1+YP/V1/wCne2/6p5j/AOgv&#xA;sv8A1L/Zz/4pl+ey9/2BC3H5leep14vrEwH/ABWEjPj1RVzJx+yvZsOWGPxs/eSwOqyH+IpNe61r&#xA;F+KX1/cXY8J5Xk6f6xObbT6HBh/u8cIf1Ygfc1SnKXM2g8ymLsVdirsVdirsVdiqtbWc9w1EHw93&#xA;PQZfh08sh2YmQCdWljDbDb4pD1c9fozdYNNHGNufe1SlaJzIYuxV2KuxV6v/AM4+/wDHZ1b/AJh4&#xA;/wDieaLt36I+9ydLzL3DOZc18cZ6G6l2KuxV2KuxVRubSG4Wkg3H2WHUZTmwRyCikSpJbuwntzUj&#xA;lH2cdPp8M0ufSyx+Y724SBQ2YzJ2KuxV2KuxV2KuxV2KuxV2KuxV2KuxV2KuxVUht5pjSNC3iew+&#xA;nLMeGUz6QgkBM7bR0WjTnmf5B0zaYezwN57tRn3JiqqqhVACjoBsM2IAAoMG8VdirsVdirsVer/8&#xA;4+/8dnVv+YeP/ieaLt36I+9ydLzL3DOZc18cZ6G6l2KuxV2KuxV2KuIBFDuDiqAudJhkq0R9NvD9&#xA;n+zMDNoIy3jsfsZiaVz2dxAf3iGn8w3H35q8unnDmGwSBUcpZOxV2KuxV2KuxV2KuxV2KuxVwBJo&#xA;NzhpCKg0y7l348F8W2/DrmVj0WSXSvexMwEwg0i3joZCZG99h92bDFoIR57sDMo5VVQAoAA6AbDM&#xA;4ADYMG8VdirsVdirsVdirsVer/8AOPv/AB2dW/5h4/8AieaLt36I+9ydLzL3DOZc18cZ6G6l2Kux&#xA;V2KuxV2KuxV2KuIrsemKoSfTLSWp48G8V2/DpmLk0WOXSvcyEyEDLo067xuHHgdjmDPs6Q+k2zGQ&#xA;IWSzuo/tRMPcCo+8ZiS0+SPMFkJBRII2OUsnYq2qO32VJ+QyQiTyQqLaXTdIn/4E5YMGQ/wlHEFV&#xA;NMvW/wB10HuQMtjosp6I4wrposx+3Iq/Kp/pl0ezZdSEeIiY9Gtl3cs/t0H4Zkw7PgOdlichRcVv&#xA;BF/doF9wN/vzMhijHkKYkkqmTQ7FXYq7FXYq7FXYq7FXYq7FXq//ADj7/wAdnVv+YeP/AInmi7d+&#xA;iPvcnS8y9wzmXNf/2Q==</xmpGImg:image>
               </rdf:li>
            </rdf:Alt>
         </xmp:Thumbnails>
      </rdf:Description>
      <rdf:Description rdf:about=""
            xmlns:xmpTPg="http://ns.adobe.com/xap/1.0/t/pg/"
            xmlns:stDim="http://ns.adobe.com/xap/1.0/sType/Dimensions#"
            xmlns:xmpG="http://ns.adobe.com/xap/1.0/g/">
         <xmpTPg:MaxPageSize rdf:parseType="Resource">
            <stDim:w>1347.553223</stDim:w>
            <stDim:h>1281.274902</stDim:h>
            <stDim:unit>Pixels</stDim:unit>
         </xmpTPg:MaxPageSize>
         <xmpTPg:NPages>1</xmpTPg:NPages>
         <xmpTPg:HasVisibleTransparency>False</xmpTPg:HasVisibleTransparency>
         <xmpTPg:HasVisibleOverprint>False</xmpTPg:HasVisibleOverprint>
         <xmpTPg:PlateNames>
            <rdf:Seq>
               <rdf:li>Cyan</rdf:li>
               <rdf:li>Magenta</rdf:li>
               <rdf:li>Yellow</rdf:li>
               <rdf:li>Black</rdf:li>
            </rdf:Seq>
         </xmpTPg:PlateNames>
         <xmpTPg:SwatchGroups>
            <rdf:Seq>
               <rdf:li rdf:parseType="Resource">
                  <xmpG:groupName>Default Swatch Group</xmpG:groupName>
                  <xmpG:groupType>0</xmpG:groupType>
               </rdf:li>
            </rdf:Seq>
         </xmpTPg:SwatchGroups>
      </rdf:Description>
      <rdf:Description rdf:about=""
            xmlns:dc="http://purl.org/dc/elements/1.1/">
         <dc:format>image/svg+xml</dc:format>
      </rdf:Description>
      <rdf:Description rdf:about=""
            xmlns:xmpMM="http://ns.adobe.com/xap/1.0/mm/"
            xmlns:stEvt="http://ns.adobe.com/xap/1.0/sType/ResourceEvent#"
            xmlns:stRef="http://ns.adobe.com/xap/1.0/sType/ResourceRef#">
         <xmpMM:DocumentID>xmp.did:9E15EFF04A5DEE11B374DA24BC2815D8</xmpMM:DocumentID>
         <xmpMM:InstanceID>xmp.iid:9E15EFF04A5DEE11B374DA24BC2815D8</xmpMM:InstanceID>
         <xmpMM:OriginalDocumentID>xmp.did:7615B0239E5CEE118C8782C4946F1117</xmpMM:OriginalDocumentID>
         <xmpMM:History>
            <rdf:Seq>
               <rdf:li rdf:parseType="Resource">
                  <stEvt:action>saved</stEvt:action>
                  <stEvt:instanceID>xmp.iid:7615B0239E5CEE118C8782C4946F1117</stEvt:instanceID>
                  <stEvt:when>2023-09-26T20:54:36+02:00</stEvt:when>
                  <stEvt:softwareAgent>Adobe Illustrator CS6 (Windows)</stEvt:softwareAgent>
                  <stEvt:changed>/</stEvt:changed>
               </rdf:li>
               <rdf:li rdf:parseType="Resource">
                  <stEvt:action>saved</stEvt:action>
                  <stEvt:instanceID>xmp.iid:9E15EFF04A5DEE11B374DA24BC2815D8</stEvt:instanceID>
                  <stEvt:when>2023-09-27T18:41:10+02:00</stEvt:when>
                  <stEvt:softwareAgent>Adobe Illustrator CS6 (Windows)</stEvt:softwareAgent>
                  <stEvt:changed>/</stEvt:changed>
               </rdf:li>
            </rdf:Seq>
         </xmpMM:History>
         <xmpMM:DerivedFrom rdf:parseType="Resource">
            <stRef:instanceID>xmp.iid:9B15EFF04A5DEE11B374DA24BC2815D8</stRef:instanceID>
            <stRef:documentID>xmp.did:9B15EFF04A5DEE11B374DA24BC2815D8</stRef:documentID>
            <stRef:originalDocumentID>xmp.did:7615B0239E5CEE118C8782C4946F1117</stRef:originalDocumentID>
         </xmpMM:DerivedFrom>
      </rdf:Description>
   </rdf:RDF>
</x:xmpmeta>
                                                                                                    
                                                                                                    
                                                                                                    
                                                                                                    
                                                                                                    
                                                                                                    
                                                                                                    
                                                                                                    
                                                                                                    
                                                                                                    
                                                                                                    
                                                                                                    
                                                                                                    
                                                                                                    
                                                                                                    
                                                                                                    
                                                                                                    
                                                                                                    
                                                                                                    
                                                                                                    
                           
<?xpacket end="w"?>
	</metadata>
<g id="Layer_2">
</g>
<g id="Layer_1">
	<rect x="-2.208" y="-10.082" fill="#4E63D2" width="1347.553" height="1281.275"/>
	<g>
		<path fill-rule="evenodd" clip-rule="evenodd" fill="#3A4B73" d="M-2.163,721.449c0-31.313,0-62.623,0-93.937
			c1.891-0.441,1.476-2.021,1.672-3.33c2.924-19.559,5.847-39.12,11.211-58.201c14.722-52.375,33.894-103.169,56.177-152.72
			c38.488-85.585,91.938-160.679,160.544-224.836C312.427,108.95,411.615,54.869,523.278,23.118
			c36.481-10.376,73.51-18.262,111.006-23.86c20.52-3.064,41.057-6.12,61.838-7.014c3.393-0.146,6.905-0.456,9.968-2.326
			c32.697,0,65.396,0,98.094,0c1.395,1.292,3.194,1.502,4.935,1.702c14.162,1.625,28.402,2.32,42.578,3.898
			c50.511,5.619,99.083,18.389,145.91,38.129c62.267,26.248,118.323,62.307,169.475,106.249
			c43.138,37.057,80.965,78.741,110.576,127.502c40.768,67.139,62.351,140.044,65.279,218.513c0.143,3.785,0.122,7.719,2.408,11.09
			c0,32.42,0,64.841,0,97.26c-3.39,2.72-1.452,6.497-1.698,9.72c-2.095,27.19-4.525,54.336-8.104,81.383
			c-6.207,46.953-15.115,93.362-27.666,139.033c-37.025,134.716-115.38,238.074-235.481,309.619
			c-58.776,35.007-121.447,61.432-185.645,84.644c-60.828,21.993-123.553,35.064-187.64,42.45
			c-21.733,2.505-43.506,4.51-65.295,6.355c-6.922,0.588-13.664,3.395-20.411,3.27c-22.569-0.42-45.182,2.053-67.733-1.456
			c-15.309-2.381-30.695-4.275-45.771-7.905c-61.874-14.89-120.847-37.48-176.755-67.83
			c-86.612-47.02-158.83-110.319-215.094-191.513c-40.044-57.786-68.397-121.185-90.18-187.704
			c-8.535-26.063-15.136-52.609-17.105-80.125C0.458,729.859,0.29,725.357-2.163,721.449z M1082.484,533.203
			c-17.357-60.338-48.492-113.109-90.975-159.137c-30.717-33.282-67.627-57.942-109.15-75.802
			c-43.745-18.821-89.237-30.518-136.896-33.017c-21.564-1.132-43.154-1.879-64.739-2.481c-10.263-0.287-18.62-3.814-25.542-11.496
			c-11.088-12.306-24.62-21.267-39.844-27.699c-15.354-6.488-31.525-9.646-47.969-11.598c-4.386-0.521-8.822-0.613-13.234-0.931
			c-1.676-0.122-2.851,0.871-3.074,2.21c-0.293,1.737,1.627,1.554,2.63,1.815c4.783,1.244,9.611,2.31,14.425,3.442
			c17.662,4.167,35.353,8.23,51.709,16.505c12.44,6.294,23.274,14.553,32.448,26.085c-6.056,0-11.523-0.714-16.728,0.158
			c-9.213,1.544-17.198-0.671-24.692-5.744c-4.914-3.328-9.939-6.467-15.229-9.175c-25.037-12.814-51.063-14.553-77.881-6.853
			c-4.67,1.342-8.78,3.708-11.059,9.256c35.132-10.886,67.651-7.11,98.218,14.269c-2.11,0.504-3.561,0.951-5.042,1.189
			c-36.443,5.861-71.513,16.318-105.103,31.623c-52.944,24.124-97.296,59.144-132.99,105.133
			c-22.791,29.366-40.751,61.653-57.974,94.446c-30.222,57.555-47.12,118.761-50.483,183.61
			c-1.012,19.477-0.755,39.018,0.437,58.544c1.346,22.06,3.355,44.018,6.71,65.874c4.267,27.803,10.981,54.963,20.918,81.28
			c13.832,36.643,33.424,69.813,59.662,99.029c16.918,18.838,36.142,35.081,55.925,50.72c19.262,15.217,39.829,28.43,63.05,36.723
			c27.07,9.667,54.787,17.166,83.017,22.761c26.181,5.188,52.544,8.539,79.244,9.063c28.112,0.554,56.087-0.869,83.946-4.91
			c19.755-2.864,39.333-6.493,58.673-11.422c57.269-14.598,110.349-38.795,159.76-70.91c19.55-12.708,40.077-24.195,56.031-42.021"
			/>
		<path fill-rule="evenodd" clip-rule="evenodd" fill="#FCEF03" d="M480.908,456.359c6.043,0.449,14.81-0.619,23.465-2.632
			c9.833-2.287,18.956-6.067,26.159-13.465c7.086-7.279,6.782-15.222-0.814-21.99c-4.201-3.739-9.21-6.05-14.507-7.749
			c-14.078-4.514-28.61-6.146-43.301-6.502c-14.985-0.361-29.85,1.307-44.644,3.423c-9.438,1.351-18.764,3.397-27.289,7.971
			c-10.764,5.771-13.365,22.919-4.107,29.095c7.472,4.985,15.67,8.931,24.911,9.374C439.861,454.791,458.952,455.47,480.908,456.359
			z M761.85,424.716c12.878-0.651,25.411-3.378,37.801-6.792c16.125-4.443,32.051-9.467,45.981-19.165
			c6.833-4.759,13.239-9.996,17.764-17.204c6.085-9.69,1.995-25.322-11.907-27.072c-9.404-1.184-18.744-1.206-28.039,0.718
			c-22.518,4.657-42.666,14.768-61.81,27.087c-5.356,3.45-10.026,7.787-14.072,12.805c-5.984,7.423-3.455,14.73-0.065,22.112
			C750.347,423.397,755.464,425.237,761.85,424.716z M653.776,485.785c-14.213,0.916-28.255,3.064-42.2,5.845
			c-5.497,1.096-6.046,2.378-3.759,7.767c3.51,8.279,6.457,16.741,7.549,25.694c0.482,3.974,2.603,4.885,5.96,4.233
			c12.446-2.414,24.867-4.963,37.327-7.313c3.104-0.585,3.924-2.245,3.193-4.979c-0.968-3.619-1.415-7.293-1.702-11.019
			c-0.394-5.092-0.906-10.18-1.552-15.245C658.244,488.032,657.277,485.581,653.776,485.785z M621.058,1014.876
			c0,0.277-0.001,0.548-0.001,0.825c-7.059,0-14.116,0.026-21.174-0.014c-3.335-0.016-5.029,1.416-5.361,4.88
			c-0.651,6.773-0.457,13.56-0.634,20.338c-0.078,3.062,1.644,4.523,4.569,4.758c14.514,1.177,29.051,1.146,43.591,0.806
			c3.814-0.089,5.888-2.018,5.878-5.95c-0.018-6.649,0.061-13.301-0.082-19.945c-0.088-4.066-1.843-5.645-6.01-5.681
			C634.909,1014.83,627.983,1014.876,621.058,1014.876z M500.676,535.025c0.012,0.072-0.035,0.675,0.185,1.158
			c3.076,6.772,6.046,13.602,9.374,20.25c1.094,2.185,3.332,3.061,6.032,2.155c11.62-3.89,23.255-7.739,34.925-11.481
			c2.858-0.917,3.29-2.588,2.323-5.062c-3.414-8.722-6.839-17.436-10.259-26.154c-1.193-3.043-3.443-4.035-6.282-2.622
			c-11.237,5.593-22.408,11.321-33.59,17.023C501.68,531.161,500.528,532.467,500.676,535.025z M779.249,512.853
			c0-0.373,0.004-0.747,0.004-1.118c13.845,0,27.685,0.027,41.528-0.039c1.644-0.007,4.282,1.129,4.72-0.846
			c0.445-1.995-2.541-1.891-3.921-2.847c-0.324-0.226-0.794-0.231-1.178-0.381c-15.958-6.229-32.369-10.998-49.104-14.552
			c-10.646-2.262-21.308-4.653-32.251-5.223c-3.943-0.206-6.187,1.668-7.214,5.388c-1.113,4.021-1.389,8.155-1.967,12.252
			c-0.815,5.782,0.458,7.355,6.208,7.361C750.469,512.864,764.859,512.853,779.249,512.853z M711.637,1011.824
			c-6.061,0.389-12.545,0.852-19.034,1.198c-6.49,0.351-12.993,0.483-19.479,0.907c-5.928,0.382-7.367,1.675-7.471,7.582
			c-0.104,6.074,0.294,12.165,0.667,18.235c0.204,3.331,2.339,5.044,5.602,4.651c12.746-1.53,25.617-2.021,38.248-4.471
			c5.931-1.148,7.557-3.063,8.377-9.081c0.464-3.417,0.815-6.854,1.306-10.269C720.913,1013.204,719.548,1011.646,711.637,1011.824z
			 M568.429,541.9c0.577-0.026,0.866,0.008,1.128-0.06c11.182-2.903,22.369-5.788,33.535-8.752c2.764-0.732,3.069-2.55,1.483-4.702
			c-5.896-8.008-9.155-17.19-12.048-26.561c-1.431-4.639-3.48-5.952-8.028-4.659c-8.729,2.482-17.398,5.178-26.041,7.95
			c-4.085,1.308-4.794,3.061-2.762,6.874c4.433,8.324,7.841,16.965,9.306,26.338C565.3,540.229,566.073,542.188,568.429,541.9z
			 M687.07,484.534c-1.105,0-2.211-0.004-3.318,0c-8.285,0.021-10.863,2.975-8.982,11.08c1.228,5.288,1.716,10.622,2.182,15.976
			c0.511,5.842,2.545,7.624,8.273,6.883c8.21-1.063,16.418-2.143,24.631-3.184c1.718-0.22,3.496-0.515,3.817-2.509
			c1.244-7.744,3.042-15.471,0.999-23.368c-0.884-3.434-2.869-5.252-6.541-4.881C701.111,485.246,694.091,485.211,687.07,484.534z
			 M426.087,597.514c1.297-0.543,2.444-0.986,3.563-1.497c19.558-8.905,39.115-17.815,58.662-26.749
			c1.371-0.629,2.691-1.401,3.963-2.219c2.9-1.867,3.99-4.317,2.761-7.784c-1.673-4.714-4.271-8.942-6.603-13.314
			c-2.119-3.974-3.408-4.285-7.046-1.551c-19.385,14.585-37.187,30.929-53.8,48.588
			C426.497,594.145,425.626,595.295,426.087,597.514z M544.893,1015.737c-1.797,0-3.593,0-5.391,0
			c-9.025,0.007-10.875,2.061-10.062,11.19c0.085,0.96,0.245,1.92,0.411,2.873c0.861,4.896,3.317,7.403,8.259,8.457
			c11.606,2.478,23.423,3.609,35.117,5.53c3.002,0.492,4.817-0.93,5.479-3.744c0.501-2.139,0.868-4.336,1.011-6.524
			c0.757-11.485-2.651-15.782-14.141-16.755C558.71,1016.177,551.827,1015.206,544.893,1015.737z M793.185,1013.674
			c-1.115-2.183,1.701-7.211-4.564-7.219c-15.674-0.014-31.12,2.676-46.706,3.709c-1.655,0.111-4.244,0.469-4.153,2.661
			c0.246,6.054-1.882,12.078-0.074,18.134c1.007,3.373,2.914,4.69,6.471,3.755c14.524-3.821,29.105-7.412,43.386-12.129
			C791.766,1021.186,793.718,1018.693,793.185,1013.674z M442.701,1009.659c21.799,9.553,44.17,16.446,66.837,22.423
			c4.174,1.102,6.608-0.938,6.906-5.336c0.135-1.99,0.856-3.744,1.391-5.59c1.184-4.089,0.217-5.583-3.993-6.261
			c-6.27-1.001-12.539-1.995-18.812-2.984c-14.869-2.339-29.667-5.25-44.803-5.404
			C447.358,1006.479,444.67,1006.67,442.701,1009.659z M831.518,1002.724c-6.596-1.161-12.554-0.283-18.454,0.839
			c-3.46,0.654-3.443,3.527-2.992,6.244c0.279,1.672,1.324,2.963,3.191,2.196C819.43,1009.474,825.839,1007.383,831.518,1002.724z
			 M606.277,443.836c-2.831,0.259-4.35,2.337-4.5,5.439c-0.191,3.993,2.677,7.008,6.479,7.064c2.914,0.043,5.564-2.59,5.511-5.479
			C613.709,447.498,610.045,443.805,606.277,443.836z M634.075,439.424c-3.238,0.07-4.545,1.546-4.458,5.027
			c0.098,3.957,2.508,6.711,5.84,6.674c3.147-0.036,5.039-2.243,4.98-5.807C640.375,441.462,638.081,439.336,634.075,439.424z"/>
		<g id="XMLID_1_">
			<g>
				<path fill="#FCEF03" d="M1110.1,761.125c-5.271,50.207-58.479,158.288-122.763,212.619
					c-34.12,27.976-43.141,29.314-62.687,42.026c-49.409,32.116-102.484,56.31-159.759,70.909
					c-19.338,4.93-38.917,8.555-58.671,11.423c-27.86,4.041-55.836,5.462-83.945,4.905c-26.704-0.523-53.067-3.874-79.248-9.063
					c-28.226-5.595-55.944-13.094-83.014-22.763c-23.221-8.289-43.789-21.5-63.053-36.723
					c-19.778-15.63-39.008-31.884-55.927-50.715c-26.239-29.215-45.826-62.387-59.66-99.026
					c-9.935-26.321-16.653-53.483-20.918-81.284c-3.351-21.857-5.362-43.814-6.709-65.871c-1.189-19.529-1.447-39.075-0.441-58.546
					c3.367-64.849,20.261-126.056,50.49-183.612c17.218-32.79,35.176-65.081,57.973-94.445
					c35.691-45.993,80.046-81.01,132.988-105.137c33.588-15.298,68.656-25.756,105.104-31.618c1.479-0.241,2.927-0.69,5.038-1.189
					c-30.562-21.383-63.086-25.158-98.212-14.267c2.278-5.554,6.385-7.923,11.058-9.262c26.813-7.699,52.843-5.961,77.876,6.851
					c5.287,2.71,10.317,5.853,15.231,9.179c7.49,5.071,15.479,7.283,24.691,5.745c5.205-0.873,10.676-0.158,16.728-0.158
					c-9.17-11.531-20.011-19.795-32.449-26.089c-16.353-8.272-34.045-12.338-51.712-16.503c-4.806-1.13-9.636-2.195-14.416-3.442
					c-1.006-0.266-2.927-0.075-2.636-1.82c0.225-1.331,1.396-2.328,3.076-2.204c4.415,0.316,8.846,0.408,13.235,0.931
					c16.445,1.954,32.615,5.105,47.963,11.598c15.231,6.435,28.758,15.389,39.849,27.693c6.926,7.69,15.281,11.215,25.54,11.498
					c21.591,0.607,43.174,1.355,64.74,2.486c47.663,2.494,93.157,14.192,136.896,33.015c41.52,17.858,78.433,42.517,109.152,75.806
					c42.484,46.026,76.621,98.793,93.972,159.136c11.515,40.039,23.554,59.036,28.168,123.868
					C1118.68,727.712,1115.371,710.801,1110.1,761.125z"/>
			</g>
			<g>
			</g>
		</g>
		<path fill-rule="evenodd" clip-rule="evenodd" fill="#3A4B73" d="M371.406,955.317c36.8,27.158,66.128,29.296,85.309,34.456
			c28.027,7.536,56.396,12.822,85.502,12.181c26.303-0.574,52.584-2.049,78.876-3.067c34.869-1.36,69.725-2.832,104.527-5.504
			c22.765-1.748,45.51-3.695,68.203-6.164c22.126-2.402,44.197-5.296,66.275-8.116c11.026-1.404,21.926-3.677,31.297-10.003
			c29.765-20.096,58.545-41.449,83.238-67.76c42.619-45.412,58.828-98.651,45.403-159.759
			c-16.313-74.262-53.406-136.06-113.102-183.826c-14.691-11.759-30.131-21.98-48.803-26.333
			c-14.413-3.36-29.114-3.308-43.762-3.604c-23.124-0.468-46.265-0.442-69.372,0.841c-19.208,1.067-38.376,2.712-57.454,5.168
			c-29.339,3.781-58.322,9.484-87.092,16.342c-62.777,14.957-123.41,35.886-181.303,64.575
			c-11.744,5.819-15.008,8.545-27.842,25.247C355.75,697.15,337.816,875.504,371.406,955.317z"/>
		<path fill-rule="evenodd" clip-rule="evenodd" fill="#3A4B73" d="M480.908,456.359c-21.956-0.89-41.047-1.568-60.127-2.476
			c-9.24-0.443-17.438-4.389-24.911-9.374c-9.258-6.176-6.657-23.323,4.107-29.095c8.525-4.573,17.85-6.62,27.289-7.971
			c14.794-2.116,29.658-3.784,44.644-3.423c14.69,0.355,29.223,1.988,43.301,6.502c5.297,1.699,10.306,4.01,14.507,7.749
			c7.597,6.769,7.9,14.711,0.814,21.99c-7.203,7.397-16.326,11.178-26.159,13.465C495.718,455.74,486.951,456.809,480.908,456.359z"
			/>
		<path fill-rule="evenodd" clip-rule="evenodd" fill="#3A4B73" d="M761.85,424.716c-6.386,0.521-11.503-1.318-14.348-7.512
			c-3.39-7.382-5.919-14.689,0.065-22.112c4.046-5.018,8.716-9.354,14.072-12.805c19.144-12.319,39.292-22.43,61.81-27.087
			c9.295-1.923,18.635-1.901,28.039-0.718c13.902,1.75,17.992,17.382,11.907,27.072c-4.524,7.208-10.931,12.445-17.764,17.204
			c-13.931,9.698-29.856,14.722-45.981,19.165C787.261,421.338,774.728,424.064,761.85,424.716z"/>
		<path fill-rule="evenodd" clip-rule="evenodd" fill="#3A4B73" d="M653.776,485.785c3.501-0.204,4.468,2.247,4.816,4.982
			c0.646,5.065,1.158,10.153,1.552,15.245c0.287,3.726,0.734,7.399,1.702,11.019c0.73,2.734-0.09,4.395-3.193,4.979
			c-12.46,2.351-24.881,4.899-37.327,7.313c-3.357,0.651-5.478-0.26-5.96-4.233c-1.092-8.953-4.039-17.415-7.549-25.694
			c-2.287-5.389-1.738-6.671,3.759-7.767C625.521,488.85,639.563,486.701,653.776,485.785z"/>
		<path fill-rule="evenodd" clip-rule="evenodd" fill="#3A4B73" d="M621.058,1014.876c6.926,0,13.852-0.046,20.776,0.017
			c4.167,0.036,5.922,1.614,6.01,5.681c0.143,6.645,0.064,13.296,0.082,19.945c0.01,3.933-2.063,5.861-5.878,5.95
			c-14.54,0.34-29.077,0.371-43.591-0.806c-2.926-0.234-4.647-1.696-4.569-4.758c0.177-6.778-0.018-13.564,0.634-20.338
			c0.332-3.464,2.026-4.896,5.361-4.88c7.058,0.04,14.115,0.014,21.174,0.014C621.057,1015.424,621.058,1015.153,621.058,1014.876z"
			/>
		<path fill-rule="evenodd" clip-rule="evenodd" fill="#3A4B73" d="M500.676,535.025c-0.147-2.559,1.004-3.864,2.708-4.732
			c11.182-5.702,22.353-11.431,33.59-17.023c2.839-1.413,5.089-0.421,6.282,2.622c3.42,8.719,6.845,17.433,10.259,26.154
			c0.967,2.474,0.535,4.145-2.323,5.062c-11.67,3.742-23.305,7.592-34.925,11.481c-2.7,0.905-4.938,0.029-6.032-2.155
			c-3.328-6.648-6.298-13.478-9.374-20.25C500.641,535.7,500.688,535.098,500.676,535.025z"/>
		<path fill-rule="evenodd" clip-rule="evenodd" fill="#3A4B73" d="M779.249,512.853c-14.39,0-28.78,0.012-43.174-0.004
			c-5.75-0.006-7.023-1.579-6.208-7.361c0.578-4.097,0.854-8.231,1.967-12.252c1.027-3.72,3.271-5.594,7.214-5.388
			c10.943,0.569,21.605,2.961,32.251,5.223c16.734,3.554,33.146,8.322,49.104,14.552c0.384,0.149,0.854,0.155,1.178,0.381
			c1.38,0.956,4.366,0.852,3.921,2.847c-0.438,1.975-3.076,0.839-4.72,0.846c-13.844,0.066-27.684,0.039-41.528,0.039
			C779.253,512.105,779.249,512.479,779.249,512.853z"/>
		<path fill-rule="evenodd" clip-rule="evenodd" fill="#3A4B73" d="M711.637,1011.824c7.911-0.179,9.276,1.38,8.215,8.754
			c-0.49,3.415-0.842,6.852-1.306,10.269c-0.82,6.019-2.446,7.933-8.377,9.081c-12.631,2.449-25.502,2.94-38.248,4.471
			c-3.263,0.393-5.397-1.32-5.602-4.651c-0.373-6.07-0.771-12.161-0.667-18.235c0.104-5.907,1.543-7.2,7.471-7.582
			c6.486-0.424,12.989-0.557,19.479-0.907C699.092,1012.676,705.576,1012.213,711.637,1011.824z"/>
		<path fill-rule="evenodd" clip-rule="evenodd" fill="#3A4B73" d="M568.429,541.9c-2.355,0.288-3.129-1.672-3.427-3.571
			c-1.465-9.373-4.873-18.014-9.306-26.338c-2.032-3.813-1.323-5.566,2.762-6.874c8.643-2.772,17.313-5.468,26.041-7.95
			c4.548-1.293,6.598,0.021,8.028,4.659c2.893,9.37,6.152,18.553,12.048,26.561c1.586,2.152,1.28,3.97-1.483,4.702
			c-11.166,2.964-22.354,5.849-33.535,8.752C569.295,541.908,569.006,541.874,568.429,541.9z"/>
		<path fill-rule="evenodd" clip-rule="evenodd" fill="#3A4B73" d="M687.07,484.534c7.021,0.677,14.041,0.712,21.061-0.003
			c3.672-0.371,5.657,1.447,6.541,4.881c2.043,7.897,0.245,15.624-0.999,23.368c-0.321,1.994-2.1,2.289-3.817,2.509
			c-8.213,1.041-16.421,2.121-24.631,3.184c-5.729,0.741-7.763-1.041-8.273-6.883c-0.466-5.354-0.954-10.688-2.182-15.976
			c-1.881-8.105,0.697-11.059,8.982-11.08C684.859,484.53,685.965,484.534,687.07,484.534z"/>
		<path fill-rule="evenodd" clip-rule="evenodd" fill="#3A4B73" d="M426.087,597.514c-0.461-2.219,0.41-3.369,1.501-4.526
			c16.613-17.659,34.415-34.003,53.8-48.588c3.638-2.734,4.927-2.423,7.046,1.551c2.331,4.372,4.93,8.601,6.603,13.314
			c1.229,3.467,0.14,5.917-2.761,7.784c-1.271,0.817-2.592,1.59-3.963,2.219c-19.547,8.934-39.104,17.844-58.662,26.749
			C428.531,596.527,427.384,596.971,426.087,597.514z"/>
		<path fill-rule="evenodd" clip-rule="evenodd" fill="#3A4B73" d="M544.891,1015.74c6.937-0.534,13.819,0.437,20.687,1.024
			c11.489,0.973,14.897,5.27,14.141,16.755c-0.143,2.188-0.51,4.386-1.011,6.524c-0.662,2.814-2.478,4.236-5.479,3.744
			c-11.694-1.921-23.511-3.053-35.117-5.53c-4.941-1.054-7.397-3.561-8.259-8.457c-0.166-0.953-0.326-1.913-0.411-2.873
			c-0.813-9.13,1.036-11.184,10.062-11.19C541.3,1015.737,543.096,1015.737,544.891,1015.74z"/>
		<path fill-rule="evenodd" clip-rule="evenodd" fill="#3A4B73" d="M793.185,1013.674c0.533,5.02-1.419,7.512-5.642,8.911
			c-14.28,4.717-28.861,8.308-43.386,12.129c-3.557,0.936-5.464-0.382-6.471-3.755c-1.808-6.056,0.32-12.08,0.074-18.134
			c-0.091-2.192,2.498-2.55,4.153-2.661c15.586-1.033,31.032-3.723,46.706-3.709
			C794.886,1006.463,792.069,1011.491,793.185,1013.674z"/>
		<path fill-rule="evenodd" clip-rule="evenodd" fill="#3A4B73" d="M442.701,1009.659c1.969-2.989,4.657-3.18,7.526-3.152
			c15.136,0.154,29.934,3.065,44.803,5.404c6.272,0.989,12.542,1.983,18.812,2.984c4.21,0.678,5.177,2.172,3.993,6.261
			c-0.534,1.846-1.256,3.6-1.391,5.59c-0.298,4.398-2.732,6.438-6.906,5.336C486.871,1026.105,464.5,1019.212,442.701,1009.659z"/>
		<path fill-rule="evenodd" clip-rule="evenodd" fill="#3A4B73" d="M831.518,1002.724c-5.679,4.659-12.088,6.75-18.255,9.279
			c-1.867,0.767-2.912-0.524-3.191-2.196c-0.451-2.717-0.468-5.59,2.992-6.244C818.964,1002.44,824.922,1001.563,831.518,1002.724z"
			/>
		<path fill-rule="evenodd" clip-rule="evenodd" fill="#3A4B73" d="M606.277,443.836c3.768-0.031,7.432,3.662,7.489,7.024
			c0.054,2.89-2.597,5.522-5.511,5.479c-3.802-0.057-6.67-3.071-6.479-7.064C601.928,446.173,603.446,444.095,606.277,443.836z"/>
		<path fill-rule="evenodd" clip-rule="evenodd" fill="#3A4B73" d="M634.075,439.424c4.006-0.088,6.3,2.038,6.362,5.895
			c0.059,3.563-1.833,5.771-4.98,5.807c-3.332,0.037-5.742-2.717-5.84-6.674C629.53,440.97,630.837,439.494,634.075,439.424z"/>
	</g>
	<path fill-rule="evenodd" clip-rule="evenodd" fill="#FCEF03" d="M1409.74,989.646"/>
	<path fill-rule="evenodd" clip-rule="evenodd" fill="#3A4B73" d="M1409.74,989.646"/>
</g>
</svg>
