<?xml version="1.0" encoding="utf-8"?>
<!-- Generator: Adobe Illustrator 16.0.0, SVG Export Plug-In . SVG Version: 6.00 Build 0)  -->
<!DOCTYPE svg PUBLIC "-//W3C//DTD SVG 1.1//EN" "http://www.w3.org/Graphics/SVG/1.1/DTD/svg11.dtd">
<svg version="1.1" id="Layer_1" xmlns="http://www.w3.org/2000/svg" xmlns:xlink="http://www.w3.org/1999/xlink" x="0px" y="0px"
	 width="800px" height="761px" viewBox="0 0 800 761" enable-background="new 0 0 800 761" xml:space="preserve">
<metadata><?xpacket begin="﻿" id="W5M0MpCehiHzreSzNTczkc9d"?>
<x:xmpmeta xmlns:x="adobe:ns:meta/" x:xmptk="Adobe XMP Core 5.3-c011 66.145661, 2012/02/06-14:56:27        ">
   <rdf:RDF xmlns:rdf="http://www.w3.org/1999/02/22-rdf-syntax-ns#">
      <rdf:Description rdf:about=""
            xmlns:xmp="http://ns.adobe.com/xap/1.0/"
            xmlns:xmpGImg="http://ns.adobe.com/xap/1.0/g/img/">
         <xmp:CreatorTool>Adobe Illustrator CS6 (Windows)</xmp:CreatorTool>
         <xmp:CreateDate>2023-09-26T20:54:36+02:00</xmp:CreateDate>
         <xmp:Thumbnails>
            <rdf:Alt>
               <rdf:li rdf:parseType="Resource">
                  <xmpGImg:width>256</xmpGImg:width>
                  <xmpGImg:height>244</xmpGImg:height>
                  <xmpGImg:format>JPEG</xmpGImg:format>
                  <xmpGImg:image>/9j/4AAQSkZJRgABAgEASABIAAD/7QAsUGhvdG9zaG9wIDMuMAA4QklNA+0AAAAAABAASAAAAAEA&#xA;AQBIAAAAAQAB/+4ADkFkb2JlAGTAAAAAAf/bAIQABgQEBAUEBgUFBgkGBQYJCwgGBggLDAoKCwoK&#xA;DBAMDAwMDAwQDA4PEA8ODBMTFBQTExwbGxscHx8fHx8fHx8fHwEHBwcNDA0YEBAYGhURFRofHx8f&#xA;Hx8fHx8fHx8fHx8fHx8fHx8fHx8fHx8fHx8fHx8fHx8fHx8fHx8fHx8fHx8f/8AAEQgA9AEAAwER&#xA;AAIRAQMRAf/EAaIAAAAHAQEBAQEAAAAAAAAAAAQFAwIGAQAHCAkKCwEAAgIDAQEBAQEAAAAAAAAA&#xA;AQACAwQFBgcICQoLEAACAQMDAgQCBgcDBAIGAnMBAgMRBAAFIRIxQVEGE2EicYEUMpGhBxWxQiPB&#xA;UtHhMxZi8CRygvElQzRTkqKyY3PCNUQnk6OzNhdUZHTD0uIIJoMJChgZhJRFRqS0VtNVKBry4/PE&#xA;1OT0ZXWFlaW1xdXl9WZ2hpamtsbW5vY3R1dnd4eXp7fH1+f3OEhYaHiImKi4yNjo+Ck5SVlpeYmZ&#xA;qbnJ2en5KjpKWmp6ipqqusra6voRAAICAQIDBQUEBQYECAMDbQEAAhEDBCESMUEFURNhIgZxgZEy&#xA;obHwFMHR4SNCFVJicvEzJDRDghaSUyWiY7LCB3PSNeJEgxdUkwgJChgZJjZFGidkdFU38qOzwygp&#xA;0+PzhJSktMTU5PRldYWVpbXF1eX1RlZmdoaWprbG1ub2R1dnd4eXp7fH1+f3OEhYaHiImKi4yNjo&#xA;+DlJWWl5iZmpucnZ6fkqOkpaanqKmqq6ytrq+v/aAAwDAQACEQMRAD8A9U4q7FXYq7FXYq7FXYq7&#xA;FXYq7FXYqtmmhhiaWZ1jiQVeRyFUAdyTsMVYTrn50/l1pBZH1Rb2Zf8AdVkpnrT/AC1/df8AD5dH&#xA;BM9GByAMC1f/AJydiFV0bRGb+Wa8lC/fHGG/4nl8dJ3lrOZh2p/85BfmPeV9C4ttPU7UtoFP4z+s&#xA;ctGmgGJyljV9+ZPn6+J+sa/fUbqsczxKa/5MZQZYMUR0YmZ70kudT1K6BF1dzTg9RLI796/tE98m&#xA;AAxtDYVdiqKtdW1W0AW1vJ7dRuBFI6Co/wBUjImIK2nNl+Y/n2yI+r6/fAL0SSd5VH+xkLL+GROK&#xA;J6MhM97KNJ/5yE/MSyZfrU1vqSDYi4hVTT/Wh9Lf55XLTQLIZSz7y/8A85LaFcMseuabNYMdvXt2&#xA;FxH82UhHUfLllEtIehZjMOr0/QPN3lrzDD6ujajBegCrIjUkUf5cbUdf9kuY0oGPMNokDyTfIpdi&#xA;rsVdirsVdirsVdirsVdirsVdirsVdirsVdirsVSPzP528seWLf1tZv47YsKxwfbmf/UjWrH50pk4&#xA;YzLkxMgObxnzV/zkpqMxeDyzYLax7gXl3SSUjsViU8FPzLZlw0g6tUs3c8o13zZ5l1+X1dY1Ke9N&#xA;aqkjn01P+TGKIv8AsRmTGAjyDUZEpTk0OxV2KuxV2KuxV2KuxV2KuxV2Kqltc3NrOlxbSvBPGeUc&#xA;0bFHU+KstCMBFq9T8m/85CeZ9KZLbXV/TNiKAymiXSDps4HF/wDZip/mzGyaYHls2xykc3vXlPzz&#xA;5Z812nr6NdrK6is1q/wTx9vjjO/0jb3zCnjMebdGQPJPsgydirsVdirsVdirsVdirsVdirsVdirs&#xA;VQWs63pOi2El/qt3HZ2kf2pZTQV8FHVmPYDc4YxJNBBNPBfPf/OROo3hlsfKkZsrXdTqMoBnceMa&#xA;Gqxj3NT8szcelA3k0Sy9zx27vLu9uZLq8nkuLmU8pJpWLux8WZiScywKalHCrsVdirsVdirsVdir&#xA;sVdirsVdirsVdirsVdiqI0/Ub/TryK9sLiS1u4TyiniYo6n2IwEA7FQXvn5b/wDOQFveGLS/NxW2&#xA;ujRItVUBYXPQeso2jJ/mHw/6uYOXTVvFvhl73tSsrqHQhlYAqwNQQehBzEbm8VdirsVdirsVdirs&#xA;VdirsVdirCPzG/NbQvJluYWpeazItYNPRqEA9Hlbfgv4nt45diwmfuYTmA+Y/NvnTzD5r1E3usXJ&#xA;lIr6FuvwwxKf2Y06D59T3JzYwxiIoONKRKR5NDsVdirsVdirsVdirsVdirsVdirsVdirsVdirsVd&#xA;irsVdir038rfzm1HytJHpmrF73y+TRVryltq94q9U8U+73xs2AS3HNshkp9NadqNjqVjDfWE6XNp&#xA;cKHhmjNVZT/n0zXkEGi5IKIwK7FXYq7FXYq7FXYq7FXlX5ufnLD5aEmi6Gyz68y0mm2ZLUHxG4aS&#xA;nRe3U+BycGDi3PJqnkrYPmq7u7q8uZbq7mee5mYvLNIxZ2Y9SSdzmwApx1LCrsVdirsVdirsVdir&#xA;sVdirsVdirsVdirsVdirsVdirsVdirsVdirO/wArfzR1DyZqPozcrjQrlh9btK1KE7erFXow7j9o&#xA;fQRRmwiY82cJ0+rNO1Gx1Kxgv7CdbizuFEkM0ZqrKc1pBBouUCiMCuxV2KuxV2KuxV5T+cn5ur5b&#xA;hbQ9EkV9emX99MKEWqMNjT/fjA/CO3U9q5ODBxbnk1ZJ1sHzRLLLLK8srtJLIxaSRiWZmY1JJO5J&#xA;ObBx1uFXYq7FXYq7FXYqmmm+V/MWposljp088TV4zBCIzTr8Zov45r9T2rpsBrJkjE917/Lm3Y9P&#xA;kn9MSWQx6HLptoF1rybNMFUcr23muFYAdWehmjr9CjNNLXxzT/cauIJ/hlGBHuH0y+0uUMJgPXjP&#xA;vF/tCHj0Dydq5CaJqsljeNtHZ6qqqrnwWeP4B4AEVOXS7Q12m3z4hkh/OxdPfA7++mAw4sn0So90&#xA;v1se1XSNS0m8az1CBre4Tfi3Qj+ZSNmHuM3Ok1mLUYxkxSEon8fBxcmKUDUhRQeZTB2KuxV2KuxV&#xA;2KuxV2KuxV2KuxV2KuxV6n+SX5oP5c1JdE1WY/oK9eiO52tpmOz79EY/b8PteNcbUYeIWObZjnWz&#xA;6c67jNc5LsVdirsVdirB/wA1/wAx4PJuhVgKya1ehk0+E78afamcfyp+J28cuw4uM+TCc6D5Nurq&#xA;5u7mW6upWmuZ2Mk0zkszOxqWJPc5swKcVSwq7FXYq7FXYq7FXYqm1p/irWSltateXwhCqkSGR0jU&#xA;bKKfZRR9AzW5vymmBlPw8d9TQv8AWW6PiZNhZZv5b8ifmXbOksepfotQ1TE8xlr7+kvqRt/sjnJ9&#xA;p+0PZMwYnH43ujX+yNEfB2Wn0WpG4PD8WWar+W+ma1bpJqjquqj+9v7KMQep/wAZI2Misffr8htn&#xA;N6T2py6WZGEE4ekJnir3Havdu52Ts+OQer6+8bKsv5dabdaEmkahdT3iW5rZXT8RPAOhRXpum3Rh&#xA;+oUhH2nyY9R4+KEYcX1x34ZeddD5j9dk6CJhwSJNcj1DGZPyNhNPT1ll8eVuG/VIubyPt/Lrh/2f&#xA;/HS4h7GH877P2qZ/Ixu2tA/O2p/zNy2Pt/Hrh/2f/HWJ7GP877P2pfdfknr6H/Rr61mX/L9SM/cF&#xA;cfjmZi9u9KfqhOPyP6Q1S7IydCGPal+XfnHTwWl02SWMGge3pMD70jLMB8xm80vtJoc+0cgB7pen&#xA;7/0OLk0OaHOPy3Y6ysrFWBVhsQdiDm7BBFhxGsKuxV2KuxV2KuxV2KuxV2Kvpv8AIX8wG17Qm0O/&#xA;l56rpKgRsx+KW1+yje5jPwn6M12pxcJsci5GKVinqmYza7FXYqgdd1uw0PSLvVtQf07SzjMkh2qa&#xA;dFWtKsx2UeOSjEk0EE0+OPOPmvUfNPmC51i+NHmPGGEElYol+xGtew/E1PfNrCAiKDiSlZSXJodi&#xA;rsVdirsVdiqYaJoGra3di1023aeTq7DZEHi7HZRmFru0MOlhx5ZCI+0+4dW3DhnkNRFvV/LX5PaR&#xA;ZKs+sv8AX7rr6KkrAp/Bn+mg9s837U9tc2UmOnHhw7+cv1D7fe7zT9lQjvP1H7GfW1ra2sCwWsKQ&#xA;QJskUShFHyVaDONzZp5ZcUyZSPUmy7SMREUBQVcqZOxV2KuxV2KuxV2KpZrHlrQdZTjqVlFcNSgl&#xA;I4yAeCyLRx9+bDQ9q6nSn91MxHd0+R2aMunx5PqFvNvMv5M3MQe40Cf106/UpyFk+SSbK3yanzOd&#xA;72X7bwlUdTHhP86PL4jmPhfwdRqOySN8ZvyebXNrc2s729zE8M8ZpJFICrA+4Od3iywyREoESieR&#xA;Dp5RMTR2KlliHYq7FXYq7FXYq7FU88k+aLnyx5nsdZhqVt5KXEY/3ZC/wyJ9Knb3pkMkOIUmJo2+&#xA;zrS6t7u1hurdxJb3CLLDIOjI4DKw+YOakinMVcCuxV86/wDOQ/ns3+qR+VrKStpp7CS/KnZ7gj4U&#xA;PtGp/wCCPtmfpcdDiLj5ZdHjWZbU7FXYq7FXYq7FWU+R/Il75luTI5a30uFqT3NN2PX0467Fqd+g&#xA;+4Hne3vaDHoIV9WWXKP6T5fe5uj0Usx7o973TSNG03R7JLLToFggXeg6s3dmY7sT4nPINbrs2qyH&#xA;JllxS+7yHcHpcWGOONRFBG5iNrsVdirsVdirsVdiqlc3NtawtPcypDCm7yyMFUfMmgyzFhnkkIwB&#xA;lI9BuWMpCIsmgxHUPza8nWblEmlvGXY/V46j6GcxqfoOdNpvY3XZBZEYf1j/AMTxOBk7Uwx7z7ky&#xA;8r+etC8yPLFYmWO4hXm8E6hX4VpyHEupFSO+YPa3s/qNCBLJwmMtridr7twC3abWwzGo8/NkOaNy&#xA;0h81eTdH8x2pS7T07tVpb3qAeoncA/zL/kn8Dvm57H7cz6GdwNwPOJ5H9R8/vcXU6SGYb8+94R5k&#xA;8tan5f1BrO+joDUwTgH05VH7Sn9Y7Z7D2Z2ph1uIZMZ946xPcfxu8xqNPLFKpJVmyaXYq7FXYq7F&#xA;XYq7FX1F/wA4++ZDqvkYWEz8rnR5Tb0J39F/jiPy3ZR/q5rdTCpX3uTiNh6bmO2Mf8/eaovK/lS/&#xA;1hqGaFOFpG37c8nwxinf4jU+wOTxw4pUxlKg+NLm5nurmW5uJDLcTu0k0rGrM7nkzE+JJzbAU4in&#xA;hV2KuxV2KuxVkfkfyhceZdV9GpjsIKPeTjqFPRF7cmpt9+aPt7tqGgw8XPJLaI/T7h+xy9HpTmlX&#xA;8I5vfrS0sdNso7a2jS3tLdeKINlVR7n8Sc8WzZsmfIZzJlORephCMI0NgEHcea/LFu3CbVbRH7r6&#xA;0ZI+YBrmXDsbWT5Ysn+lP6ms6rEOco/NRh86+UpmCpq9rUmg5Sqv/EiMsydg66HPDP4C/uYjWYj/&#xA;ABBOIZ4Z4xJDIssbfZdCGU/IjNZkxygeGQMT3HZyIyBFhfkEuxV2KuxVKPNWvx6BodxqbxmYxUWO&#xA;Ibcnc8Vqewqd82fZHZx1mojhB4b5nyHNx9Tn8KBk8B1/zPrWvXPr6jcGQA1jhX4Yk9kTp9PXPaOz&#xA;uy8Gjhw4o13nqfefwO55bPqJ5Tcil9raXV3OsFrC887miRRqWY/IDM3LlhjiZTIjEdTsGqMTI0BZ&#xA;ez/ll5Du9BEup6ieF/cx+ktupqI4yQx5EbFiVHTpnlXtX7Q49ZWHFvjib4u88tvLf4/f0XZ2iOK5&#xA;S+os+zjHaOxVKPM/lrT/ADDpj2N2tG3a3nAq0UlNmHT6R3zZ9k9q5dFmGSHLqOkh3fqPRx9Tp45Y&#xA;8JfPOs6PfaPqU+nXqcZ4GoSN1YdVZT3VhuM9u0Wtx6nFHLjNxl+KPmHlMuKWORjLmEFmW1uxV2Ku&#xA;xV2KuxV6x/zjhrRtPOlxprNSLU7Vgq+MsB9RT9Cc8xdVG433NuI7vpfNe5D51/5yR81m71uz8twP&#xA;WDTkFxdgHrPMPgBH+RHuP9bM/SwoW4+WW9PGsy2p2KuxV2KuxVWsrO5vbuG0tkMlxO6xxIO7MaDK&#xA;s+aOKBnM1GIssoRMiAOZfRnlXy5a+X9Fh0+GjOPjuZunqSsPib5dh7Z4Z2x2nPW6g5ZcuUR3R6D9&#xA;fm9bptOMUBEfF5t+cqa8dViZllOjLEvpFa+iJKnlypty+fbO99iJabwCBw+PZv8AnV0rrX6XT9rC&#xA;fH/Q+x5tnduodirP/wAo7LzEdeS5tRJHpADfXXaoif4SFUV2ZuVOnTOM9ss+l/LGE6Obbg/nDfc+&#xA;Qr5u07Lhk8Sx9PV7Xnkz0aHGoWRv2sBMn11YxM1vX4/TJ48qeFcvOmyeH4vCfDvhvpfOmHiR4uG9&#xA;2tPv4L+0S6gDrG5YBZUaNwVYqQVcAjcY6nTSwzMJVY7iCN9+YXHMSFhE5QzQeraVZatp0+n3qc7a&#xA;4Xi4BodiCCD4giozK0WsyabLHLjNSi15cQyRMZcixm0/KXyZA3J7eW5oagSytT7k4Z0Ob2z18xsY&#xA;w90f+K4nCh2XhHME/Fk+n6Rpemx+nYWkVqh6iJFWvzIFT9Oc9qdbmzm8s5TPmbc3HijD6QAi8xWx&#xA;2KuxV2KsI/NHyiNZ0g6hbJXUtPUstBvJCN3T5j7S/d3zrvZLtn8rn8KZ/dZD8pdD8eR+fR1vaWl8&#xA;SHEPqj9zwzPXnmnYq7FXYq7FXYqyf8sNROn/AJg6BcA8QbyOFm2FFuD6LVr2pJvlWYXAsoHcPsDU&#xA;b+20/T7m/um4W1pE88z+CRqWY/cM1YFmnLJfE+vaxc6zrV9q1yf399M87itQObEhR7KNhm3jGhTh&#xA;E2UBkldirsVdirsVep/k15Xq0vmG5TZaw2FfHpLIP+IA/wCtnnftv2tQGlgee8/96P0/J3XZOm/y&#xA;h+D1fPN3etEBgQRUHYg9CMINKh303TpPt2sL7U+KNTt9IzIhrM0fpnIf5xaziieYCkuhaGrBl062&#xA;Vh0IhjB/Vlp7T1RFHLk/00v1sfy+P+aPkEaAFAAFANgB0AzCJtubwKgtQ1HSNO43F/cQWpYFEkmZ&#xA;ULAblQWoT8hmXptLnz+nFGU63oAlrnkhDeRAQum+bfLep3n1Owv4ri54lhGtakDrQkAH6MytX2Jq&#xA;9Pj8TLjMYd+zXj1eOZ4Ymyl0v5m+R4pXifUqPGxVgIZyKg0O4jIOZkfZTtGQBGPY/wBKH/FNR7Rw&#xA;D+L7D+pNr7zJoNg0K3t/DbtcL6kIkcLyX+bftmu0/ZWpzCRx45S4TRode5vnqMcasgWirS/sbxOd&#xA;pcRXCdeUTq4ofdScxs2my4jWSMoHzBH3s4ZIy5EFEZQzdirsVdirsVdir59/Mfy4ND8yzJCvGzu/&#xA;9ItgBsocnknSnwtWg8KZ7X7M9p/m9JEy+uHpl8OvxH228pr9P4eQgcjuGL50LhuxV2KuxV2KozRb&#xA;g22s2FwKgw3EUgI2PwuD/DIyGyh9I/8AOQ3mU6Z5KXTIm43GsyiI0ND6EVJJSPp4KfY5gaWFyvuc&#xA;jKaD5izYuO7FXYq7FXYqidM0+41HULawtxWe5kWJK9AWNKmnYdTmPqtRHBilkl9MASfgyxwM5CI5&#xA;l9L6Xp1tpunW9harxgto1jTpU0HU07k7n3zwTWaqeoyyyz+qRv8AHuexxYxCIiOQRWYzY7FXYq0z&#xA;KqlmIVVFSTsABhAJNBDzrXPzm0q1nEOlWzX4Vv3k7kxIR34VBY/MgZ3Og9hs2SPFnl4fcB6j8eny&#xA;v4OpzdrRBqA4mN/mfreuHU4Hgv5Ro+oW0dxZxRMUTiy0IbifiNRXfxzf+ymg04wkSxx8fFOUZEiz&#xA;Y7u4Vt8HD7RzT4hRPBIAhUvrPVfNvkTS7mC2mudV0yY20hIJaSF1qHDN9rolfpyvT5cPZvaOWEpR&#xA;hhzREx5SHTy6n5AJnGWfBEgEyia+CJ8geQfNOleYbTVb6FLW1gEnqh5VLFXjZeiFu5B3zH9ovaLR&#xA;6jSzw4pGc5VVRPSQPWu7oz0OiywyCUhQClrP5d6EdXurmfzNZ2ltPK8qxMUMgDnkVpzXpWmW6P2k&#xA;1IwQjHTZZyEQL3rba74TzY5dDDjJOSIFph5stvy81u7tri48wiH6tAtqiQj1BSNmNdg382YnY2Tt&#xA;TSwlEafi45me5EedfqbdVHT5CCZ1QpI4tG/LK1nDr5oukkXo8MMgI+TLGc22TXdrTjX5WHxnE/Zx&#xA;Bxo4dMD/AHh+R/UzHQfOPlSwUq3mqe/hAoEvI25A+IcxK5+knOW7Q7D1ufcaWGOXfCQ+7j4fsdhh&#xA;1eKH+UMh5j9jKdN80eXtTcR2OowTynpErgOf9gaN+Gc5q+yNVpxeTHKI762+Y2c7Hqcc/pkCmma5&#xA;vdirsVdirA/zh0YXnlpb9RWbTpA1ep9KUhHH/BcT9Gdl7E67wtUcR+nKPtjuPst1fauLix8X814j&#xA;nrTzjsVdirsVdirsVepf85E64b7z0unK1YdKt0iK9vVlHquf+BZB9GY2ljUb72zKd3luZLW7FXYq&#xA;7FXYq9D/ACY0YXOuXOpyLVLCLjETX+9mqKj5IGB+ecR7ca7w9NHCOeQ7/wBWP7adr2TiuZl/N/S9&#xA;nzyp6J2KuxVK/MXmPTNA09r2/koOkUK05yN/Kg/zpmx7M7Lza3KMeMe89AO8/jdoz6iOKNyYD5X8&#xA;zeePMXmeO9Fuy6A3KOeEilusRBH2mpzcHw/AZ2va3ZfZ2h0Zx8Q/Mcwf4+L3D6Y/Z7y6rTajPly8&#xA;Vej7K/WlOpeUvy90nUJ5NR1wzReoTDp9moaRVO4R3Bk6dN6ZsdL2x2nqccRiwcMqFzmaHvA2Pyto&#xA;yaXTwkeKd+QVLv8AM/Rba2trTR9CjkjsUKWc99SR0HsBybfv8eQw+yuonOU8+eQOT6hj2B+PL/Ys&#xA;pdowAAhAenlf4/Skmofmf5zvKgXotoz+xboqU/2VC/8Aw2bbTeyugxb8HEe+RJ+zl9jjT7RzS617&#xA;mO3epajenleXU1yetZpGkNf9kTm7w6bHiFY4xiPIAfc4kskpcyS6x03UNQm9GxtpbqUCpSFGcgeJ&#xA;4g0GOo1OLDHiySjCPmaWGOUjURa7UNJ1TTpFjv7Sa1dt0EyMnIDw5AVyOm1mHOLxTjMeRtM8UobS&#xA;BCEzJYOxVtWKkMpIYGoI6g4CFei+R/zVurJ49P112uLI0WO8NWli7fH3dfxHvnD9veyMMwOXTARy&#xA;fzf4Ze7uP2e7m7bR9pGPpnvHv7nsMM0M8KTQussMgDRyIQysp3BBGxGeX5McoSMZCpDmC9ACCLC/&#xA;IJdiqE1ewXUdKvLBjxF1DJDypWnNSoP0VrmVodScGeGUfwSB+Ra8uPjgY94fMLoyOyOCrqSGU9QR&#xA;sRn0BEgiw8YQ1kldirsVdirsVTvzxqR1PzjrV9Xks97OYz1+ASEJ/wAKBkMYqICZHdJMmh2KuxV2&#xA;KuxV7r+UWni18nxzn7V7NJMdqEBT6QH/ACTr9OeQe2mp8TXGPTHED/ffpel7Lx8OK+8s1zknZOxV&#xA;Subm2tYHuLmVIYIxV5ZGCqo8STtlmLFPJIRgDKR6DcsZSERZ2DyHzT5y8ptq8t7Fbvr16p4273Xw&#xA;2UKjoI4ti+/Xl18c9P7J7E1owDHKQ0+P+Lg3ySPnL+HyrlydBqdXiMzIDjPn9I+DFNZ86eZNXBju&#xA;rtktugtIf3UIHhxXr/sq50eh7E0um3hAcf8AOO8vmf0U4ObV5MnM7d3RI82zjsz/ACy8oWHmLULp&#xA;tQ5NaWaITEjceTyE8QSN6UU9M5b2p7ZyaHFHwq45nmd6A/Adh2fpY5ZHi5Bv8zvJ9h5e1C0fTgyW&#xA;d6jlYWYtweIjlRjvQhx1weyvbWTXYpDLXHAjcbWDy+4r2jpY4pDh5FI/Knly48w63Dp0R4I1XuJa&#xA;V4RL9pv4D3Izb9r9pR0Wnlllv0A7z0H46ONpsByzEQ+hNG0XTdGsUstPhWGFOpH2nbuzt+0x8c8S&#xA;12vzarIcmWXFL7B5DuD1eHDHHGohV1HTbDUrOSzvoFuLaUUeNxUfMHqCOxG4yvS6vLp5jJjkYyHd&#xA;+PsZZMcZipCw8B88+UpfLWsG3UtJYzgyWczdStd0btyTv9B757R2B2xHXYOPlkjtIeff7j+x5bWa&#xA;U4Z10PJKdH0XUtYvksdPhM1w+5A2CqOrMTsFFeubHW63FpsZyZTwxH4oebRixSyS4Yiy9GtPyOYw&#xA;g3erBZyPiSKHkgPszMpb7hnC5vb4CX7vFcfOVH5AH7y7eHY+28t/ckHmX8q/MGjxvc2xGpWaCryR&#xA;KVkUDqWiqTT/AFSffN32X7W6XVEQl+6yHoeR90v104mo7NyY9x6h+OiI/LTz62j3K6VqMldKnakc&#xA;jH+4du/+oT9rw6+OUe1Ps8NVA5sQ/fRH+mH6x0+XdU+z9b4Z4ZfSfse2ggio3B6HPJHpG8Vdir51&#xA;8/af9Q84apAPsvMZ1NKCk4EtB8udM9y9ntT42hxS/o1/pfT+h5LW4+HLIef37qvkryPfeZ7mQJIL&#xA;ayt6evcsvLc9ERajk307fdWvtzt7H2fAWOKcuUf0nuCdJo5Zj3AdUx86flleeXrIahb3P12yBCzt&#xA;w4PGWNASKsCpO1fHMHsL2qx62fhSjwZOm9g/du3avs84hxA2GE51jrnYqqWsDXFzFAteUrqgoKmr&#xA;GnTvgKqZJJJJqT1OFXYq7FXYq7FXYq+k/KNuLfytpMQHGlpCWA/maMM34nPBu2sviazLL+nL7DT1&#xA;+ljWKI8gm+axyHYq8J/M3zjLrWrvY2sp/RVk3BFU/DJIuzSHx32X23757F7LdiDSYBkmP30+fkOk&#xA;f0nz9zzHaGr8SdD6R+LYXnVOvdirsVep/kZ9vWvlbf8AM3PPfb76MPvl/vXddjc5fBH/AJ3WwbRd&#xA;Oue8VyYx8pIy3/MvMH2CyVnyR74A/I/tbe2I+iJ82/yV0lItHvNUZf3t1N6KMR/uuIA/Cfd2Nflg&#xA;9utYZZoYRyjHi+J/YPtXsjFUDLvLONd1RNK0a91F6H6rE0iq2wZgPhX/AGTUGcj2dpDqdRDEP45A&#xA;fDr9js8+TggZdwS7yT5qj8yaKt4UEV1E3pXcS/ZDgA1Wu/Fgaj7u2Z3b3Y50Go4LuB3ifLz8x+1p&#xA;0ep8aF9eqT/nBp0dz5Sa6IAlsZo5Fam/GQ+my18DzB+jNr7E6kw1vB0nE/ZuP0/Nx+1YA4r7ipfk&#xA;7pENt5abUeINxfytV+/pxEoq/wDBBjlntvrJT1Qxfw44j5ne/lTHsnEBj4upZnqmpWmmafPf3j8L&#xA;a3QvI3f2A9ydhnKaTSz1GWOLGLlI0Px5dXY5MghEyPIMc8k/mBb+Z7i8txbG1lt6PEhfmXiJpXoK&#xA;EGlfnm97e9m5dnwhPi44y2O1Ufn1/Q4mj1wzEiqp5/8Am15XttJ1WDULJBHbagGMkSiirMlC1PAM&#xA;GBp41ztPY7taepwnHkNzx1v3xPL5V9zqu09MITEhyl97L/yl81tqelNpV0/K809R6bHq8HRf+APw&#xA;n2pnM+2XZAwZhngPRk5+Uv8Aj3P325/Zep448B5x+5nkkiRxtI54ogLMx6ADcnONhAyIiOZdoTQt&#xA;h0Pmbze1gvmA2Fu+huPV+pxlzfC3J2lrX02PH4+Ph3zqsnZOhGX8rxzGoG3Ea8Pj/m9432vvdcNT&#xA;m4fEocHd/FXewf8AN9ba51LTNYtHWS01C0AjkX9oxsSSf9jIozrvYwzx4cmCYqePJy94/WC63tSj&#xA;KMxykHon5baUNO8nWCkAS3Sm6lI7mb4lr7iPiM4b2p1nj66fdD0j/N5/7K3b9n4uDCPPdF+d3gTy&#xA;hq5mpwNrIBX+dlon/DkZjez4kddi4f54+XX7GetI8GV9z5xz3R5J2Kpx5Ntfrfm/Q7alRNf2qEb9&#xA;GmUHpv0yGQ1EpjzSfJodirsVdir1/wDL7yL5b1LydHdX1qJ7i/MvKYkh4wkjRqIyPs04V/XtnmXt&#xA;J7Q6rBrjDFLhjj4duhsCW/zp32h0WOeG5CzJ5fr2kT6PrF3pk5q9tIVDdOSn4kam/wBpSDnoHZ+s&#xA;jqcEMseUx/aPgdnS5sRxzMT0fS1pH6VrDHt8CKu3TYAZ4PqZcWWR75H73sMYqI9yF1bXtH0iIS6l&#xA;dx2yt9kOfib/AFVFWP0DLtF2dn1UuHDAz+74nkGOXPDGLkaYX5t/NPy+dCuYdFuzPqE6mKMiOVOA&#xA;bZnq6r0HSnfOr7G9ktSNTGWohw447neJuuQ2J68/J12q7Sx8BEDcj73jGeqPPPZPy18h6R+gI9S1&#xA;Wzjurq/BdEnQOqQ1+DirVFWHxcvA55d7Ue0Wcak4sMzCOPY11l1+XKnf9n6KHh8UxZl9yXed/wAp&#xA;o4oZNR8uq3wDlLp1SxIHUwk1JPfifo7DM3sH2wMpDFquvKfL/Tfr+fe1azsyhxY/l+p5ZnobpXp3&#xA;5HTAX2rQ8hV4on49zwZhX6OecF7ew/dYj/SP2j9juOxz6pDyZP8Am9ZifyZLL/yyTxTD6W9L/mbn&#xA;O+xebg14H8+Eh/vv965vasbw33EfqRf5YRmPyNpgPVhKxp/lTuR+GY3tZPi7RyeXCP8AYhs7OFYI&#xA;/H70P+bVwIvJVzGTT6xLDGPejiT/AI0y/wBjMfFr4n+bGR+yv0sO1JVhPmQwX8n9ft9O1y4sbqVY&#xA;oNQjUIzmg9aM/AKnYclZvppnYe2nZ0s+njkgOKWM9P5p5/cHWdl5xCZB5S+9lH5x6/bQaGmkRyK1&#xA;1eSK0sYIJWKM8qmh2q4WnjvnP+xPZszqDnkCIQFDzJ/Zd/Bze1c4EOAcynP5WkHyLpoHb1wf+kiQ&#xA;5qfa6JHaOTz4f9xFyezT+4j8fvKT/nTfvD5ftbNTT63cVf3WJSaf8EynNp7C6YS1M8h/gj9sj+oF&#xA;x+18lQEe8/cxH8nBL/i8lK8Ray+pT+Wq9f8AZUzpvbXh/I78+ONe/f8ARbgdlX423cyr87pohoen&#xA;wmnqvdF08eKRsG/FxnO+wUT4+Q9OAff+xze2D6IjzeaeUdcfRPMFnqAJESOFuAO8T7OPu3+ed72x&#xA;oBq9NPF1I2/rDl+O50+lzeHkEnv3maUL5Y1WVKMBZXDqR0NImIzxbsqF6vFE/wCqQ/3Qep1B/dSP&#xA;9E/ct8pADyro3/MDbf8AJlcn2ySdbm/4ZP8A3RRpR+6j/VH3PKPOmmcPX0WCp/R+qhLJOipFqkXr&#xA;LGvsrxHPSuw9UJcOeXPLg9XmcMuEn5SdFq8dXAfwz2/zt/0PaYIY4IY4YlCxRKERR0CqKAfdnkuX&#xA;IZyMjzkb+b0cY0KDB/zj1MW3ldLNSOd/OiMp6+nF+8Yj5MEzr/YjS8erOQ8scT85bfdbre1slYuH&#xA;+cXiOetPOOxVmf5OWJvfzK0OOlRHM05PYehE0g/FcpzmoFnjG7E7+1Npf3NoTyNvK8Rbx4MVr+GW&#xA;g2GBdYWU19fW9lAAZrmRIY67Dk7BRX78q1GeOLHLJL6Ygk/BlCBlIAcy9p/5U95U/Rv1b999c4/7&#xA;3czy5ePD+7p7U+nvnlX+jbWeLxeng/m109/O/P7Hov5KxcNb33vHNa0m50jVbrTbn++tnKFh0YdV&#xA;YezKQRnqGh1cNThjlh9Mxf7Pgdnn8uIwkYno9y/K0/8AOiaZ7ev/ANREmeRe1ortHJ/m/wC4i9L2&#xA;b/cR+P3lgX502Ho+YrW8VOKXduFZv5pImIP/AArJnZ+w2o4tJKB/gn9hH67dX2tCsgPeHqGs6/Dp&#xA;HluTV5wD6cKskY25SOAEUfNj92efaTs6Wq1vgR6zO/cBzPy+13OTOMeLjPclHlvybBKi615iiF/r&#xA;l4oklFwA6QBt1ijjb4V4Db59M2Xavbkok6fSnw9PDYcOxl3yJ57/AG9WjT6QH15PVM9/RPdR8uaF&#xA;qVuYL2whmjIIBKAMte6sKMp9wc0+m7W1WCXFDJIH37fEHYuTk0+OYogPDPN3ky50LzDHp0ZaW3u2&#xA;U2MzDdgzceLU25KTQ/Qdq5692N23HWaY5TtKH1D3foP7OjzWq0hxZOHoeT6AtreK2t4reFeMMKLH&#xA;GvgqCgH3DPFc2U5JmcuciSfi9VGIiAB0VcrZPHfzc8nrZ3I16yjpbXLcb1FGyTHpJ8n7+/zz1H2N&#xA;7bOWH5bIfXAenzj3fD7vc8/2ppeE8ceR5+9R/JNyPMt5H2ayZif9WWMf8bZZ7dx/wSB/2wf7mTHs&#xA;g/vD/V/SHpvnazW88patCwrS2kkUf5UQ9Rf+GQZwPYGfwtdil/TA/wBN6f0u51kOLFIeSC/LGQv5&#xA;G0skUosq/wDAzuv8MyvauNdo5f8AN/3MWvs43gj8fvSz85P+URT/AJi4v+Ivmf7Ef48f+Fy+8NPa&#xA;3918XiGeuPNuxV7H+SmqCbRr3TWJL2swlWvThMtKD5MhP055d7d6ThzwzDlONfGP7D9jv+yMlwMe&#xA;4oT88IppP0Gsas/JrhQqipLN6XEADucyfYKQHjk/0P8AfsO2BfB8f0Mi/Lfyb/h/SzPdL/uTvAGn&#xA;/wCK0G6xj9be/wAs0ftR25+dzcMP7mHL+kesv1eXvcvs/SeFGz9RSf8AOTQdVvrSyv7SMz29iJfr&#xA;EairIH4nnTqV+D4vD782vsR2jhxSnimeGeSqPfV7e/fbvcftbBKQEhuA8dz090D37yjdNrn5fQoz&#xA;VlktZLNz1PJA0QJ+YAOeM9s4RpO1Cf4eOM/nUj9tvUaWXiafzqv0I7yLdJdeT9IkTcLbJEfnD+7P&#xA;4pmH7RYjDX5R/Sv/AE2/6W3RSvDH3MR8zrEPzDtbPgfWvbnTLpdiai2aZXb2+HbOo7JJHZUsgO0I&#xA;Zo/6bhr7XX6mvzAj3mJ+VvTM89d08V/OfU/rHmO3sFasdjAOS+Ekx5N96BM9Y9h9LwaQ5DzyS+yO&#xA;338Tzna2S8gj3B5/naOrdir1f/nG/TvrHnm4vCPgsrKRgaftyOiD/hS2YuqPpbcQ3Yj+aOlNpf5g&#xA;69akUDXb3CD/ACbj98tPkJMtwm4BhMUWvyyiSTzzpauKgNKwB8UhdlP0EZpPamZj2flI7gPnIByu&#xA;zxeeP46PoLPE3q3jH51acIdftL5VCrd2/FiOrSQtQk/7F1Gerew2p49LLGf4J/ZIfrt53teFZAe8&#xA;Mt/Jy7afyi0J/wCPW5kjUf5LBZP1uc5r23w8OtEv50AflY/Q5/ZMrxV3FA/nbYrJo2n32/K3uGi2&#xA;6cZkLEn6YhmX7B56z5Mf86IP+lP/AB5q7YhcIy7j9/8AYqaoP0ppXkXS2oY71oLi4j7NHbQK8in2&#xA;oxwaMfl82uzfxY+KI/z5Gj9gTl9ccMf51fYGd6jeJZafdXj/AGLaKSZvlGpY/qzi9LgObLDGP45C&#xA;PzNO0yT4YmXcGE/lN5o1HWLbUodRna4uIZVlR36hJq/CPZWX6K513tl2Vi00scsURGMokUO+Nb+8&#xA;39jrey9RLIJCRsj9KJ/M+2iaPQbkrWWLVII1bwWSpYfSY1yr2QzESzw6HDI/L+0su0o7QP8ASDNs&#xA;492byby9r9zp35qanZXMztbahcTQ8ZGNFfkWhIB/4BfnnpXaXZ0c/Y2PJEDjxwjLbuqpf8Ufc6LB&#xA;nMNVIE7SJ/Y9Q1LT7XUbCexu0529whjkX2PceBHUHxzz3S6meDLHJA1KJsO6yYxOJieReWflxo1z&#xA;oX5h3+mXR+OO1kWN6UEiGSNlYdeq756N7Ta2Gr7LhmhyM4/A0QR83R6DEceoMT3PWZY0ljeNxVHB&#xA;Vh4gihzzTHMwkJDmDbviLFMU/K3knlKO0faWyuLi3lHgwkLEf8NnS+19HW8Y5ThGX2fscDs3+6ru&#xA;Ja/NG0t7nyyguZDDbpd25mlArxRn9Nm+gPXD7IZZQ1Z4RcvDnQ7zz/QvaUQce/LiCYWnknyclnHF&#xA;FpdrLDxHCVkWRmB3Deoasa+Ncwc3tBrzMk5ZiV8uVfBtjosNbRCUar+UflK8jP1WOTT5t6PC7Mte&#xA;3JJC23+rTNlo/bPW4j6yMkfMUfmK+22jL2Xily9LEvJen6h5U/MhNIuiGW7ieMSioV4ypkjdQe/K&#xA;Pj7bjOm7c1GLtHso54fwEGuoPKQ+Rv5OBpISwajgPV61c6dY3VxbXFxCss1oxe2dhXgzChI9880x&#xA;avLjhKEJERn9XnTvpY4yIJG45ILUvNflzTbyKyvb+KG6lYKsJJZgWpTnxB4A16tQZl6XsbVZ8ZyY&#xA;8cpQHX9V8/hbVk1WOBqR3TbNYC5D58/MbQItF803EMChLW5UXNug6KshIZQB0AdWoPCme2ezPaJ1&#xA;ejjKRucfTL3j9Yr4vKa/AMeUgcju9D/JWcv5Yuojv6V4/H5NGhp99c4j26hWrge/GP8AdSdt2Qf3&#xA;ZH9L9SdeUyNPv9V8vyfCbadruwSnEG0uTzHDxCSFlbNX21+/xYtUN+KAhP8Arw2394ohyNL6JSx9&#xA;xse4p6+m6fJfR3720TX0SmOK5KKZFU12DUqB8R+85po6vLHEcQkfDJsxva3JOOJlxV6u9E5jtj5t&#xA;84ah+kPNGqXfIOj3DrG46GOM8E/4RRnvPY2m8HSYodRAX7zufteP1U+PJI+aT5s2h2KvoX/nGPSj&#xA;Ho2taqw/3puI7ZCfCBC7U/5HDMDVncBvwjZIP+cl/L5g13TddjX93fQm2mIG3qwGqk+7I9P9jlmk&#xA;lsQxzDe2A/ljIkfnnS2c0BaVR82gdR+JzU+1MDLs7KB3A/KUS39nms8fx0fQWeKPVpXrflnQ9cMB&#xA;1S1Fz9WLGGrOvHnTl9hlrXiOubDQdq6jScXgy4eKr2B5cuYPe0ZtPDJXELpEabpGmaXAYNPto7WJ&#xA;jyZI1CgtSlT4nbKdXrs2olxZZGZHezx4owFRFJH+Zdk135K1JUXk8KpOvsInVmP/AAAbNx7K5/D7&#xA;Qx90rj8xt9tOL2jDiwy8mH+Ub9ru+8iBn5G3TUomHgVRgB/wHHOn7a0/h49cf5xwn7R+m3A0s+KW&#xA;Ly4nqN9Zw3tlcWc9TDcxvDKAaHjIpVqH5HPPNPnliyRyR+qEhIe8G3dzgJRMTyLHfJ/kGx8s3NzP&#xA;b3Us5uECFZAoAANew65ve2/aPJr4RhKAjwm9nD0uhGEkg3az8zY/+dWa45cWtLm2mR60oRKqV/4f&#xA;J+ycv8M4f50Jj7L/AEI7RH7q+4hlmcy57wT8yfXsPzAu7mGsUgaC4gcfzCNDyH+zU57N7MGObs2E&#xA;ZbipRPzP6Hltfcc5I8i9w0nUYdS0y11CH+7uollUVrTkKlT7g7HPI9bpZafNPFLnCRH4970uLIJx&#xA;Eh1WTaPaSavb6tTjeW8TwcxT4o3IPFv9VhUfM5PHr5x08sH8EiJe4j9Y5/BEsIMxPqEdmE2sX8mK&#xA;Le/8yWJNZE1OS5p4JdRpIv8AHOj7ePHi02TvwiPxgSHB0e0px/pX81/5j2r3XknVI0FWWNZfoikW&#xA;Rv8AhVOV+y+bw+0MR7yR8wR96e0I3hk8Q0rzZ5k0lVSw1CaGJfsw8ucY3rtG/Jfwz1vV9kaXUm8u&#xA;OMj31v8AMbvOY9Tkh9MiH0Ro98b/AEixvmAVrq3inKjoDIgYjv454frtP4OeeP8AmSkPkaeswz4o&#xA;CXeGCfmAFi8/eU51Ueo80cbN4r66gD6OZzsvZ31dl6oHlwyP+w/Y6vXbajGfd970K5WVreVYW4TM&#xA;jCN/BiNjv4HOIwmInEy+mxfudtO6Nc3y5K8kkjvKzPK7FnZiSxYmpJJ3rXPoWMQAAOTxRN830R5E&#xA;1v8ATHlaxu3blcInoXJJqfUi+ElvdhRvpzxD2h0P5bWTgB6SeKPulv8AZy+D1mizeJiB68mE/njb&#xA;Jy0i5AAcieJz3IHBl+6pzrPYHMayw6ek/eD+h13bEfpPvT78nrNrfyeJSP8Aeu4lmWvgOMX6480/&#xA;ttnE9dwj+CER98v0uT2VCsV95/YybV9BstTMUkjSW93bkm2vbduE0dftBWoQQ3QqwIOc/ou0cmns&#xA;CpQl9UZbxP7fMbublwRnvyI5Ec0v8katqWp6bczXsi3EcV3NBZ3ioE9eCMhVlKr8O5r0zP8AaDR4&#xA;dPljHGOEmEZSjd8Mj0s7/Np0WWU4ky332PeE01zUBp2jX1+aVtoJJVB7sqkqPpO2a3s7TePqIY/5&#xA;0gPhe/2N+fJwQMu4PmPPf3jXYVdir68/J3RTpP5daPC68ZrmI3kvjW4YyLX5IVGavPK5lysYoLfz&#xA;i8sf4g8hahDGnO7sh9dtRSp5wAllHu0ZZR7nHBPhkFyCw+UdHvv0fq1lfbn6rPHMQO4RwxH00zK1&#xA;un8bDPH/AD4kfMNGKfDIS7i+nQQQCDUHcEZ8/EEGi9mCl/mHWodE0e41SaJ5orfiWjjpyIdwm1ad&#xA;OVczuzNAdXnjhBETK9z5C2rUZvDgZVdMc8t/mjo+u6vDpkVrPBNOG9N5OBWqKXIND4Kc3vanslm0&#xA;mA5jOMhGrq+ppw9P2lHJMRoi2V6nZpfaddWT7JdQyQsfaRSv8c5vSZ/CzQyfzJA/I25+SHFEjvDw&#xA;7yPqgtL3TDLRfqGo71NCqX0foSsa9kMa1+eewdu6TxcWUR38TF9uM8UR8eI/J5nSZOGUb/hl/utj&#xA;9z3W5kaK3llXdkRmAPSoFc8cwQE8kYnkSA9PM0CXlf5YebvMOq+aJINSvXuYntnYRtxChlZSGCqA&#xA;O5Gej+1XY2l0+j4sUBGQkN+ro+ztVknlqRvZl35pf8oJqf8Azw/6iI85b2S/40cX+d/uJOw7S/uJ&#xA;fD7wymNg6K4IIYAgjpvnP5I8MiO4ubE2LeO/nbZsmu2F3+zPbGP/AGUTkn8JBnqPsJmvTTh/Nnfz&#xA;A/UXn+141kB7wyH8mdaFzoU+lu372wk5Rj/iqYlh9z8q/MZovbjQ+HqI5hyyCj/Wj+yvk5fZOa4G&#xA;P839L0POIds7FWHafcLZfmdqtm5A/StnBcxk92tx6fEf7Hkfozq9TiOXsfFkH+SySj8JG/vp12OX&#xA;DqZD+cAfkynUbOO+0+6spNo7qJ4XPtIpU/rzm9LnOHLHIOcJA/I252SHFEx7w+YJoZYJpIZVKSxM&#xA;UkQ9QymhB+nPoKExKIkOReMIo0X0Z5Kcv5R0cnqLSJdvBVAH6s8O9oI1rsv9cvWaI/uY+5jH5hMI&#xA;/OXk51Hxm64kmtKGWIf8bHOg9mxfZ2rB5cB/3MnD122fH7/0h6FnDu2fNHmi0Fp5k1S2VeKR3UwR&#xA;RtROZK/8LnvnZWbxdLin3wj927x2ojw5JDzLOvyV1wRXl5osr0W4AuLYE0HqJs4A7llof9jnIe3X&#xA;Z5ljhniPo9MvceXyP+6dl2RmqRgeu6Yfm9BNqepaDo1nR7ydpT6fcByiqx8F+Fqn2zC9i5xwYc+o&#xA;ybQjw7+6yfjuPm29qgzlCA5vQtJ02DTNMtdPg/urWNY1Pc8Rux9yd84nW6qWozSyy5zN/s+HJ22L&#xA;GIRER0Sbzlq08VvFounNXWdXJgtgK1ijP97O1NwEWtD4/LNr2Fo4ymdRl/uMPqPmf4Y/E/jdx9Xl&#xA;IHBH657frKc6Tpltpem22n2wpBbRiNK0qadWNO7Hc5qdbq56jNLLP6pm/wBnw5ORixiEREcgw/8A&#xA;OHVltPK62KkerqMqpx7+nERIxH+yCj6c6j2J0fias5Dyxx+2Ww+y3X9q5eHHw/zniGetvOOxVNPK&#xA;2hza95j07R4QeV7OkTEfsoTV2/2KAtkJy4QSmIsvtmKKOGJIolCRxqERB0CqKADNQ5i7rscVfHn5&#xA;o+Uj5X86X2nonCylb6zYU6ehKSVUf6hqn0ZtcM+KNuJONF63+X2sx6r5TsJQ4aa3jFtcLWpDxDj8&#xA;X+soDfTni3tJoTp9bMV6ZHiHulv9hsPU6HLx4h3jZG+bI4pPK+rJKQENnOST2IjJB+g5idjTlHWY&#xA;jHn4kfvbNUAcUr7i+ffLWojTfMGnXxbgkFxG0rD/AH3yAf8A4UnPau09N4+myY+soED31t9ryuny&#xA;cGSMu4vpjPAnsnz95gsY9M87appsrCO1upGQt0VEuKSxMfaNijGnhntnZuoOo0GLKN5RiD7zH0yH&#xA;+cLA97ymeHBmlE8j+ncPXvLmuPq/laSS4HHULZJLbUIj1WeJSrVH+V9r6c807R7PGm10RH+6nKMo&#xA;H+iT+jk77Bm8TEb+oAg+95L+VUxj88WCjpKsyN8vRdv1rno3tdj4uz8nlwn/AGQdH2aazD4/c9S/&#xA;NIj/AAJqfv6H/URHnnnsiL7Rx/53+4k7vtI/uJfD7wnPlu5N15e0y4Y1aW1hdj1+Ixiv45q+1cXh&#xA;6rLHunL73I08uLHE+QedfnmR6mjCu4FySPmYs7r2BHoy++P6XUds84/Fh3kLzENB8y291K3G0lrB&#xA;dnwjenxf7FgG+jOm9oezfzmklAfWPVH3j9YsfF1+iz+FkBPLq+hwQRUbg9DniBFPWt4FeRfmZq02&#xA;j/mFpepQbyW1tE5XpyX1ZQ6V/wApSR9Oen+y2kjqey8mKXKU5D7I0fgfudB2hkOPURkOgH6Xqmn3&#xA;9rqFjBe2riS3uEEkbDwPY+46EZ5vqtNPBkljmKlE0XeY5icRIci8Z/NfyrNputvqsEZNhqDc2YA0&#xA;Sc7urf6/2h9Phnqvsh2vHPpxhkf3mMV749D8OR+He872npjCfEPpl971rypbNbeWdKgdSjpaQh1P&#xA;UMUBYffnm3bWYZNZlkORnL73e6WPDiiPIMC/MvVoU88eXISw42EkVxKaj4fUmU0PgeMVc7T2U0hP&#xA;Z+c1/ecUR8I/tdX2jlHjwH82vvepZ5w7x8+fmYqr541QL05Rn6TChP457d7Mkns/FfcfvLyev/vp&#xA;MajEhkUR19QkBAta17Upm8lVb8nED238tvI0ukRHVtUBbVrhaIj7mGM9v9du/h08c8m9qe3xqZeB&#xA;h/uYncj+I/qHTv59z0fZ+jMBxy+o/YyHzR5psNAshLMDPeTHhZ2Me8s0h2AAFTSvU0/GgzSdkdkZ&#xA;NbkoenHH6pHlEfr8v0OXqdTHEN9z0Heg/KWgX0Ms2ua2wk13UAOaj7FvD1WCPr0/a/j1OX212ljm&#xA;I6bT7afH/s5fzj+j8AV6XBIEzn9cvsHcybOeAc18/fmN5nXXvMUjwNysbQehakHZgDVpB2+Jvwpn&#xA;tfsz2UdHpQJD95P1S/QPgPtt5XX6jxcm30jYMWzoXCdir2v/AJxs8qGfU77zNOn7qzU2lkxGxmkF&#xA;ZWHusdF/2WYeqntTdij1fQmYLe7FXl35++SW1zyuNXtI+WoaNylIA3e2IrKv+xoHHyPjmTpslSrv&#xA;a8sbD5y0TzDrOiXDT6ZdNbu+0iijIwHTkjAqaV22yeu7NwauPDmiJD7R7jza8OeeM3E0mvmD8xPM&#xA;uu2f1K7lSK1NDJFAvASEbjmSWJ37dM1/Z3s3pNJk8SESZ9CTde78W359dkyDhJ2Yzm+cN9H+Tdbj&#xA;1ny3Y3ivzl9NY7mtKiaMBXrTpU/EPY54V27oTpdXOBG13H+qdx+r4PXaTMMmMF5Z+c0ca+bYmQDk&#xA;9nG0lP5uci7/AOxAz0X2IkToTfScq+QdH2sP3vwRHlBtc1W2mudAvI4taWIW2qWU/wBi4iClIrhd&#xA;vtqDQ++5+1Q09s/l9POMdTAnBxcWOcecJXcoH+ieY8tq9Niel45gnGfXVEd46FNZvKF15V8v6TrP&#xA;BZtQ0a4a4v0i35QzEK6gkblFA3+ZzXQ7bh2jqcunvhxZocML6SjuPmb+wNx0hwY4z/iibPuQn5hf&#xA;mPous6ANN0v1Xe4dGnMicAqIeXHru3ID2zI9m/ZjPpNT4ubhqIIFG9z+xhrtfDJDhjaK/Lf8w9Fs&#xA;tBXS9XuPq0tozCCRldg8bEtSqht1JI+VMxvaj2b1GXU+NgjxCfMbbEbde/72zs/XQjDhmapiv5me&#xA;Z7PX9djewkaSytYhFG5BUM5Ys7KDQ03A38M6L2W7KyaPTEZBWScrPl0A/He4PaGoGXJ6eQYjnTOC&#xA;9d/K7z/BLbRaDqkojuYqR2E7mgkTtGSdgy9F8Rt16+Z+1ns7KMzqcIuJ3mB0P873Hr3c+XLfdna4&#xA;EeHI79P1PTc8/dy8F/NbVIb/AM4TLCQyWcaWpcbgstWf/gWcr9GezeyOllh0MeLYzJl8+X2C3l+0&#xA;sglmNdNkX+Wvn79CTfozUXJ0qdqpJ1MEjd/9Q/tD6fHMX2o9nfzcfFxD99Ecv5w/X3fJs7P1vhnh&#xA;l9J+x7RJHZ31rxkWO6tZgGowWSN12ZTvVSO4zyiMsmGdgmE4/Ah6IgSHeEH5h8wadoWmyX17IFVA&#xA;fSiqOcj9kQdyfw65l9m9m5dZlGPGPeekR3n8btWfPHFHik+dda1a71fVLnUrsgz3L8mA6KOiqPZV&#xA;AAz3HQ6OGmwxxQ+mI/B+PN5PLlOSRkeZej6f+dUcWjrHeWMk2qxqEDqyiKQgU5sftKT3AU5w2p9h&#xA;eLOZQmI4ibqtx5DoXbY+16hRFyedFdW1/WJGjja61C9kaRkjG5ZjU7dlH3AZ294dHgAJEMWMVv8A&#xA;jn95dT6ss++Rew+RPy0tdE4ahqPG51WlUHWOH/Vr1b/K+7PMPaD2pnq7xYbjh+2Xv7h5fPueg0XZ&#xA;4x+qW8vuZFr2vtYNFZWMP13WbsE2tmDxAUfallb9iNfHudhmk7O7NGYHJkl4eCH1S/3sR1kfs5ly&#xA;8+fh9MRczyH6T5ILy/5Ra1vm1rWZxqOvSinr0pFAtPsQL2H+V1+VTXK7S7aGTGNPp4+Fpx06y85H&#xA;9H37VVg0tS45nin93uZLmgc15f8Amd+YUKQzaDpMnOaQFL66Q/CinrEpHVj+0e3Tr09C9lPZomQ1&#xA;OcUBvCJ/3R/R8/fpe0dcKMIfE/oeS56U6J2KojTtPu9Rv7ews4zLdXUiwwRjqzuaAYCaFqA+zvJv&#xA;lm18s+WrHRbehFrGBNIP92St8Uj/AOycmnttmpyT4jbmRFCk5yCXYq0yqylWAZWFCDuCDir5K/N3&#xA;yC/lHzO626H9EX/KfT27KK/HD84yf+BpmzwZOKPm4s40WDZewdiqP0nX9Z0h2fTbyS1L/wB4EPwt&#xA;TpyU1U0rtUZh6vs/BqQBlhGdd7ZjzTh9JpQv9QvdQupLu9me4uZTV5XNSabD6B2y3T6fHhgIYwIx&#xA;HQMZzMjZNlX0LW7/AETU4dRsm4zRHdT9l1P2kYdwf898p1+hx6rCcWQemX2HvHmzw5pY5CUeb6F8&#xA;va/pnmPSFvLajRyApcW70Yo1KMjj/OozxPtLs7Noc/BLmN4yHXuI/GxeqwZ45oWGI6z+TGjXUrza&#xA;bdSWDOaiEqJYgfBRVWA+k502h9uc+OIjlgMldb4T8eY+wOBl7JhI3E8P2sR1P8oPNlpya2EN8g3H&#xA;pPxen+rJwH3E502l9tNDk2kZYz5jb/Y39tOBk7Lyx5VJit/oOtaeSL2xnt+PVpI2C/Q1KHOi0+vw&#xA;Zv7ucZ+4guFPDOH1AhA5ltbsVTmLzj5rjtPqceqXIgIChfUYsB0AVvtAewOauXYujlPjOKHF7h/Y&#xA;3jVZQK4jSWrYX7txW2lZj0ARiT+GbA5YAbkNPCURHoGuy/3em3T1NBxhkO/hsuY8+0NPD6skB75D&#xA;9bMYZnlE/JPtH078zrKMR6dBqVtFvSIh40BPU8Hoo+dM1Gs1HZOY8WWWGR77iT8xu5WKGpjtESHz&#xA;VrjyF+ZGrTCa+t5ZnAoJbm4jJA60HJyQPkMpxe0PZWnjw45RiO6MJfoiylotRM3IE+8/tRNv+TPm&#xA;uQ/vZbSFe/KR2P3Kh/XmPl9t9FHkJy9wH6SGceycp50E3s/yPfkDeaqAv7SQxbn5Mzbf8Dmsz+30&#xA;f8ni/wBNL9AH6W+HY5/il9jP/LnlTRfL9uYtPho7Cktw9Glf/Wag29htnF9p9sajWyvKdhyiPpHw&#xA;/Tzdrp9LDEKiEfqGo2OnWkl3fTLb20Qq8jmg+Q8SewGYWm0uTPMQxxMpHoG3JkjAXI0Hk2m/mJpS&#xA;fmJeazceoumXUItYpHBLRIoQ8uK8jxZkJoPHPS9V7NZj2XDTxrxYS4j3SO+194B5+Tosevj+YMz9&#xA;JFM4ufzP8kwRM41D1WAJEccchZj4Cqgfec5DF7J9oTlXh8PmTH9bspdo4QObzzzb+bGp6qr2mlK1&#xA;hYts0lf38g92GyD2X787fsb2Qw6Yieb95k/2I/X8fk6nVdpyntH0x+1gWdk6x2KuxV77/wA49fl2&#xA;0Kf4w1KKjyK0ekRsNwp+F5/9l9lfap7jMHU5f4Q34odXuWYbc7FXYq7FWPee/Jlh5u8uz6TdUSQ/&#xA;vLO5pUxTqDxce29GHcE5ZjyGJtjKNh8f63oupaJqtzpepQmC8tXKSoeniGU91Ybg9xm0jIEWHEIp&#xA;A5JXYq7FXYqmnl3zJqmgX63lhJQ9JYWqY5F/ldQRX28M13aXZmHWYvDyj3HqPc3YNRLFK4vePKnn&#xA;LSfMlp6lq3p3aCtxZuR6iHoSP5l/yh+B2zx3tjsPNoZ1MXA8pdD+o+T0+l1cMw259yY6tpp1C1MK&#xA;3dxZPWqz2z8HB+4gjMLRavwJ8XBDJ5TFhty4+MVZHuYbeeX/AMz9PYvpOurqEQ6Q3SoJCPCrhwfn&#xA;yGdVh7T7Hz7Z8HhHvjdf7Gj/ALEuvlg1MPonxe/9qjqWpecdP8qLqN9o9rNq/wBb9OSP0BIFtuBI&#xA;ZhGx/bHWvfLtJptFm1pxYc2SOHw7Hr4fXfIcQ/m9KYZJ5Y4uKUQZ33dEq8qfmRqF9r1rpl3pVkkd&#xA;1IIm+rxNG6k/tEMz1p3zY9sey+PFp55Y5cplCN+qQI93INOm7QlKYiYxo9wU/Mn5q+ZNO16/sLVL&#xA;X6vazPDHWNiaIabnn1w9m+yGkzafHkmZ8U4iR3HUX3Iz9p5IzMRVAp35Y8+61qnlbXdRnSL65psZ&#xA;eAIhC/3ZYcgWNd1zU9rezmn0+rwYomXBllRs+Y8vNyNNrpzxzkauLDG/NrztIwEc0Sk7BUhU1P08&#xA;s6wex/Z45wJ/zpfrdd/KeY9fsZ15jvfPknljRJNJSX9J3SK9+0SIGUmMGjBhRdz7Zx3Zen7NGrzj&#xA;OY+FA+iya5nlvv8Aa7TUTznHDgviPNAaF5X/ADNnvra61fWJLW3ikSSS39YuzhSCUKx/u6EbGp+j&#xA;MztHtfsiOKUMOGM5GJAPABV9bl6tvc1YNNqTIGcqHvZ62i6c2qfpN4y94FCo7u7KgG3wITwU+4Gc&#xA;aO0MwweADWPqABv7zzPzdp4MePjr1I7MJtYf5q/M3QtEDwW7C/1EbehEw4Ien7yQVAp4Cp+WdT2R&#xA;7KanV1KY8PF3nmfcP0nb3uv1PaMMew9UnjfmLzTrPmC6E+ozclSvowJ8MUYP8q/xO+eo9m9k4NFD&#xA;hxRrvPU+8/gPP59TPKbkUpzZNDsVdirsVdir0P8AKH8sLjzfqgvL1GTy/ZOPrUm49Zxv6KH/AIkR&#xA;0HuRmPnzcI25s4Qt9VQwxQwpDCixxRKEjjUAKqqKAADoAM1rlLsVdirsVdirsVeefm7+VsHnDTfr&#xA;liFi1+zQ/V5DsJkFT6Ln5/ZbsfY5fgzcJ35Nc4W+WLq1ubS5ltbqJobiFjHNDICrKymhVgehGbIG&#xA;3GUsKuxV2KuxVWs727srmO6tJnguIjWOWMlWB6dRlWbBDLAwmBKJ5gsoTMTYNF6f5a/OcBUt/MEB&#xA;LCg+u24G/QVePb5kr/wOef8AansPZMtNL/Nl+iX6/m7nT9rdMg+IehaT5m0DVgv6Ov4bhmFREGpJ&#xA;T3jajj6RnE6zsnVab+9xyiO/p8xs7XFqcc/pIKZ5rm9YYojIJCimRdlcgVHyOSEyBV7IoIK68vaB&#xA;dzGe7021uJ2+1LLBG7mnizKTmXi7S1OOPDDLkjEdBKQH3tcsGORsxBPuV7LTNNsI2jsbSG1jc8nS&#xA;CNYwTSlSFArlWfV5cxByTlMj+cSfvZQxxj9IAVYba3hFIYkjHgihf1ZXkyzmbkSfeUiIHIKmVslG&#xA;6u7W0hae6mjt4V+1LKwRR82YgZbhwTyy4YRMpdwFsZTERZNMO1z82/LGnho7MvqVwKgLD8MVR4yM&#xA;PxUNnU6D2M1ebfJWKPnufkP0kOvzdqY4/T6i828xfmT5m1rnF631Kybb6tb1Wo32d/ttsdxWntne&#xA;dmezGk0lSEeOf86W/wAhyH3+bp8/aGTJtdDuDFc6JwnYq7FXYq7FXYqz78r/AMqNT843i3M4a10C&#xA;F6XF3SjSEdY4a9W8W6L89sozZhD3s4Qt9T6VpWn6Tp8GnadAttZWyhIYUFAAP1k9STuTmtJJNlyQ&#xA;KRWBLsVdirsVdirsVdirzf8ANf8AKGy82wtqencbXzDElFc/DHcBeiS/5QGyt9B26ZGHOY7Hk1zx&#xA;2+YdS0zUNMvprDULd7W8t24TQSDiyn+h6g982IIIsOMRSGwq7FXYq7FXYq7Aqd6d5282afQWuqTh&#xA;QKKkjeqgHssvNR92arU9h6PP9eKN+Qo/MUXIx6vLDlIshtfzl82QqqzR2tzTq7xsrH/gHVfwzSZv&#xA;YjRS+kzh7j+sFy49rZRzopnD+eN2FHraTG7U3KTMgr8ij5gz9gsX8OWQ+AP6m4dsS6xC9/zymK/B&#xA;oyq3ibgkfcIxkY+wOO98p/0v7VPbB/m/agJ/zr8xsx9CztI13oGEjkDtuHUfhmXj9hdIPqnkPyH6&#xA;GuXa+ToAkt9+ZvnW7DKdQMEbfsQIkdPkwHP/AIbNrp/ZbQYuWPiP9Ik/Zy+xx59oZpfxV7mOXd9e&#xA;3svrXlxJcy9PUmdpGp82JObzDghjHDCIiO4CvucSUzI2TajlrF2KuxV2KuxV2KtojyOscal3chUR&#xA;RUknYAAYFez/AJa/kDd3xi1XzajWtls8Wl7rNJ/xmPWNf8n7X+rmJl1NbRbYYu99BWlpa2dtFa2k&#xA;KQW0KhIoY1CoqjoABsMwibchVwK7FXYq7FXYq7FXYq7FXYqxLz/+Wnl/znZ8bxfq+oxLS11GMD1E&#xA;7hWH7aV/ZP0EZbjymDCUAXzD50/L/wAyeUL30NUgrbuSLe+iq0Eo9mps3+Sd82OPKJDZx5RIY3lj&#xA;F2KuxV2KuxV2KuxV2KuxV2KuxV2KuxV2KuxV2KuxVm3kr8ofN/mopNDB9R0xqE390GRGX/itacpP&#xA;o298pyZ4x97OMCX0J5F/KTyp5RCTwRfXdVA+LUbgAuCevpL9mP6N/fMHJmlL3N8YAM1ylm7FXYq7&#xA;FXYq7FXYq7FXYq7FXYq7FUPqGnWGo2clnf28d1aTDjLBKodGHuDhBI5KQ8Q88/8AOOVTJe+UJqdz&#xA;pVy34QzN+p/+CzMx6rpJoli7nimr6Lq2jXrWWq2ktldJ1imUqSPEV+0PAjbMuMgdw0kUgskrsVdi&#xA;rsVdirsVdirsVdirsVdirsVVILee4mSC3jaaaQ0jijUszHwCipOAlXo/lb8gvO+s8Jb9F0Wzbcvc&#xA;7zEf5MCnlX2crlE9TEct2yOIl7P5Q/JXyT5cKTm3/SeoJv8AWrwBwp8UipwX2NCR45iT1EpeTdHG&#xA;Az3psMoZuxV2KuxV2KuxV2KuxV2KuxV2KuxV2KuxV2KuxVL9b8v6JrlobPV7KK9t+ySqGKk90b7S&#xA;n3U1yUZEckEAvI/NP/ONWnTlp/LWoGzc1Is7uskXyWVfjUfMNmVDVnq1Sw9zyfzH+Vvnry+Wa+0q&#xA;V7cV/wBKth68VB3LR8uP+yAzJjmjLkWowIYplrF2KuxV2KuxV2KuxVH6ZoGu6owXTNOub0nb/R4X&#xA;l/4iDkTIDmUgEs10X8hPzF1IgzWkWmxHf1LuVQaf6kfqP94GUy1MAyGIvRvLv/ONWgW3GXXdQm1C&#xA;QUJggH1eL3BNXkb6CuUS1Z6BsGEdXqGg+VPLegQ+lo2nQWSkUZ40HqMB/PIau3+yOY0pmXMtoiBy&#xA;TXIpdirsVdirsVdirsVdirsVdirsVdirsVdirsVdirsVdirsVdirsVYH52/5U5zf/FH6M+tb8+n1&#xA;r6fQ/fZdj8T+G2EuHq8Y8w/8qA5N+jf0zy/Y+qcPT+n638dMy4+L1ppPAwSX/D3qv6X1v0uR9Pl6&#xA;XLjXatNq0y/dhsraf/hH60v6R/SH1X9v6v6PqfRz+HAeLoopmunf9C+fD6/6d6Gv1j0vHv6H8MpP&#xA;i+TMcDMdI/6FkqOHD1f+Xz69Tr35/u8ql434pmOBn2gf8qfqv6F/Qnq1FPS+retXt1/eZTLxOtsx&#xA;w9GZpw4LwpwoONOlO1KZSzbxV2KuxV2KuxV2KuxV2KuxV2KuxV2KuxV//9k=</xmpGImg:image>
               </rdf:li>
            </rdf:Alt>
         </xmp:Thumbnails>
         <xmp:MetadataDate>2023-09-26T20:54:36+02:00</xmp:MetadataDate>
         <xmp:ModifyDate>2023-09-26T20:54:36+02:00</xmp:ModifyDate>
      </rdf:Description>
      <rdf:Description rdf:about=""
            xmlns:xmpTPg="http://ns.adobe.com/xap/1.0/t/pg/"
            xmlns:stDim="http://ns.adobe.com/xap/1.0/sType/Dimensions#"
            xmlns:xmpG="http://ns.adobe.com/xap/1.0/g/">
         <xmpTPg:MaxPageSize rdf:parseType="Resource">
            <stDim:w>800.000000</stDim:w>
            <stDim:h>761.000000</stDim:h>
            <stDim:unit>Pixels</stDim:unit>
         </xmpTPg:MaxPageSize>
         <xmpTPg:NPages>1</xmpTPg:NPages>
         <xmpTPg:HasVisibleTransparency>False</xmpTPg:HasVisibleTransparency>
         <xmpTPg:HasVisibleOverprint>False</xmpTPg:HasVisibleOverprint>
         <xmpTPg:PlateNames>
            <rdf:Seq>
               <rdf:li>Cyan</rdf:li>
               <rdf:li>Magenta</rdf:li>
               <rdf:li>Yellow</rdf:li>
               <rdf:li>Black</rdf:li>
            </rdf:Seq>
         </xmpTPg:PlateNames>
         <xmpTPg:SwatchGroups>
            <rdf:Seq>
               <rdf:li rdf:parseType="Resource">
                  <xmpG:groupName>Default Swatch Group</xmpG:groupName>
                  <xmpG:groupType>0</xmpG:groupType>
               </rdf:li>
            </rdf:Seq>
         </xmpTPg:SwatchGroups>
      </rdf:Description>
      <rdf:Description rdf:about=""
            xmlns:dc="http://purl.org/dc/elements/1.1/">
         <dc:format>image/svg+xml</dc:format>
      </rdf:Description>
      <rdf:Description rdf:about=""
            xmlns:xmpMM="http://ns.adobe.com/xap/1.0/mm/"
            xmlns:stEvt="http://ns.adobe.com/xap/1.0/sType/ResourceEvent#">
         <xmpMM:DerivedFrom rdf:parseType="Resource"/>
         <xmpMM:DocumentID>xmp.did:7615B0239E5CEE118C8782C4946F1117</xmpMM:DocumentID>
         <xmpMM:InstanceID>xmp.iid:7615B0239E5CEE118C8782C4946F1117</xmpMM:InstanceID>
         <xmpMM:OriginalDocumentID>xmp.did:7615B0239E5CEE118C8782C4946F1117</xmpMM:OriginalDocumentID>
         <xmpMM:History>
            <rdf:Seq>
               <rdf:li rdf:parseType="Resource">
                  <stEvt:action>saved</stEvt:action>
                  <stEvt:instanceID>xmp.iid:7615B0239E5CEE118C8782C4946F1117</stEvt:instanceID>
                  <stEvt:when>2023-09-26T20:54:36+02:00</stEvt:when>
                  <stEvt:softwareAgent>Adobe Illustrator CS6 (Windows)</stEvt:softwareAgent>
                  <stEvt:changed>/</stEvt:changed>
               </rdf:li>
            </rdf:Seq>
         </xmpMM:History>
      </rdf:Description>
   </rdf:RDF>
</x:xmpmeta>
                                                                                                    
                                                                                                    
                                                                                                    
                                                                                                    
                                                                                                    
                                                                                                    
                                                                                                    
                                                                                                    
                                                                                                    
                                                                                                    
                                                                                                    
                                                                                                    
                                                                                                    
                                                                                                    
                                                                                                    
                                                                                                    
                                                                                                    
                                                                                                    
                                                                                                    
                                                                                                    
                           
<?xpacket end="w"?>
	</metadata>
<g>
	<path fill="#3B4C73" d="M801,303c0,19,0,38,0,57c-1.646,0.803-0.902,2.335-0.976,3.531c-2.626,43.397-8.965,86.182-19.948,128.314
		c-21.73,83.356-69.51,146.935-143.814,190.411c-37.784,22.108-78.087,38.695-119.456,52.756
		c-41.648,14.156-84.808,20.292-128.417,24.094c-7.149,0.622-14.412,0.813-21.388,2.894c-12.667,0-25.333,0-38,0
		c-0.245-0.747-0.843-0.893-1.534-0.963c-26.951-2.732-52.521-10.554-77.847-19.921c-48.427-17.911-92.168-43.381-130.31-78.239
		c-41.851-38.25-72.373-84.291-93.439-136.769c-9.905-24.675-18.951-49.588-22.52-76.146C2.679,444.966,3.116,439.774,1,435
		c0-18.333,0-36.667,0-55c1.274-0.455,0.893-1.606,1.043-2.521c1.166-7.048,2.075-14.148,3.52-21.14
		c5.365-25.954,15.099-50.503,24.434-75.18c26.129-69.07,66.577-128.378,122.925-176.094
		C226.572,42.699,313.51,12.523,408.459,2.806C412.971,2.344,417.66,2.856,422,1c19,0,38,0,57,0
		c4.319,1.867,8.985,1.46,13.484,1.826c25.081,2.044,49.812,6.015,73.797,13.725c51.608,16.591,96.735,44.352,136.783,80.562
		c56.905,51.455,91.018,114.413,96.302,191.865C799.684,293.631,799.032,298.501,801,303z M361.829,163.369
		c-6.282,1.202-12.613,2.194-18.838,3.643c-44.613,10.379-83.515,30.882-114.72,64.97c-19.896,21.733-34.183,47.054-47.434,73.132
		c-17.497,34.435-26.783,70.812-28.218,109.398c-0.678,18.228,0.402,36.336,2.331,54.362c5.723,53.488,23.873,101.286,65.422,137.83
		c17.695,15.564,35.949,30.325,58.826,37.881c23.319,7.701,47.177,13.602,71.511,16.204c28.573,3.056,57.199,1.268,85.569-3.926
		c52.795-9.663,99.215-33.103,141.749-65.06c2.159-1.622,4.19-3.235,3.883-6.461c-0.517-5.408,2.046-9.611,5.594-13.39
		c6.063-6.451,12.956-11.993,19.447-17.977c19.172-17.67,38.145-35.488,46.174-61.584c0.965-3.139,0.685-4.423-2.468-5.495
		c-9.361-3.184-15.843-9.477-19.521-18.719c-8.669-21.786-9.453-44.506-7.594-67.412c0.561-6.901,3.308-13.809,10.787-16.103
		c7.538-2.313,12.585,2.948,17.093,7.919c7.795,8.595,11.281,19.119,12.525,30.456c0.787,7.171,1.339,14.367,1.996,21.553
		c1.509-4.789,1.126-9.537,0.685-14.257c-3.157-33.793-11.217-66.633-19.726-99.352c-9.345-35.935-26.707-67.836-50.816-95.904
		c-30.033-34.966-69.194-54.454-113.336-65.105c-25.008-6.035-50.58-5.679-76.013-6.693c-5.874-0.234-10.605-1.573-14.563-5.962
		c-16.107-17.863-37.345-23.407-60.246-24.856c-0.92-0.059-2.06-0.337-2.597,1.74c21.423,5.567,44.527,7.87,60.634,28.152
		c-4.659,0-8.309-0.379-11.848,0.089c-5.303,0.702-9.365-0.866-13.806-3.94c-16.327-11.303-34.324-14.828-53.692-9.396
		c-2.674,0.75-5.534,1.641-7.565,5.534C324.534,148.001,343.869,150.585,361.829,163.369z M608.579,595.278
		c7.528-0.091,14.347-2.111,22.761-6.677c30.914-16.77,50.605-42.417,60.682-75.923c6.68-22.21,10.419-45.083,15.937-67.552
		c4.366-17.781,10.389-35.148,13.483-53.236c1.541-9.013-0.494-17.306-7.104-23.951c-6.946-6.986-15.756-6.735-22.393,0.516
		c-3.878,4.236-6.563,9.221-8.146,14.745c-3.718,12.972-6.914,26.078-8.871,39.433c-1.303,8.886-1.877,17.878-3.141,26.771
		c-0.674,4.737-3.734,6.809-8.043,6.354c-4.373-0.46-4.476-3.879-4.719-7.035c-0.446-5.811-0.603-11.646-1.109-17.448
		c-1.068-12.218-2.855-24.253-11.442-33.915c-2.722-3.063-5.505-7.374-10.135-6.004c-4.923,1.458-5.846,6.749-6.144,11.132
		c-1.454,21.426-0.186,42.612,6.914,63.133c2.744,7.936,8.321,13.077,15.911,16.239c1.688,0.702,3.429,1.288,5.16,1.88
		c3.524,1.202,4.521,3.703,3.563,7.091c-0.587,2.079-1.289,4.14-2.113,6.136c-12.296,29.782-31.776,53.68-58.668,71.488
		c-1.388,0.919-2.864,1.73-4.146,2.781c-7.245,5.932-7.105,15.893,0.284,21.444C600.523,595.251,604.563,595.249,608.579,595.278z
		 M44.89,476.005c-0.997,15.196,5.731,41.449,11.891,63.624c3.119,11.228,11.383,16.938,22.287,18.999
		c10.886,2.058,21.021-8.196,19.051-19.008c-1.193-6.551-2.739-13.037-3.981-19.58c-1.043-5.492-0.656-5.821,4.705-5.592
		c4.827,0.207,9.678,0.659,14.481,0.372c4.218-0.252,5.73,1.36,6.572,5.352c2.784,13.193,5.933,26.313,9.025,39.438
		c1.154,4.901,3.238,9.471,5.936,13.703c3.575,5.608,12.139,8.65,18.54,6.792c4.292-1.248,6.363-5.464,6.275-12.849
		c-0.014-1.163-0.18-2.324-0.225-3.487c-0.467-11.972-5.157-23.039-7.377-34.627c-5.484-28.616-10.614-57.302-16.116-85.916
		c-2.072-10.774-4.041-21.697-10.204-31.138c-2.43-3.722-5.593-7.022-10.629-5.95c-5.13,1.095-6.374,5.484-6.938,9.908
		c-0.95,7.445-1.134,14.913-0.668,22.438c0.741,11.991,2.237,23.87,4.424,35.671c0.761,4.107-0.001,6.788-5.034,6.911
		c-3.806,0.093-7.62,0.768-11.385,1.438c-6.575,1.171-6.447,1.232-7.631-5.313c-2.074-11.469-3.806-23.075-9.172-33.609
		c-3.362-6.599-8.936-10.482-16.51-10.07c-7.605,0.415-11.186,5.771-13.282,12.41C45.831,455.715,44.835,465.79,44.89,476.005z"/>
	<path fill="#FED31A" d="M361.829,163.369c-17.959-12.784-37.294-15.368-58.774-8.725c2.032-3.894,4.892-4.784,7.565-5.534
		c19.369-5.433,37.366-1.907,53.692,9.396c4.441,3.074,8.503,4.643,13.806,3.94c3.539-0.468,7.189-0.089,11.848-0.089
		c-16.106-20.282-39.21-22.585-60.634-28.152c0.537-2.077,1.677-1.799,2.597-1.74c22.9,1.449,44.139,6.993,60.246,24.856
		c3.958,4.389,8.689,5.728,14.563,5.962c25.433,1.015,51.005,0.658,76.013,6.693c44.142,10.651,83.303,30.14,113.336,65.105
		c24.109,28.068,41.473,59.971,50.816,95.904c8.509,32.719,16.567,65.559,19.726,99.352c0.441,4.72,0.824,9.468-0.685,14.257
		c-0.657-7.186-1.209-14.382-1.996-21.553c-1.244-11.337-4.73-21.861-12.525-30.456c-4.508-4.971-9.555-10.231-17.093-7.919
		c-7.479,2.294-10.228,9.2-10.787,16.103c-1.859,22.906-1.075,45.626,7.594,67.412c3.68,9.242,10.16,15.535,19.521,18.72
		c3.151,1.071,3.433,2.355,2.468,5.494c-8.029,26.096-27.002,43.914-46.174,61.584c-6.491,5.982-13.386,11.524-19.447,17.977
		c-3.548,3.777-6.109,7.98-5.594,13.39c0.309,3.226-1.724,4.839-3.883,6.461c-42.534,31.957-88.954,55.396-141.749,65.06
		c-28.37,5.192-56.996,6.98-85.569,3.926c-24.334-2.604-48.192-8.503-71.511-16.204c-22.877-7.556-41.131-22.315-58.826-37.881
		c-41.549-36.544-59.699-84.342-65.422-137.83c-1.929-18.026-3.009-36.136-2.331-54.362c1.435-38.588,10.721-74.965,28.218-109.398
		c13.25-26.078,27.537-51.398,47.434-73.132c31.205-34.088,70.107-54.591,114.72-64.97
		C349.216,165.563,355.547,164.571,361.829,163.369z M210.374,548.466c1.323,3.019,2.125,4.608,2.731,6.271
		c2.118,5.803,4.895,11.291,7.615,16.825c3.789,7.709,9.707,12.505,17.979,14.567c11.954,2.981,23.961,5.775,35.829,9.067
		c18.766,5.204,37.74,7.962,57.268,6.814c14.795-0.869,29.614-1.388,44.428-1.856c42.81-1.357,85.455-4.745,127.91-10.38
		c9.833-1.307,19.904-1.843,28.592-7.838c16.62-11.474,32.796-23.486,46.849-38.071c27.356-28.395,36.794-61.968,27.43-100.258
		c-11.081-45.313-34.896-82.357-72.79-110.229c-10.507-7.729-21.519-11.727-34.508-12.351c-40.116-1.927-79.899,0.121-119.322,8.047
		c-45.277,9.102-88.96,22.917-130.338,43.681c-6.004,3.014-10.756,7.053-14.336,12.729c-6.053,9.598-11.571,19.49-16.257,29.805
		c-1.583,3.483-3.622,4.701-7.221,4.575c-5.656-0.199-11.254-0.071-16.759,1.888c-11.942,4.251-19.512,12.688-24.753,23.925
		c-5.579,11.961-6.352,24.742-7.289,37.52c-1.968,26.816,6.167,50.933,20.173,73.354c2.749,4.401,6.381,8.159,11.312,10.285
		c6.336,2.732,11.248,0.365,12.964-6.335C208.768,557.036,209.346,553.49,210.374,548.466z M284.314,277.949
		c2.996,0,6.024,0.278,8.983-0.054c8.011-0.897,15.866-2.571,22.319-7.82c6.571-5.344,6.06-11.806-1.074-16.266
		c-2.849-1.781-5.967-2.938-9.208-3.783c-14.936-3.893-30.04-3.487-45.153-1.537c-7.094,0.915-14.24,2.013-20.68,5.411
		c-6.427,3.393-7.452,14.335-1.535,17.633c5.048,2.813,10.399,5.361,16.424,5.24C264.405,276.571,274.338,277.803,284.314,277.949z
		 M499.349,217.021c-14.208,0.743-28.101,6.977-41.403,14.834c-4.453,2.63-8.524,5.793-11.846,9.866
		c-3.596,4.413-2.025,8.689-0.039,13.085c1.83,4.046,5.147,4.767,9.099,4.487c8.692-0.614,17.102-2.651,25.425-5.068
		c10.466-3.04,20.567-6.923,28.826-14.348c4.729-4.253,8.874-9.195,6.327-16.093C513.207,216.936,506.79,217.329,499.349,217.021z
		 M389.691,295.66c-8.176,0.589-16.543,1.848-24.858,3.499c-2.352,0.468-2.987,1.565-1.977,3.854
		c2.284,5.177,4.152,10.497,4.818,16.169c0.202,1.716,0.952,2.717,2.985,2.308c7.487-1.508,14.991-2.925,22.489-4.374
		c1.39-0.27,2.675-0.595,2.126-2.524c-1.469-5.161-1.112-10.555-1.977-15.796C392.975,296.835,392.592,295.095,389.691,295.66z
		 M369.618,628.834c20.603-0.476,17.148,2.875,17.299-14.961c0.029-3.466-1.516-4.174-4.555-4.006
		c-4.637,0.257-9.296,0.095-13.937,0.302c-15.959,0.712-12.702-2.817-13.53,14.029c-0.008,0.165,0.018,0.334,0,0.498
		c-0.285,2.587,0.984,3.507,3.458,3.573C362.828,628.392,367.298,628.712,369.618,628.834z M307.837,339.112
		c7.405-2.418,14.831-4.777,22.201-7.297c1.744-0.598,1.12-2.146,0.632-3.397c-1.867-4.788-3.814-9.545-5.612-14.359
		c-0.862-2.311-2.016-3.217-4.451-1.956c-6.186,3.204-12.432,6.29-18.639,9.452c-1.72,0.877-3.226,1.974-2.205,4.264
		c1.686,3.781,3.393,7.556,5.156,11.302C305.445,338.237,306.4,338.892,307.837,339.112z M492.557,310.92
		c0.042-0.3,0.084-0.6,0.126-0.898c-0.841-0.394-1.661-0.838-2.525-1.172c-13.407-5.189-27.235-8.786-41.423-11.101
		c-11.87-1.936-11.71-2.004-13.146,9.66c-0.425,3.451,0.436,4.387,3.801,4.3c14.323-0.37,28.651-0.555,42.979-0.781
		C485.764,310.874,489.16,310.92,492.557,310.92z M423.25,608.207c-4.148,0.236-8.3,0.457-12.448,0.712
		c-14.932,0.92-13.621-2.213-12.955,15.063c0.11,2.862,1.286,3.732,4.083,3.375c5.771-0.735,11.586-1.106,17.355-1.85
		c9.102-1.173,9.092-1.25,10.119-10.368C430.212,607.969,430.212,607.969,423.25,608.207z M361.813,322.034
		c-0.169-0.345-0.27-0.671-0.463-0.928c-3.766-4.997-5.776-10.774-7.501-16.692c-0.647-2.219-2.418-2.676-4.368-2.115
		c-5.257,1.511-10.469,3.179-15.711,4.744c-2.373,0.709-2.711,2.082-1.57,4.118c2.697,4.814,4.635,9.918,5.504,15.379
		c0.286,1.798,0.937,2.786,2.907,2.274c6.419-1.666,12.845-3.311,19.254-5.013C360.758,323.565,361.886,323.369,361.813,322.034z
		 M414.63,295.181c-0.003-0.063-0.006-0.125-0.009-0.188c-3.779,0.202-8.783-0.983-11.008,0.98
		c-2.447,2.159,0.133,7.083,0.276,10.816c0.058,1.49,0.196,2.977,0.312,4.465c0.215,2.786,1.427,4.185,4.496,3.715
		c4.748-0.725,9.535-1.202,14.301-1.813c1.283-0.165,2.921-0.101,3.111-1.838c0.557-5.086,2.082-10.665-0.143-15.122
		c-1.327-2.66-6.45-0.652-9.847-1.009C415.629,295.136,415.127,295.181,414.63,295.181z M254.906,362.094
		c2.137-0.915,3.759-1.565,5.345-2.297c9.048-4.168,18.017-8.515,27.146-12.494c10.989-4.789,11.047-4.654,5.215-15.325
		c-0.159-0.29-0.345-0.571-0.471-0.878c-0.856-2.078-2.004-2.22-3.793-0.88c-11.872,8.892-22.721,18.903-32.838,29.725
		C255.23,360.243,255.249,360.821,254.906,362.094z M331.019,610.548c0-0.056,0-0.112,0.001-0.168c-2.816,0-5.649-0.188-8.442,0.063
		c-1.995,0.182-4.86-1.428-5.596,2.237c-1.116,5.562,0.263,10.23,4.004,10.977c7.133,1.421,14.377,2.292,21.585,3.329
		c1.557,0.224,2.772-0.009,3.238-2.069c2.323-10.279-0.085-13.644-10.325-14.09C333.994,610.762,332.507,610.643,331.019,610.548z
		 M466.287,604.878c-8.166,0.782-15.6,1.521-23.039,2.189c-1.844,0.166-3.461,0.591-3.156,2.837
		c0.537,3.961-1.618,8.275,1.496,11.854c0.273,0.314,1.291,0.126,1.914-0.024c9.035-2.197,18.03-4.524,26.863-7.466
		c3.986-1.327,2.591-4.555,2.644-7.104c0.067-3.264-2.693-2.063-4.46-2.268C467.566,604.785,466.561,604.878,466.287,604.878z
		 M264.987,606.803c2.904,1.164,5.607,2.264,8.321,3.331c9.919,3.904,20.142,6.865,30.398,9.713
		c2.822,0.783,5.293,0.374,5.153-3.167c-0.09-2.292,3.531-6.136-1.481-6.776c-12.197-1.562-24.207-4.533-36.546-4.953
		C268.978,604.887,266.825,604.376,264.987,606.803z M496.162,602.607c-4.327-0.729-7.511,0.039-10.707,0.465
		c-2.161,0.288-2.636,1.733-2.313,3.58c0.44,2.518,2.098,1.519,3.373,0.965C489.499,606.321,492.643,605.316,496.162,602.607z
		 M366.693,274.884c-0.55-2.19-1.696-4.108-4.102-4.211c-1.768-0.076-3.071,1.365-3.04,3.244c0.041,2.458,1.552,4.111,3.94,4.238
		C365.322,278.253,366.261,276.678,366.693,274.884z M378.646,267.983c-2.223,0.047-2.729,1.522-2.555,3.323
		c0.212,2.2,1.349,3.764,3.755,3.605c2-0.132,2.762-1.731,2.695-3.467C382.452,269.113,380.962,268.003,378.646,267.983z"/>
	<path fill="#FED31A" d="M608.578,595.281c-4.016-0.032-8.055-0.03-11.477-2.602c-7.391-5.553-7.529-15.514-0.283-21.444
		c1.281-1.051,2.759-1.862,4.146-2.781c26.893-17.811,46.372-41.706,58.668-71.488c0.824-1.996,1.526-4.057,2.113-6.136
		c0.957-3.388-0.039-5.889-3.563-7.091c-1.731-0.593-3.472-1.178-5.16-1.88c-7.59-3.162-13.166-8.305-15.911-16.239
		c-7.1-20.521-8.368-41.707-6.914-63.133c0.298-4.384,1.221-9.675,6.144-11.132c4.63-1.37,7.413,2.94,10.135,6.004
		c8.587,9.661,10.374,21.697,11.442,33.915c0.508,5.804,0.663,11.639,1.11,17.448c0.242,3.156,0.345,6.575,4.718,7.035
		c4.309,0.453,7.369-1.617,8.043-6.354c1.264-8.894,1.838-17.886,3.141-26.771c1.957-13.354,5.153-26.461,8.871-39.433
		c1.583-5.524,4.269-10.509,8.146-14.745c6.637-7.251,15.445-7.502,22.393-0.517c6.609,6.646,8.646,14.939,7.104,23.952
		c-3.096,18.087-9.117,35.455-13.483,53.236c-5.518,22.469-9.257,45.342-15.936,67.552c-10.076,33.506-29.769,59.153-60.683,75.923
		C622.926,593.167,616.107,595.188,608.578,595.281z"/>
	<path fill="#FED31A" d="M44.886,476.004c-0.051-10.214,0.945-20.289,4.037-30.082c2.097-6.639,5.677-11.995,13.282-12.41
		c7.575-0.412,13.148,3.473,16.51,10.07c5.367,10.534,7.099,22.142,9.172,33.609c1.184,6.547,1.056,6.484,7.631,5.313
		c3.765-0.67,7.579-1.345,11.385-1.438c5.033-0.123,5.795-2.804,5.034-6.911c-2.187-11.801-3.683-23.68-4.424-35.671
		c-0.465-7.525-0.282-14.993,0.668-22.438c0.564-4.424,1.808-8.813,6.938-9.908c5.036-1.072,8.199,2.229,10.629,5.95
		c6.163,9.439,8.132,20.362,10.204,31.138c5.502,28.614,10.632,57.3,16.116,85.916c2.22,11.588,6.91,22.655,7.377,34.627
		c0.045,1.163,0.211,2.324,0.225,3.487c0.088,7.385-1.982,11.601-6.275,12.849c-6.401,1.858-14.965-1.184-18.54-6.792
		c-2.697-4.232-4.781-8.802-5.936-13.703c-3.092-13.127-6.241-26.245-9.025-39.438c-0.842-3.99-2.354-5.604-6.572-5.352
		c-4.803,0.287-9.654-0.165-14.481-0.372c-5.361-0.229-5.748,0.1-4.705,5.592c1.243,6.543,2.789,13.029,3.981,19.58
		c1.969,10.812-8.165,21.065-19.051,19.008c-10.904-2.061-19.168-7.771-22.287-18.999C50.621,517.454,43.893,491.201,44.886,476.004
		z"/>
	<path fill="#3B4C73" d="M210.374,548.466c-1.028,5.024-1.606,8.57-2.494,12.037c-1.716,6.7-6.627,9.067-12.964,6.335
		c-4.931-2.126-8.563-5.884-11.312-10.285c-14.006-22.423-22.141-46.538-20.173-73.354c0.938-12.776,1.71-25.559,7.289-37.52
		c5.241-11.235,12.811-19.674,24.753-23.925c5.505-1.959,11.103-2.087,16.759-1.888c3.599,0.126,5.638-1.092,7.221-4.575
		c4.686-10.313,10.204-20.207,16.257-29.805c3.581-5.678,8.333-9.717,14.336-12.729c41.378-20.764,85.061-34.579,130.338-43.681
		c39.423-7.926,79.206-9.973,119.322-8.047c12.989,0.624,24.001,4.622,34.508,12.351c37.894,27.871,61.709,64.915,72.79,110.229
		c9.364,38.29-0.072,71.863-27.43,100.258c-14.053,14.585-30.229,26.599-46.849,38.071c-8.688,5.995-18.759,6.531-28.592,7.838
		c-42.455,5.635-85.101,9.021-127.91,10.38c-14.814,0.47-29.633,0.988-44.428,1.856c-19.528,1.146-38.502-1.61-57.268-6.814
		c-11.868-3.292-23.875-6.086-35.829-9.067c-8.272-2.063-14.191-6.858-17.979-14.566c-2.72-5.535-5.498-11.023-7.615-16.826
		C212.498,553.074,211.697,551.483,210.374,548.466z M343.943,489.853c-0.336,0.105-0.672,0.21-1.008,0.315
		c-1.744-2.61-3.584-5.162-5.214-7.842c-8.655-14.229-17.04-28.627-25.942-42.697c-8.023-12.682-18.338-23.324-31.265-31.101
		c-10.056-6.051-17.107-3.992-21.623,6.795c-5.147,12.298-9.06,24.995-9.096,38.627c-0.042,16.003,0.458,31.989,1.481,47.941
		c1.021,15.938,1.564,31.949,4.708,47.685c1.114,5.575,2.827,10.926,5.914,15.813c3.48,5.51,8.593,5.494,14.104,4.713
		c4.604-0.651,6.851-3.783,8.257-7.729c0.723-2.026,1.219-4.158,1.588-6.282c2.507-14.425,2.195-28.801-0.374-43.221
		c-3.242-18.2-6.041-36.473-6.502-55.01c-0.072-2.917-0.059-5.834,3.819-6.478c3.733-0.618,6.435-0.235,8.165,4.106
		c6.663,16.726,11.979,33.909,17.942,50.871c5.694,16.195,11.56,32.34,20.964,46.858c5.922,9.146,12.662,17.628,22.333,23.169
		c15.011,8.602,28.111,2.548,31.215-14.366c0.359-1.958,0.51-3.961,0.669-5.949c1.82-22.768-1.304-45.212-4.553-67.631
		c-4.392-30.313-10.714-60.328-13.916-90.828c-1.042-9.928-1.659-19.926-3.736-29.719c-1.547-7.296-6.111-10.396-12.941-9.102
		c-6.18,1.171-8.398,4.105-8.925,11.891c-1.411,20.841,0.384,41.601,1.488,62.387C342.502,451.988,343.142,470.925,343.943,489.853z
		 M486.977,510.972c-0.167-9.653,0.284-19.315-0.83-28.961c-1.177-10.183-6.758-17.148-15.922-20.616
		c-10.299-3.895-21.207-5.799-32.248-6.292c-6.479-0.29-12.506,4.225-13.552,9.615c-0.887,4.572,2.477,9.502,8.46,12.222
		c3.818,1.734,7.859,2.841,12.018,3.244c5.55,0.539,8.323,3.639,8.945,8.956c0.6,5.125,1.456,10.245,1.642,15.388
		c0.489,13.637,1.51,27.334-1.533,40.818c-0.745,3.306-1.09,7.984-4.637,8.826c-3.684,0.874-6.398-3.009-8.877-5.598
		c-7.605-7.942-11.457-17.914-14.275-28.265c-9.129-33.505-10.143-67.746-8.748-102.157c0.42-10.371,2.457-20.5,6.019-30.275
		c1.725-4.737,2.773-4.905,6.377-1.204c3.779,3.884,6.533,8.399,8.133,13.598c1.713,5.57,3.305,11.184,5.178,16.699
		c1.58,4.651,4.904,7.343,9.895,8.014c5.046,0.677,8.228-1.924,10.746-5.765c1.563-2.379,2.62-4.994,3.363-7.76
		c6.748-25.096-9.537-54.993-34.328-63.083c-3.979-1.298-7.829-1.217-11.747,0.108c-11.22,3.795-19.792,10.96-25.833,20.986
		c-9.103,15.109-12.227,32.005-12.996,49.259c-0.705,15.817,0.827,31.645,2.1,47.411c1.245,15.419,2.942,30.761,6.546,45.934
		c5.502,23.167,17.047,42.498,34.211,58.663c13.612,12.817,32.921,12.305,45.307-1.6c10.357-11.627,16.939-25.063,16.608-41.169
		C486.879,522.307,486.977,516.638,486.977,510.972z M482.789,409.92c-0.572,14.493,4.009,28.985,8.816,43.367
		c4.434,13.256,6.761,26.698,6.401,40.723c-0.35,13.651-0.147,27.328,1.007,40.955c0.66,7.78,0.892,15.718,4.842,22.78
		c5.293,9.46,15.273,10.271,22.104,1.899c3.52-4.314,4.983-9.298,5.059-14.824c0.248-18.125-3.35-35.76-6.673-53.437
		c-1.885-10.026-0.629-12.594,8.375-17.63c13.265-7.417,16.196-6.29,21.309,8.089c4.573,12.865,9.065,25.762,13.852,38.547
		c1.993,5.327,5.718,6.887,12.14,6.249c5.021-0.496,6.597-3.983,7.297-8.166c1.717-10.241,2.598-20.62,0.569-30.824
		c-3.021-15.22-5.687-31.381-19.272-41.021c-8.446-5.992-7.622-11.039-5.561-19.829c7.59-32.329-5.154-50.795-32.046-61.589
		c-20.165-8.095-43.784,6.843-46.874,26.824C483.262,397.657,482.646,403.256,482.789,409.92z M244.344,518.541
		c0.769-14.768-2.138-34.285-3.561-53.875c-0.699-9.617-4.823-18.342-10.916-25.912c-14.83-18.427-42.553-11.592-50.31,5.181
		c-8.903,19.25-10.949,39.171-8.896,59.514c1.88,18.624,9.359,35.672,19.907,51.215c1.464,2.157,3.225,5.171,6.073,4.489
		c3.242-0.775,2.424-4.391,2.448-6.893c0.108-11.163-0.004-22.328-0.021-33.493c-0.021-13.165,0.648-13.665,13.961-13.935
		c4.043-0.082,4.973,1.295,5.063,5.107c0.376,15.827,1.765,31.592,3.959,47.275c1.083,7.743,5.409,11.528,12.199,10.77
		c5.355-0.601,7.646-3.514,8.644-11.047C244.365,545.834,244.183,534.66,244.344,518.541z"/>
	<path fill="#3B4C73" d="M284.314,277.949c-9.976-0.146-19.909-1.378-29.923-1.176c-6.024,0.121-11.376-2.428-16.424-5.24
		c-5.917-3.298-4.892-14.24,1.535-17.633c6.44-3.398,13.586-4.496,20.68-5.411c15.114-1.95,30.218-2.355,45.153,1.537
		c3.241,0.845,6.358,2.002,9.208,3.783c7.134,4.46,7.646,10.922,1.074,16.266c-6.454,5.249-14.308,6.923-22.319,7.82
		C290.338,278.228,287.31,277.949,284.314,277.949z"/>
	<path fill="#3B4C73" d="M499.349,217.021c7.441,0.308,13.858-0.086,16.389,6.764c2.547,6.897-1.599,11.84-6.327,16.093
		c-8.259,7.425-18.36,11.308-28.826,14.348c-8.323,2.417-16.73,4.454-25.425,5.068c-3.95,0.279-7.269-0.441-9.099-4.487
		c-1.986-4.396-3.557-8.672,0.039-13.085c3.32-4.073,7.393-7.236,11.846-9.866C471.248,223.998,485.141,217.765,499.349,217.021z"/>
	<path fill="#3B4C73" d="M389.691,295.66c2.9-0.565,3.283,1.175,3.606,3.136c0.865,5.241,0.508,10.635,1.977,15.796
		c0.549,1.93-0.736,2.256-2.126,2.524c-7.498,1.449-15.002,2.866-22.489,4.374c-2.033,0.409-2.783-0.592-2.985-2.308
		c-0.667-5.673-2.535-10.993-4.818-16.17c-1.01-2.289-0.375-3.387,1.977-3.854C373.148,297.508,381.516,296.249,389.691,295.66z"/>
	<path fill="#3B4C73" d="M369.618,628.834c-2.32-0.122-6.79-0.442-11.265-0.563c-2.475-0.067-3.744-0.987-3.458-3.574
		c0.018-0.164-0.008-0.333,0-0.498c0.828-16.848-2.429-13.317,13.53-14.029c4.641-0.207,9.3-0.045,13.937-0.302
		c3.04-0.168,4.584,0.54,4.555,4.006C386.766,631.709,390.221,628.358,369.618,628.834z"/>
	<path fill="#3B4C73" d="M307.837,339.112c-1.437-0.222-2.392-0.875-2.918-1.993c-1.763-3.746-3.47-7.521-5.156-11.302
		c-1.021-2.29,0.485-3.387,2.205-4.264c6.207-3.162,12.453-6.248,18.639-9.452c2.435-1.261,3.589-0.354,4.451,1.956
		c1.797,4.814,3.745,9.571,5.612,14.359c0.488,1.252,1.112,2.801-0.632,3.397C322.668,334.335,315.243,336.694,307.837,339.112z"/>
	<path fill="#3B4C73" d="M492.557,310.92c-3.396,0-6.793-0.046-10.188,0.008c-14.327,0.228-28.655,0.411-42.979,0.781
		c-3.365,0.087-4.226-0.849-3.801-4.3c1.436-11.664,1.274-11.596,13.146-9.66c14.188,2.314,28.016,5.91,41.423,11.101
		c0.864,0.334,1.686,0.778,2.525,1.172C492.641,310.32,492.599,310.62,492.557,310.92z"/>
	<path fill="#3B4C73" d="M423.25,608.203c6.962-0.234,6.962-0.234,6.154,6.938c-1.027,9.118-1.019,9.195-10.119,10.368
		c-5.771,0.742-11.586,1.113-17.355,1.851c-2.797,0.356-3.973-0.514-4.083-3.376c-0.666-17.276-1.977-14.145,12.955-15.063
		C414.95,608.664,419.102,608.443,423.25,608.203z"/>
	<path fill="#3B4C73" d="M361.813,322.034c0.073,1.335-1.055,1.531-1.948,1.769c-6.41,1.702-12.835,3.347-19.254,5.013
		c-1.971,0.512-2.621-0.478-2.907-2.274c-0.869-5.461-2.807-10.563-5.504-15.379c-1.141-2.036-0.803-3.409,1.57-4.118
		c5.242-1.565,10.454-3.233,15.711-4.744c1.949-0.561,3.721-0.104,4.368,2.115c1.725,5.918,3.735,11.695,7.501,16.692
		C361.543,321.363,361.644,321.689,361.813,322.034z"/>
	<path fill="#3B4C73" d="M414.63,295.181c0.497,0,0.999-0.045,1.491,0.007c3.396,0.356,8.52-1.651,9.847,1.009
		c2.225,4.457,0.698,10.036,0.143,15.122c-0.19,1.737-1.828,1.673-3.111,1.838c-4.766,0.611-9.553,1.09-14.301,1.813
		c-3.069,0.47-4.281-0.929-4.496-3.715c-0.114-1.488-0.254-2.975-0.312-4.465c-0.145-3.733-2.725-8.657-0.276-10.816
		c2.225-1.964,7.229-0.778,11.008-0.98C414.624,295.056,414.627,295.118,414.63,295.181z"/>
	<path fill="#3B4C73" d="M254.906,362.094c0.342-1.271,0.324-1.851,0.604-2.149c10.118-10.82,20.966-20.833,32.838-29.725
		c1.789-1.34,2.937-1.198,3.793,0.88c0.125,0.307,0.312,0.588,0.471,0.878c5.833,10.671,5.774,10.536-5.215,15.325
		c-9.13,3.979-18.099,8.326-27.146,12.494C258.666,360.527,257.043,361.179,254.906,362.094z"/>
	<path fill="#3B4C73" d="M331.019,610.548c1.488,0.095,2.976,0.214,4.465,0.279c10.24,0.446,12.648,3.811,10.325,14.09
		c-0.466,2.062-1.682,2.293-3.238,2.069c-7.208-1.037-14.452-1.908-21.585-3.329c-3.741-0.745-5.12-5.415-4.004-10.977
		c0.735-3.665,3.601-2.057,5.596-2.237c2.793-0.253,5.626-0.063,8.442-0.063C331.019,610.436,331.019,610.492,331.019,610.548z"/>
	<path fill="#3B4C73" d="M466.287,604.878c0.272,0,1.279-0.093,2.262,0.021c1.766,0.202,4.527-0.997,4.46,2.267
		c-0.053,2.55,1.344,5.777-2.644,7.104c-8.833,2.94-17.828,5.269-26.863,7.466c-0.623,0.15-1.641,0.34-1.914,0.024
		c-3.114-3.579-0.959-7.895-1.496-11.854c-0.305-2.246,1.313-2.671,3.156-2.837C450.688,606.396,458.121,605.66,466.287,604.878z"/>
	<path fill="#3B4C73" d="M264.987,606.803c1.838-2.427,3.99-1.916,5.846-1.854c12.339,0.42,24.349,3.393,36.546,4.953
		c5.012,0.642,1.391,4.484,1.481,6.776c0.14,3.541-2.331,3.95-5.153,3.167c-10.257-2.848-20.479-5.809-30.398-9.713
		C270.594,609.065,267.892,607.967,264.987,606.803z"/>
	<path fill="#3B4C73" d="M496.162,602.607c-3.521,2.709-6.663,3.714-9.646,5.01c-1.275,0.554-2.933,1.553-3.373-0.965
		c-0.322-1.847,0.151-3.292,2.313-3.58C488.651,602.646,491.835,601.879,496.162,602.607z"/>
	<path fill="#3B4C73" d="M366.693,274.884c-0.432,1.794-1.371,3.369-3.201,3.271c-2.389-0.127-3.899-1.78-3.94-4.238
		c-0.031-1.879,1.272-3.32,3.04-3.244C364.997,270.775,366.143,272.693,366.693,274.884z"/>
	<path fill="#3B4C73" d="M378.653,267.98c2.309,0.022,3.799,1.133,3.889,3.465c0.067,1.735-0.695,3.335-2.695,3.467
		c-2.406,0.158-3.542-1.405-3.755-3.605C375.918,269.506,376.423,268.03,378.653,267.98z"/>
	<path fill="#FED31A" d="M343.943,489.853c-0.801-18.928-1.441-37.863-2.445-56.78c-1.104-20.786-2.898-41.546-1.488-62.388
		c0.527-7.783,2.745-10.719,8.925-11.89c6.83-1.295,11.394,1.806,12.941,9.102c2.078,9.793,2.694,19.791,3.736,29.719
		c3.202,30.5,9.523,60.516,13.916,90.828c3.249,22.419,6.373,44.863,4.553,67.631c-0.159,1.988-0.31,3.991-0.669,5.949
		c-3.104,16.914-16.204,22.968-31.215,14.366c-9.672-5.541-16.411-14.023-22.333-23.169c-9.404-14.52-15.27-30.663-20.964-46.858
		c-5.963-16.962-11.28-34.146-17.942-50.871c-1.73-4.343-4.432-4.726-8.165-4.106c-3.878,0.644-3.892,3.561-3.819,6.478
		c0.461,18.536,3.26,36.81,6.502,55.01c2.568,14.42,2.88,28.796,0.374,43.221c-0.369,2.124-0.866,4.256-1.588,6.282
		c-1.407,3.944-3.653,7.076-8.257,7.729c-5.512,0.781-10.624,0.797-14.104-4.713c-3.087-4.887-4.8-10.236-5.914-15.813
		c-3.144-15.734-3.687-31.746-4.708-47.685c-1.022-15.952-1.523-31.938-1.481-47.941c0.036-13.632,3.949-26.329,9.096-38.627
		c4.516-10.787,11.567-12.846,21.623-6.795c12.927,7.775,23.242,18.419,31.265,31.101c8.902,14.07,17.287,28.469,25.942,42.697
		c1.63,2.68,3.47,5.23,5.214,7.842C343.271,490.063,343.607,489.958,343.943,489.853z"/>
	<path fill="#FED31A" d="M486.977,510.972c0,5.666-0.098,11.335,0.02,16.998c0.331,16.105-6.251,29.542-16.608,41.169
		c-12.386,13.903-31.693,14.417-45.307,1.6c-17.164-16.165-28.709-35.496-34.211-58.663c-3.604-15.173-5.301-30.515-6.546-45.934
		c-1.273-15.768-2.805-31.594-2.1-47.411c0.769-17.254,3.894-34.148,12.996-49.259c6.041-10.026,14.613-17.191,25.833-20.986
		c3.918-1.325,7.77-1.406,11.747-0.108c24.791,8.09,41.076,37.987,34.328,63.083c-0.743,2.766-1.802,5.381-3.363,7.76
		c-2.52,3.841-5.7,6.44-10.745,5.765c-4.99-0.67-8.314-3.361-9.896-8.014c-1.873-5.517-3.465-11.129-5.178-16.699
		c-1.6-5.197-4.354-9.714-8.134-13.598c-3.603-3.701-4.651-3.533-6.377,1.204c-3.561,9.775-5.598,19.904-6.018,30.275
		c-1.395,34.412-0.381,68.652,8.748,102.157c2.818,10.351,6.67,20.321,14.275,28.265c2.479,2.589,5.193,6.472,8.877,5.598
		c3.547-0.842,3.892-5.521,4.637-8.826c3.043-13.484,2.023-27.183,1.533-40.818c-0.186-5.143-1.042-10.263-1.642-15.388
		c-0.622-5.317-3.396-8.417-8.945-8.956c-4.157-0.403-8.198-1.51-12.018-3.244c-5.983-2.72-9.347-7.648-8.46-12.222
		c1.046-5.392,7.073-9.904,13.552-9.615c11.041,0.493,21.949,2.397,32.248,6.293c9.164,3.467,14.745,10.434,15.923,20.615
		C487.261,491.655,486.81,501.317,486.977,510.972z"/>
	<path fill="#FED31A" d="M482.789,409.92c-0.143-6.664,0.473-12.263,1.343-17.885c3.09-19.981,26.709-34.919,46.874-26.824
		c26.891,10.794,39.636,29.26,32.046,61.589c-2.063,8.79-2.887,13.837,5.561,19.829c13.587,9.64,16.251,25.801,19.272,41.021
		c2.027,10.203,1.146,20.583-0.569,30.824c-0.7,4.183-2.275,7.669-7.297,8.166c-6.422,0.638-10.146-0.922-12.14-6.249
		c-4.785-12.785-9.277-25.682-13.852-38.547c-5.111-14.379-8.044-15.506-21.309-8.089c-9.004,5.036-10.26,7.604-8.375,17.63
		c3.323,17.676,6.921,35.312,6.673,53.437c-0.074,5.526-1.539,10.51-5.059,14.823c-6.829,8.372-16.812,7.562-22.103-1.898
		c-3.951-7.063-4.183-15-4.843-22.78c-1.155-13.627-1.355-27.304-1.007-40.955c0.358-14.023-1.969-27.467-6.4-40.723
		C486.798,438.905,482.217,424.413,482.789,409.92z M542.945,412.574c-0.383-6.414-1.783-13.743-5.127-20.546
		c-2.378-4.839-4.7-5.317-9.108-2.297c-5.044,3.454-7.769,8.568-9.72,14.136c-5.746,16.395-5.532,33.3-4.139,50.289
		c0.075,0.918-0.173,2.205,1.089,2.482c1.091,0.241,1.758-0.774,2.421-1.474c7.57-7.97,14.685-16.326,20.406-25.74
		C541.663,424.664,542.928,419.313,542.945,412.574z"/>
	<path fill="#FED31A" d="M244.344,518.541c-0.161,16.119,0.021,27.293-1.449,38.396c-0.997,7.533-3.289,10.446-8.644,11.047
		c-6.79,0.76-11.115-3.025-12.199-10.77c-2.195-15.685-3.583-31.448-3.959-47.275c-0.091-3.813-1.02-5.189-5.063-5.107
		c-13.313,0.27-13.981,0.77-13.961,13.935c0.018,11.165,0.129,22.33,0.021,33.493c-0.024,2.502,0.794,6.116-2.448,6.893
		c-2.849,0.682-4.609-2.332-6.073-4.489c-10.548-15.543-18.026-32.591-19.907-51.215c-2.054-20.343-0.007-40.264,8.896-59.514
		c7.757-16.771,35.479-23.606,50.31-5.181c6.093,7.57,10.217,16.295,10.916,25.912C242.206,484.256,245.112,503.773,244.344,518.541
		z M208.763,486.906c2.844-0.398,6.942-0.286,6.291-5.512c-1.006-8.057-2.496-16.043-5.321-23.698
		c-0.558-1.512-1.172-3.455-3.079-3.552c-2.09-0.104-3.05,1.774-3.861,3.4c-2.935,5.885-4.013,12.27-4.611,18.713
		C197.48,483.797,200.523,486.915,208.763,486.906z"/>
	<path fill="#3B4C73" d="M542.945,412.574c-0.019,6.736-1.282,12.09-4.179,16.852c-5.722,9.414-12.835,17.771-20.405,25.74
		c-0.663,0.698-1.33,1.715-2.421,1.474c-1.262-0.277-1.014-1.564-1.089-2.482c-1.395-16.989-1.607-33.896,4.139-50.289
		c1.951-5.566,4.676-10.682,9.72-14.136c4.408-3.021,6.729-2.542,9.108,2.297C541.162,398.831,542.563,406.16,542.945,412.574z"/>
	<path fill="#3B4C73" d="M208.763,486.906c-8.24,0.009-11.283-3.109-10.583-10.647c0.599-6.443,1.677-12.828,4.611-18.713
		c0.811-1.626,1.771-3.506,3.861-3.399c1.907,0.096,2.521,2.039,3.079,3.551c2.826,7.655,4.315,15.643,5.321,23.699
		C215.706,486.62,211.607,486.508,208.763,486.906z"/>
</g>
</svg>
