<?xml version="1.0" encoding="utf-8"?>
<!-- Generator: Adobe Illustrator 16.0.0, SVG Export Plug-In . SVG Version: 6.00 Build 0)  -->
<!DOCTYPE svg PUBLIC "-//W3C//DTD SVG 1.1//EN" "http://www.w3.org/Graphics/SVG/1.1/DTD/svg11.dtd">
<svg version="1.1" xmlns="http://www.w3.org/2000/svg" xmlns:xlink="http://www.w3.org/1999/xlink" x="0px" y="0px"
	 width="1353.463px" height="1878.654px" viewBox="-8.119 -10.082 1353.463 1878.654"
	 enable-background="new -8.119 -10.082 1353.463 1878.654" xml:space="preserve">
<metadata><?xpacket begin="﻿" id="W5M0MpCehiHzreSzNTczkc9d"?>
<x:xmpmeta xmlns:x="adobe:ns:meta/" x:xmptk="Adobe XMP Core 5.3-c011 66.145661, 2012/02/06-14:56:27        ">
   <rdf:RDF xmlns:rdf="http://www.w3.org/1999/02/22-rdf-syntax-ns#">
      <rdf:Description rdf:about=""
            xmlns:xmp="http://ns.adobe.com/xap/1.0/"
            xmlns:xmpGImg="http://ns.adobe.com/xap/1.0/g/img/">
         <xmp:CreatorTool>Adobe Illustrator CS6 (Windows)</xmp:CreatorTool>
         <xmp:CreateDate>2023-09-28T00:12:19+02:00</xmp:CreateDate>
         <xmp:MetadataDate>2023-09-28T00:12:19+02:00</xmp:MetadataDate>
         <xmp:ModifyDate>2023-09-28T00:12:19+02:00</xmp:ModifyDate>
         <xmp:Thumbnails>
            <rdf:Alt>
               <rdf:li rdf:parseType="Resource">
                  <xmpGImg:width>196</xmpGImg:width>
                  <xmpGImg:height>256</xmpGImg:height>
                  <xmpGImg:format>JPEG</xmpGImg:format>
                  <xmpGImg:image>/9j/4AAQSkZJRgABAgEASABIAAD/7QAsUGhvdG9zaG9wIDMuMAA4QklNA+0AAAAAABAASAAAAAEA&#xA;AQBIAAAAAQAB/+4ADkFkb2JlAGTAAAAAAf/bAIQABgQEBAUEBgUFBgkGBQYJCwgGBggLDAoKCwoK&#xA;DBAMDAwMDAwQDA4PEA8ODBMTFBQTExwbGxscHx8fHx8fHx8fHwEHBwcNDA0YEBAYGhURFRofHx8f&#xA;Hx8fHx8fHx8fHx8fHx8fHx8fHx8fHx8fHx8fHx8fHx8fHx8fHx8fHx8fHx8f/8AAEQgBAADEAwER&#xA;AAIRAQMRAf/EAaIAAAAHAQEBAQEAAAAAAAAAAAQFAwIGAQAHCAkKCwEAAgIDAQEBAQEAAAAAAAAA&#xA;AQACAwQFBgcICQoLEAACAQMDAgQCBgcDBAIGAnMBAgMRBAAFIRIxQVEGE2EicYEUMpGhBxWxQiPB&#xA;UtHhMxZi8CRygvElQzRTkqKyY3PCNUQnk6OzNhdUZHTD0uIIJoMJChgZhJRFRqS0VtNVKBry4/PE&#xA;1OT0ZXWFlaW1xdXl9WZ2hpamtsbW5vY3R1dnd4eXp7fH1+f3OEhYaHiImKi4yNjo+Ck5SVlpeYmZ&#xA;qbnJ2en5KjpKWmp6ipqqusra6voRAAICAQIDBQUEBQYECAMDbQEAAhEDBCESMUEFURNhIgZxgZEy&#xA;obHwFMHR4SNCFVJicvEzJDRDghaSUyWiY7LCB3PSNeJEgxdUkwgJChgZJjZFGidkdFU38qOzwygp&#xA;0+PzhJSktMTU5PRldYWVpbXF1eX1RlZmdoaWprbG1ub2R1dnd4eXp7fH1+f3OEhYaHiImKi4yNjo&#xA;+DlJWWl5iZmpucnZ6fkqOkpaanqKmqq6ytrq+v/aAAwDAQACEQMRAD8A9U4q7FXYq7FXYq7FXYqo&#xA;Xt/Y2Ns1ze3EdrbJ9uaZ1jQfNmIGEAnktvOvMP8AzkD5C0stHZSS6vcLtS2XjED7yycRT3UNl8dN&#xA;I89ms5QHnms/85L+abhmXStOtbCI9GlL3Eo+n92n/CZkR0kepazmLDtS/N38yNQJ9bXbiIHtbcba&#xA;nyMIQ5aMEB0YGZY5d65rd6SbzULm5J6maaSStdv2icsEQOjGygsKtqzIwZSVYbhhsQcVTG08zeZL&#xA;Mg2mrXluV6GK4lSn/AsMiYA9E2WUaR+dv5kaawpqpvIh1iu0SYH5uQJPubK5aeB6MhkL0Ty3/wA5&#xA;M20jLF5j0swV2N3Ykuv0xSHkB8nPyzHnpO4tgzd71zy75s8ueY7b6zot/FeIAC6oaSJX+eNqOv0j&#xA;MWUDHm2iQPJNsil2KuxV2KuxV2KuxV2KuxV2KuxV2KofUdSsNNs5L3ULiO1tIRWSeVgiAfM4QCdg&#xA;pLxTzt/zkhDGZLPylbCY9P0ndKQvzjhNCfYvT/VzMx6X+c0yy9zxXXfM2v6/dfWdZv5r2UV4+q1V&#xA;WvUIgoiD2UDMuMBHk0kk80sySHYq7FXYq7FXYq7FXYq7FURp+o3+nXaXlhcyWl1EaxzwuUcfIqQc&#xA;BAPNQXt35f8A/ORLhotP84LyU0VdXhWhHvPEo3/1kH+x75h5dL1i3Ry973SzvLS9tYrq0mS4tplD&#xA;xTRsGRlPcMNjmGRTerYFdirsVdirsVdirsVdirsVYh+YP5m6B5MsuV031nU5Vra6dGwDt/lOd+Ce&#xA;5+gHLcWEzPkwlMB8wec/P3mTzfffWNWuCYEYm2so6rBED/Kvc/5Rqc2OPGIjZx5SJY7ljF2KuxV2&#xA;KuxV2KuxV2KuxV2KuxV2KuxVmn5dfmjrvky8CxMbrR5Grdac5+E16vGf2H/A98py4RP3soTIfU/l&#xA;nzPo/mXSIdV0mb1baXZlOzxuPtRyLvxZf7RtmtnAxNFygbTXIpdirsVdirsVdirsVeffmt+a1j5O&#xA;sTaWhS48wXCVt7c7rEp29WWnb+Vf2vll+HCZnya5zp8s6nqeoapfTX+oXD3V5cNymnkNWY9PwGwH&#xA;bNkAAKDjE2hsKuxV2KuxVWtrOe5JWHiWH7LOik/6oYgt9GVZc0YfVfyJ+7l8UgW3d2F9ZuI7u3kt&#xA;3YVVZUZCR4jkBUYMOox5RcJCQ8jayiRzUMuQ7FXYq7FXYq7FXYq7FXYqyf8AL/z9q3kzWlvrP97a&#xA;y0S+smNEljr/AMK6/st2+VRleXGJimUZUX1zoGvaZr2kW2raZL61ndLyRuhB6MrDsynYjNXKJiaL&#xA;lA2mGRS7FXYq7FXYqw78zvzDs/Jegtc/DLqtzWPTrUn7T95Hp+wlanx6d8tw4uM+TCcqD5J1PUr7&#xA;VNQuNQv5muLy6cyTzP1Zm/UPADpm0AAFBxSbQ2FXYq7FXYquidUkVmRZFBqUbkFPseJU/ccEhYoG&#xA;lDKdE0bzHqwBtfLUd5bMfhcxvAm/8s4eLp7sffOd7Q1+l0395qTjmPOMj/pOGX2RcjHjnLlG/wAd&#xA;7LoPyq81pAn1NoYrSVv9J0bUJTNEp/mV4lIPU0YBXXx75zOX2z0PERPinKI9OXHHhl7qkQR7t4y6&#xA;itnKGiyVtt5FL9R/I3zKk3KxntZIWHLg0jhlbulSgDAdm2r4DMrTf8ELRkVkjMH3Dfz+rb3b+8sZ&#xA;dnT6Ulz/AJNeelFRbQufBZkr+JGbCPt12af45D/Nk1/kMvcld/8Alv54sVLTaRMyjvBxn/5NFzmf&#xA;p/ans7Majmj/AJ1x/wB0A1y0mWPOLHpoZoZGimjaKVdmRwVYH3BzfQyRmOKJBB6hxyKWZJXYq7FX&#xA;Yq7FXYq9O/Iz8w38u6+uj30tNF1Vwjcj8MNwaKkm+wDbK/0HtmPqMXELHMNmOVF9RZrXJdirsVdi&#xA;qF1TU7LS9OudRvpBDaWkbSzyHsqip+Z8B3wgEmggmnx15885X/m7zHcatdErET6dnbk1EUCk8EHv&#xA;3b3JzbY8YiKcSUrLHsmh2KuxV2Ksp8nfl3rvmeQSQr9W04NSS9lB47dQi9XP4e+c9257S6bs6NTP&#xA;FlI2gOfx/mjzPwBcjBppZOXLvez+Wvyx8q6EqutsL28G5urkBzX/ACF+yv0Cvvnkva3tfrdYSOLw&#xA;8f8ANht8zzP3eTt8OihDzLLM5dy3Yq7FXYq7FUBq2g6Nq8PpanZRXaUoDIoLL/qt9pfoOZui7R1G&#xA;llxYZygfI/eOR+LCeKM/qFvMfNf5Hpxe68tzEMKn9HzmoPtHKf1P/wAFnofY3/BBNiGrj/nx/wB9&#xA;H/if9K63N2d1h8nk17ZXdjdSWt5C8FzEeMkUgKsD8jnp2DPDNATxkShLkQ6uUSDR5qOWodirsVdi&#xA;rsVfXX5PecG8z+SrW4uH56hZH6nekmrM8YHGQ/66EEnxrmrzw4ZOVjlYZtlLN2KuxV4R/wA5Iedm&#xA;UW3lKzkpyC3Wp8T26wxH/iZH+rmbpcf8TRll0eDZmtLsVdirsVZ9+Wf5cP5hnGpaipTR4WoF3BnZ&#xA;eqqf5R+0fozjvav2nGgh4ePfUSH+lH84+fcPifPM0ml8Q2fpe9W9vb20EdvbxrDBEoWOJAFVVHQA&#xA;DPEc2aeWZnMmUpcyebvYxAFBUytLsVdirsVUru7trO1lurqRYbeFS8srmiqo3JOWYcM8sxCA4pSN&#xA;AIlIAWXjvmj88L6WR7fy7CIIQSBezqGkb3WM/Co/1q/RnqvZH/A+xxAnq5cUv5kdgPeeZ+FfF1Ob&#xA;tEnaHzSzyV5v/MTWPM9nBDfS3Ufqq94jhfSEAYeoWoAFFOlO/TfNj2/2J2VpdHOUscYHhIiRfFxV&#xA;6a333/bs16fPmnMAG3vWeKu7Yv558h6b5psTyAg1OJT9VvANx34PT7SH8O2dF7Pe0ebs7Jt6sJ+q&#xA;P6R3H7+rjanTDIPN86alpt7pl9NYXsRhurduEsZ7H2I6g9Qc950mqx6jFHLjPFCQsF0E4GJo80Nm&#xA;QxdirsVdir17/nGzXmtPNd7o7tSHUrfmi/8AF1ueQp/zzZ/uzF1cbjfc24ju+ks17kOxVDapqNrp&#xA;mm3Wo3bcLWzieeZvBI1LH9WECzSCafFHmHW7vXNcvtXuzW4vZmlYdlDH4UHsq0Ue2beMaFOGTZS/&#xA;JK7FXYqnnkzyvceZNeg06Oqw/bupR+xEv2j8z0GavtntSGh00s0unId8ug/HTdtw4jkkIh9C61a6&#xA;hp3lS4tfLcQS8t4AlhEoXbjQbBvhLcakV754To9Tj1Ovjk1huE53M7/o5DkNuQd/OJjjqHMcnz9q&#xA;Unn2aZl1E6m8m/JJfX+R+E7Uz27Sx7MhEHF4AHlwOimcp58X2qOlv5yjuQmmHUFuAfsQetyr7hfl&#xA;lurj2fKF5vB4P6XD+ljDxL9Nvovyl+n/APD1n+nyDqvE+vSlftHjy4/Dy40rTvng/bX5X81P8r/c&#xA;3t8t6ver5PQYOPgHH9SMudUt4JJoeEstxDAbn0Yo2ZnQEiiGnFmqPs1rmLi0kpiMriIynw2SBR8+&#xA;oHnVMzMBFK3JQ1CKitDsRXxzGIo0yQur6VZ6tplzpt4pa2ukKSBTQjuCD4g7jMnQ6zJps0c2P64G&#xA;wxyQEokHkWD2P5H+UIJedxLdXag/3UkiotPf01Rv+GzsNR/wQdfMVAY4eYBJ/wBkSPscKPZ2Mc7L&#xA;NtJ0TSdIt/q2mWkdpCd2WNaFiO7Hqx9znIa3tDPqp8eacpy8/wBHd8HMhjjAVEUjcxGbsVed/nB5&#xA;KXVdJOtWcf8AuR09CZgBvLbjdh80+0Pavtnd+xHbx02f8vkP7rKdv6M+n+m5HzrzcDXafijxDmHg&#xA;+e0OkdirsVdirKPyv1BrD8wvL9wG48ryOFj/AJNwfRb8JMrzC4FlA7h9kZqXLdiryb/nI3zM2neU&#xA;oNGhbjPrEtJKdfQgo7/e5QfKuZWlhcr7mrKdqfNGbBx3Yq7FXYq+hPyl8qDRfLi3c6Uv9SCzSnus&#xA;dP3abgdjU+5zxT257Z/M6rwIn93h298+vy5fPvd3oMPDHiPMs4zh3PdirsVSXX/OGgaHYteXtyDG&#xA;svocYR6rerxLcCF+yaD9qmbbs3sPVazJ4eOO/Dxer0jh5XvzHutpy54QFksY1783bKz0PT9X02xe&#xA;8gv3lj/euIfSeKlVcASfEa1FO3fOi7O9icmXU5MGbIMcsYidhxcQle4+nb8U4+XXAREoi7S8/m5q&#xA;0vkyTXYNPh+sQ3y2k0RZ2RY2i5rJtxO7fD1zO/0FYI9oDTSyS4ZYuMHYGxKq+W7X+ekcfEB1pGQ/&#xA;mdrf+ELbW20Rri4nuntzFCXVAiryD/ZkbfoMxZ+yWm/Py0wz8MYwErlV2TVcwPNmNZLwxLh6ovR/&#xA;zVhvCFvNC1K0J2aRIHuI1+ZVVf8A4TMXXex0sW+PPhn5GQgftNf7Jlj1t84yDNra5iuYEnhJMcgq&#xA;vJWQ091YKw+kZyOXFLHIxlzHmD9o2cwGxaplaXYq4gEEEVB2IOINK+ZfP/l4aB5qvLGNeNszevae&#xA;HpSbgD/VNV+jPob2a7T/ADuihkP1j0y/rD9fP4vOarFwTI6MdzetDsVdiqO0K5NrrmnXQFTBcwyg&#xA;e6SBv4YJCwVHN9xZpnNdir5V/PzXzqn5g3NsjcrfSo0tI6dOQHqSH583K/Rmy00ah73Gymy85zIa&#xA;3Yq7FU+8jaD+nPNFjYMpaAv6lztUelH8TV9j9n6c1nbOvGk0mTN1jHb38h9rbhx8cxF9OqoVQqii&#xA;gUAHYDPnCUjIkncl6UCm8CoXVNUsNLsJr+/mWC1gXlJI34ADuT0AGZGk0mXUZRixDinLkGM5iIs8&#xA;nnU/mjWvPOiazBpMUmk21vwez1B5DEkyhiJI5JNgtV3op9jneY+yNP2PqMMs5jmnKxKAHEYmvTKI&#xA;60dt/eHXnNLNGQj6R3sQsbTyno2jajpmu64t79dMT/VdKUztHLCxIdZnAiqVYqR+OdTqM2u1eox5&#xA;tNgOPw+IcWX02JDkYj1VYBH3OLGOOETGUrvuQ/8AjXyrYaa2l6ZoH1u19YXAfU5jJ+9C8OXpxhVH&#xA;w7GjZf8AyDrc2bxs2o4J8PD+6jXpu64jZ5+TH8xCI4YxseagPzT80QQmDTFs9KgJ5elZ20SLXbej&#xA;h99uuXH2P0c5cWY5M0u+c5E/ZTH87MbRqPuCCn/MXzvMavrNwO/wMI/b9gLmXj9l+zocsMPjv99s&#xA;Dqsh/iKl/jvzn/1erz/kc/8AXLf9DvZ/+oY/9KEfmcn84qtt+Ynne3lEiazcMw7SN6q/8C4YZVl9&#xA;mOzpijhh8BX2ikjVZB/EXp/kT84LfVZo9N11Utb5yFguk2hlY7BWBrwY/cfbPO/aL2InponNprnj&#xA;HOP8UfMfzh9o83ZabXiW0ti9Lzz52LsVeQfn7YIG0jUFHxkS28jeIHF0H4tnqX/A31JrNiPL0yH2&#xA;g/odV2nH6S8iz1F1TsVdiqvYf7323/GVP+JDAeSh905pnNdir4d1/UW1LXNR1FjU3lzNPX/jJIW7&#xA;/PNzEUAHCJ3QOFXYq7FXqv5C6ar6hqeoum8UaQxP7uSzj/hVzz3/AIImq4NLDEP4538Ij9ZDsezY&#xA;XMnuD2fPHncrJ54YIZJ5nEcMSl5JGNFVVFSST2AyePHKchGIuRNAeak0LLxTz7+Z2i6ndxrp9mb+&#xA;O2r6L3lfqwff96tuOPNqGgMpoP5eueueznslqNPAnLPwzPnwfXX80z/hH9Tc/wA7k6bU6yMjsLrv&#xA;5fL9bAtW8x63qxH1+7eaNP7uDZIUp04RLxRfoGdrouy9Ppv7qAiTzPOR98jufiXCnllLmUuzPa3Y&#xA;q7FXYq7FXYq7FXtX5RfmFJfqvl/Vped5Gv8AoFw53kRRvGx7soFQe4+W/kftr7MjCfzWAVjP1xH8&#xA;JP8AEPI9e4+/bcaHVcXolz6PUs84dk82/PiMHytYyd1vlUD/AFoZD/xrnf8A/A6l/hsx/tR/3Uf1&#xA;uv7SHoHveGZ7I6V2KuxVHaDbG61zTrYbGe6hiB/15Av8cEjQKjm+4s0zmuxV8H5unCdirsVdir3H&#xA;8h0p5av3pu14RXxAiTPJf+CRkvNhj3RkfmR+p2/Zg2k9LzzZ2bzP88tfe00W10iFuL6g5een++oa&#xA;Hif9ZyPuz0L/AIHvZoy6ieeQ2xCh/Wl+oX83Xdo5aiI97w/PYXTOxV2KuxV2KuxV2KuxV2Kq1nd3&#xA;Fndw3ds5juIHWSKQdQymoOVZ8EMsDCYuMhRHkUxkQbD6i8sa5Drmg2WqRUH1mMGRR+zIvwyL9DA5&#xA;85dr9ny0epnhP8J28xzB+T0uHJxxEmF/nu6jypZJ+018jD5LDKD/AMSzrv8AgdRP52Z/2o/7qDh9&#xA;pH0D3/reF57I6V2KuxVkv5Z2Zu/zA8vQ0rS+glI9oXEh8eyZXlNQLKHMPsvNS5bsVfCl3bTWt1Na&#xA;zDjNA7RSL4MhKkfeM3QNuEpYq7FXYq91/IqRn8q3SkbR3jopHh6aN/xtnkX/AARx/hGI/wBA/e7j&#xA;sz6S9Hzzl2TwD86r83PnV7evw2VvFFTsCwMp/wCTgz272C03h9niX+qTkfl6f966LtCV5K7gwLO1&#xA;cJ2KuxV2KuxV2KuxV2KuxV2KvZ/yG1ZpNP1LSnP+88iXEIPWkoKuB7AoPvzyX/gjaIRy4s4/iBif&#xA;83cfefk7fs2exio/n7eAQaPZg7s00zr4BQqqf+GOW/8AA3werNk8ox+8n7gjtOW0Q8ez1V1LsVdi&#xA;r0f/AJx/043f5k2k3HkthBPcttUCqeiD/wAFKMx9Sag2Yhu+qc1rkuxV8l/nd5eOjfmHqBVONvqN&#xA;L6A+Prf3n/JUPm008rgHFyCiwPLmDsVdir2j8hLyNtL1SzH95HOkx/1XTiP+IHPLv+CTi/uZ/wBc&#xA;f7l2vZkvqD1TPLXavmb8xp/X88aw/hcGP/kWAn/GufQnsvj4OzsI/oX89/0vO6s3ll72OZv3Hdir&#xA;sVdirsVdirsVdirsVdir038huX+IdR68fqm/hX1Vpnnn/BGr8rj/AOGf70ux7N+s+5Lfzn1UXvnN&#xA;7dGrHp8McG3TmayN/wATp9GZ/sHo/C7PEzzySMvh9I+6/i19oTvJXcwTO0cJ2KuxV7t/zjDpBMmu&#xA;aw67ARWcLeNSZJR+CZhauXIN2EPeswm92KvH/wDnJHyyb3y1aa9CtZdKl9Ocj/fFwQtT/qyBafM5&#xA;laSdGu9qyja3zfmwcd2KuxV6N+R2qi28zXFi7BVvoDxr1LxHkoH+xLZxft5pDl7PMh/k5CXw+n9L&#xA;m6CdZK73u2eIO9fMHnv/AJTPWv8AmMm/4mc+ivZ3/jPwf8Lj9zzep/vJe9Is3LS7FXYq7FXYq7FX&#xA;Yq7FXYq7FXsv5Q2MeheVNU80X44RTKWjr19G3DVI/wBdyQPkM8n9ttQdZrcWjxbyjz/rTr7hv8S7&#xA;fQx4IGZ/FPItRvp9Q1C5vpzWa6leaQ/5TsWP689R0unjgxRxx+mEQB8HUzkZEk9UPl6HYq7FX1x+&#xA;THlp9A8gWEMycLq+rfXKnYhpwOAI8REqA++avPPik5WMUGcZSzdiqC1vSLTWNHvNKuxW2vYXgk8Q&#xA;HFOQ9x1GGMqNoIt8T6vpd3pOq3emXa8bmyleCUduSMVJHsabZuImxbhkUhMKuxVHaHqs+kavaalB&#xA;X1LWVZKDuAfiXev2lqMo1WnjnxSxy+mcSD8UwkYkEdH1Np1/b6hYW99bNzguY1ljb2YVz5t12jnp&#xA;s0sM/qga/b8eb0+OYlEEdXzn+Z9obXz1qyEUEkizKfH1UV/1tnu3sjn8Ts3Ee4Ef6UkOg1kayli+&#xA;dG4zsVdirsVdirsVdirsVdirL/y+/L+98z3wlmDQ6PAw+s3HQvT/AHXH4se5/Z+4Hlvab2lx9n4+&#xA;GPqzyHpj3f0peX3/ADIytLpTkP8ARZf+c3mS2s7G28padxjRVR7uNOiRpT0Yvw5fQPHOW9hOyp5c&#xA;ktdm3NkRJ6k/VL9Hz7nL1+UADGHkOepOqdirsVZj+U/k0+a/ONrZypy062/0rUD2MUZHwf8APRqL&#xA;8qntlWbJwxZQjZfX/TYZqnLdirsVdir55/5yQ8mtbanbeabVP3F6BbX5A+zMg/duf9dBx/2Pvmfp&#xA;cm3C0ZY9XiuZbS7FXYq9U/J3z5FaOPLupShIJWJsJm2Cu3WMnwbqte+2eee3Hs6dRD81hF5ID1D+&#xA;dHv98ftHudjoNTwnhPIp/wDml+W2oeYLqPV9JZGvI4hFNaueHqBSSrK525fFShp88572Q9qsWigc&#xA;GcHgMrEhvV1zHOvd8nJ1mkMzxR5vGNS0bVtLl9LUbOa0etAJUZQfkSKH6M9Z0uuwaiPFinGY8jbp&#xA;545R5ikHmWxdirsVdirsVbVWZgqgljsANycBIG5VMbXyz5ju6fVdLu5gejJBIw+8LTMDN2tpMX15&#xA;ccffKP62yOGZ5As/8l/kxfXUiXnmQG1tVNVsVP72T/XI+wv/AA3yzie3vbvHjBx6T1z/AJ/8I938&#xA;4/Z73O0/Z5O89h3PRfNXmbRfJegqI440cKY9O09Ph5MPYdFWtWP8TnB9j9k6jtbUmySLucz0/aeg&#xA;/QHYZs0cMfuD5x1C/u9QvZ727kMtzcOZJZD3Y573ptNDBjjjxioRFAPPSkZGzzQ+XodirsVfVX5G&#xA;+ST5c8opd3ScdT1jjcz1+0kVP3MZ+SsWPuxGa3UZOKXkHJxxoPRsx2x2KuxV2Kpd5i0HT9f0W70j&#xA;UE52t5GUenVT1V1/ylYBhkoyMTYQRYfGvmny5f8AlvX7zRr4fv7R+IcCiyId0kX2dSDm2hMSFhxJ&#xA;CjSVZJDsVd0xV69+XH5sxqkWj+YpePGiWuoudqdAkx/U33+OeZe1PsXxk6jSD1c5Q7/OPn/R69N9&#xA;jtNJra9M/m9T1G3nvdPaOzuEheUApM0azoQd90JAYH555npskcOW8kTLh5izE/Pofg7SQ4hsXmt/&#xA;5G8w/XEW78vaNqttJIBJcWvOylCsaFmCvGNuuwOd/pvaHS+GTDUanDMDaM6yRvuFiX2066Wmne8Y&#xA;yHlskHmCx0DRtZuLOTyJLJaxSlYrkXV5SWOvwupBZfiHau3TN32bqNVq9PHINfETlHePh4vSeoPI&#xA;7ftaMsYwkR4e3vLXm7UvKPl7X7jTIPKlvIYFiIlnmm39WJZD8Fe3KnXD2JpddrtLHNLVzHFxbRjH&#xA;pIx5/C1zzx45GIgEdrl9omnaHod9p/lGzmm1eJpZFkjeVUK8RxWm/wAXKvXMPs/T6jPqc+PLrMkY&#xA;4JUKIjd3ufdTPJKMYxIgPUm2l/pm78oz6pY+UNOt9W+sIlrB9URA8W1ZKOVbYk0Nc1ms/L4tdHDk&#xA;1maWDgJkfEJqX83aw2w4jj4hCPFfcyDydZ+fhJM+upZWFq8TLDb2qJ6qSMQQapySi79zmk7cz9mE&#xA;AaY5ckxIWZk8JHxqW/uDfgjl/ioDyZVAjWtoBc3LTmNayXM3poTTqW9NY0H3ZzWSQyT9ERG+UY2f&#xA;lZJ+1yhsNy8/84fnLpGmh7XRAuo3w2M9f9HQ/wCsN5P9jt752/YfsLn1FT1N4sfd/Gf+J+O/k4Gf&#xA;XxjtHc/Y8Z1vXNU1u/e/1Kcz3D7VOwVR0VVGyge2es6Ds/DpMQxYY8MB9vmT1LqMmSUzckBmawdi&#xA;rsVZ5+Tfkc+avN0X1mPlpOm8bm+J+y1D+7iP/GRhv/kg5TnycMfNnjjZfWnTYZq3KdirsVdirsVd&#xA;iryX/nIHyH+l9BHmKyjrqOkqfrIHWS06t9MR+L5cvbMrTZKNHq1ZY2LfNObBx3Yq7FXYqyjyv+ZH&#xA;mby6qw20wuLIf8edxV0A/wAg1DJ9BpnPdr+zGj1/qyR4cn86O0vj0PxHucjDqp4+XJ6PpP57aFOA&#xA;uqWU9nJtV4iJo69z+ww+45wOt/4HWohvhyRmO6XpP6R9odhDtKJ+oUyux/MPyTe/3OsW6nwmYwH/&#xA;AJKhM5nUey/aOH6sMz/V9X+5tyo6vFLlIJmNc0GRQRqFq6ncETRkbH5+Oa89m6qJ3x5Af6sv1Nni&#xA;w7w1N5j8vQrym1S0jXxeeJR+LYYdlauX04sh90JfqU5oDqPmk1/+Z/kayqH1WOZx0W3V5q/JkBX8&#xA;c2um9ke0s3LEYj+lUfsJv7GqWsxDqxDWfz5tVDJo2nPK3ae7IRQf+MaFif8AghnU6D/gczO+oyAe&#xA;UN/9keXyLiZO0h/CPm848xed/MvmAkajeM1vWq2sf7uEf7Bevzapzvey/Z/R6H+6gOL+cd5fPp8K&#xA;dfl1E8nMpFm5aXYq7FXYqujjkkkWONS8jkKiKCSSTQAAdScVfX35V+SE8o+U7eykUfpK5/0jUXG/&#xA;75h9ivhGtF+8981WbJxStyoRoMwypm7FXYq7FXYq7FWnRHRkdQyMCGUioIOxBBxV8hfmv5Hbyj5s&#xA;ntYVI0y6rcac53Hpsd46+MbfD8qHvm1w5OKPm4k40WG5axdirsVdirsVdirsVdirsVdirsVdirsV&#xA;dirsVet/84++RP0vrreY72Plp+ksPqwYbSXdKqf+eQPL58cxdTkoUOrbijZt9K5r3IdirsVdirsV&#xA;dirsVdirCPze8jDzb5Tmht05arY1udOI6s4Hxxf89F2+dMuwZOGXkwnGw+RiCpIIoRsQeoObRxXY&#xA;q7FXYq7FXYq7FXYq7FXYq7FXYq7FXYqjdE0e+1rV7TSrBPUu7yRYol7VbqzeCqNyfDBKQAsqBb7N&#xA;8qeW7Hy35fs9Gsh+5tE4tIRQyOd3kb3ZiTmonMyNlzIihSbZFLsVdirsVdirsVdirsVdir5g/Pvy&#xA;L+gvM36Zs4+OmayzSGn2Y7rrKvtz+2Ppp0zY6bJxCuocbLGi8uzJa3Yq7FXYq7FXYq7FXYq7FXYq&#xA;7FXYq7FX0L/zjt5D+qWMnmy/jpcXgMOmKw3WGvxy/OQig9h4NmDqslnhDfij1e15htzsVdirsVdi&#xA;rsVdirsVdirsVSDz15TtfNfli80aeiySrztZj/uudN43+/Y+1cnjnwytjKNinxpfWV1Y3s9ldxmK&#xA;6tpGhnibqroSrA/IjNsDYtxCo4VdirsVdirsVdirsVdirsVdirsVZT+W3kqfzf5pttMAK2SfvtQm&#xA;G3CBCOVD/M5oq+5yvLk4Y2yhGy+w7a2gtreK2t41it4EWOGJRRVRBxVQPAAZqSXLVMVdirsVdirs&#xA;VdirsVdirsVdirsVfPv/ADkb5G+r3kPm2yj/AHN0Vt9SCjZZQKRyn/WUcT7geOZ2lyfwloyx6vEc&#xA;zGl2KuxV2KuxV2KuxV2KuxV2KuALEACpOwA6k4q+tvye8hL5S8rRi5jA1jUOM+oMR8SVHwQ/88wd&#xA;/wDKJzV58nFLycrHGgzrKWbsVdirsVdirsVdirsVdirsVdirsVQGvaJY65o15pF+nO0vYzFINqiv&#xA;Rlr+0rUZfcZKMiDYQRb4w8yaDfeX9cvNHvhS5s5DGxHRh1Vx7OpDDNtCQkLDiEUUtySHYq7FXYq7&#xA;FXYq7FXYq7FXrH5A+QP01rp8w30ddM0lwYFYbS3VKr9EWzH34++Y2py0KHMtuKNm30xmuch2KuxV&#xA;2KuxV2KuxV2KuxV2KuxV2KuxV2KvF/8AnIvyN9d02HzVZR1ubACHUAo3a3J+B/8AnmxofY+2Zely&#xA;UeEtOWPV875ntDsVdirsVdirsVdirsVTDy/od/r2s2mkWCc7q8kEaeAHVnb/ACVUFj7ZGUhEWVAs&#xA;vsvyv5csPLmg2ejWIpBaIFL0oXc7vI3uzVOamczI2XMiKFJrkUuxV2KuxV2KuxV2KuxV2KuxV2Ku&#xA;xV2KuxVSu7W2u7Wa0uY1mtrhGimiYVVkccWU+xBwg0r42/MDyjceU/NN5pEnIwI3qWUrdZLdyfTb&#xA;5/st7g5tcU+KNuHKNFjuWIdirsVdirsVdirsVfSH/OPn5f8A6L0lvM+oRUv9STjYqw3jtSa8t+8p&#xA;3/1aeJzX6nLZ4R0cjFGt3sGYra7FXYq7FXYq7FXYq7FXYq7FXYq7FXYq7FXYq7FXmP59eRv0/wCV&#xA;/wBK2ictT0YNKABvJbneVPcrTmPkfHMnTZOGVdC15Y2Hy7mxcZ2KuxV2KuxV2Ks2/KTyG/m/zRHF&#xA;Mh/RNjxn1F+xUH4Yq+MhFPlU5TnycMfNnCNl9coiRoscahEQBURRQADYAAZq3KbxV2KuxV2KuxV2&#xA;KuxV2KuxV2KuxV2KuxV2KuxV2KuIBBBFQeoxV8i/m75HPlPzbNBBHx0u+rc6cRXiEY/FFX/ittvl&#xA;TxzaYMnFHzcWcaLCcuYOxV2KuxVVtbW4u7mK1to2muJ3WOGJBVmdzRVA8STiTSvsH8tfJFv5P8rw&#xA;aaOL30n77UJ1/bmYbgH+VB8K/f3zVZcnHK3LhGgyrKmTsVdirsVdirsVdirsVdirsVdirsVdirsV&#xA;dirsVdirsVYZ+bPkdfN3lOe2hQHVLOtxpz9zIo+KOvhIvw/Oh7ZdhycMvJhONh8hsrIxRwVZSQyk&#xA;UII6gjNo4rWKuxV2KveP+cefy7UqfOGpRVNWj0iNh4VWSen3qv0nwzC1WX+EN2KHV7xmE3uxV2Ku&#xA;xV2KuxV2KuxV2KuxV2KuxV2KuxV2KuxV2KuxV2KuxV82fn/+XraTrP8AiXT4v9xmpv8A6WFG0V0d&#xA;yT4LL9r/AFq+2bDTZbFHmHHyxo28izKanYqyr8t/It35x8yQ6egZLGKkuo3I/wB1wg7gH+Z/sr9/&#xA;QHK8uTgFsoRsvsCzs7aytIbO1jENtbosUMS9FRBRVHyAzVE25atgV2KuxV2KuxV2KuxV2KuxV2Ku&#xA;xV2KuxV2KuxV2KuxV2KuxV2KoTV9I07WNNuNN1GFbiyukMc0Tdwe4PUEHcEdDhjIg2EEW+UvzE/K&#xA;jX/KF7JIsT3uiMSbfUEWoVevGYD7DD7j28Bs8WYS97jTgQkvlLyR5j8136WmkWrSLyAmu2BWCId2&#xA;kkpQfLqewyc8giN2MYkvq7yF5G0vydoUem2Q9Sd6Pe3ZFGmlpQsetFHRV7fOpzWZMhmbLlRjQZJl&#xA;bJ2KuxV2KuxV2KuxV2KuxV2KuxV2Kv8A/9k=</xmpGImg:image>
               </rdf:li>
            </rdf:Alt>
         </xmp:Thumbnails>
      </rdf:Description>
      <rdf:Description rdf:about=""
            xmlns:xmpTPg="http://ns.adobe.com/xap/1.0/t/pg/"
            xmlns:stDim="http://ns.adobe.com/xap/1.0/sType/Dimensions#"
            xmlns:xmpG="http://ns.adobe.com/xap/1.0/g/">
         <xmpTPg:MaxPageSize rdf:parseType="Resource">
            <stDim:w>1353.463379</stDim:w>
            <stDim:h>1878.653809</stDim:h>
            <stDim:unit>Pixels</stDim:unit>
         </xmpTPg:MaxPageSize>
         <xmpTPg:NPages>1</xmpTPg:NPages>
         <xmpTPg:HasVisibleTransparency>False</xmpTPg:HasVisibleTransparency>
         <xmpTPg:HasVisibleOverprint>False</xmpTPg:HasVisibleOverprint>
         <xmpTPg:PlateNames>
            <rdf:Seq>
               <rdf:li>Cyan</rdf:li>
               <rdf:li>Magenta</rdf:li>
               <rdf:li>Yellow</rdf:li>
               <rdf:li>Black</rdf:li>
            </rdf:Seq>
         </xmpTPg:PlateNames>
         <xmpTPg:SwatchGroups>
            <rdf:Seq>
               <rdf:li rdf:parseType="Resource">
                  <xmpG:groupName>Default Swatch Group</xmpG:groupName>
                  <xmpG:groupType>0</xmpG:groupType>
               </rdf:li>
            </rdf:Seq>
         </xmpTPg:SwatchGroups>
      </rdf:Description>
      <rdf:Description rdf:about=""
            xmlns:dc="http://purl.org/dc/elements/1.1/">
         <dc:format>image/svg+xml</dc:format>
      </rdf:Description>
      <rdf:Description rdf:about=""
            xmlns:xmpMM="http://ns.adobe.com/xap/1.0/mm/"
            xmlns:stEvt="http://ns.adobe.com/xap/1.0/sType/ResourceEvent#"
            xmlns:stRef="http://ns.adobe.com/xap/1.0/sType/ResourceRef#">
         <xmpMM:DocumentID>xmp.did:0EBDB1EC825DEE11B374DA24BC2815D8</xmpMM:DocumentID>
         <xmpMM:InstanceID>xmp.iid:0EBDB1EC825DEE11B374DA24BC2815D8</xmpMM:InstanceID>
         <xmpMM:OriginalDocumentID>xmp.did:7615B0239E5CEE118C8782C4946F1117</xmpMM:OriginalDocumentID>
         <xmpMM:History>
            <rdf:Seq>
               <rdf:li rdf:parseType="Resource">
                  <stEvt:action>saved</stEvt:action>
                  <stEvt:instanceID>xmp.iid:7615B0239E5CEE118C8782C4946F1117</stEvt:instanceID>
                  <stEvt:when>2023-09-26T20:54:36+02:00</stEvt:when>
                  <stEvt:softwareAgent>Adobe Illustrator CS6 (Windows)</stEvt:softwareAgent>
                  <stEvt:changed>/</stEvt:changed>
               </rdf:li>
               <rdf:li rdf:parseType="Resource">
                  <stEvt:action>saved</stEvt:action>
                  <stEvt:instanceID>xmp.iid:0EBDB1EC825DEE11B374DA24BC2815D8</stEvt:instanceID>
                  <stEvt:when>2023-09-28T00:12:19+02:00</stEvt:when>
                  <stEvt:softwareAgent>Adobe Illustrator CS6 (Windows)</stEvt:softwareAgent>
                  <stEvt:changed>/</stEvt:changed>
               </rdf:li>
            </rdf:Seq>
         </xmpMM:History>
         <xmpMM:DerivedFrom rdf:parseType="Resource">
            <stRef:instanceID>xmp.iid:A015EFF04A5DEE11B374DA24BC2815D8</stRef:instanceID>
            <stRef:documentID>xmp.did:A015EFF04A5DEE11B374DA24BC2815D8</stRef:documentID>
            <stRef:originalDocumentID>xmp.did:7615B0239E5CEE118C8782C4946F1117</stRef:originalDocumentID>
         </xmpMM:DerivedFrom>
      </rdf:Description>
   </rdf:RDF>
</x:xmpmeta>
                                                                                                    
                                                                                                    
                                                                                                    
                                                                                                    
                                                                                                    
                                                                                                    
                                                                                                    
                                                                                                    
                                                                                                    
                                                                                                    
                                                                                                    
                                                                                                    
                                                                                                    
                                                                                                    
                                                                                                    
                                                                                                    
                                                                                                    
                                                                                                    
                                                                                                    
                                                                                                    
                           
<?xpacket end="w"?>
	</metadata>
<g id="Layer_2">
</g>
<g id="Layer_1">
	<g>
		<path fill-rule="evenodd" clip-rule="evenodd" fill="#3A4B73" d="M1082.484,533.203c-17.357-60.338-48.492-113.109-90.975-159.137
			c-30.717-33.282-67.627-57.942-109.15-75.802c-43.745-18.821-89.237-30.518-136.896-33.017
			c-21.564-1.132-43.154-1.879-64.739-2.481c-10.263-0.287-18.62-3.814-25.542-11.496c-11.088-12.306-24.62-21.267-39.844-27.699
			c-15.354-6.488-31.525-9.646-47.969-11.598c-4.386-0.521-8.822-0.613-13.234-0.931c-1.676-0.122-2.851,0.871-3.074,2.21
			c-0.293,1.737,1.627,1.554,2.63,1.815c4.783,1.244,9.611,2.31,14.425,3.442c17.662,4.167,35.353,8.23,51.709,16.505
			c12.44,6.294,23.274,14.553,32.448,26.085c-6.056,0-11.523-0.714-16.728,0.158c-9.213,1.544-17.198-0.671-24.692-5.744
			c-4.914-3.328-9.939-6.467-15.229-9.175c-25.037-12.814-51.063-14.553-77.881-6.853c-4.67,1.342-8.78,3.708-11.059,9.256
			c35.132-10.886,67.651-7.11,98.218,14.269c-2.11,0.504-3.561,0.951-5.042,1.189c-36.443,5.861-71.513,16.318-105.103,31.623
			c-52.944,24.124-97.296,59.144-132.99,105.133c-22.791,29.366-40.751,61.653-57.974,94.446
			c-30.222,57.555-47.12,118.761-50.483,183.61c-1.012,19.477-0.755,39.018,0.437,58.544c1.346,22.06,3.355,44.018,6.71,65.874
			c4.267,27.803,10.981,54.963,20.918,81.28c13.832,36.643,33.424,69.813,59.662,99.029c16.918,18.838,36.142,35.081,55.925,50.72
			c19.262,15.217,39.829,28.43,63.05,36.723c27.07,9.667,54.787,17.166,83.017,22.761c26.181,5.188,52.544,8.539,79.244,9.063
			c28.112,0.554,56.087-0.869,83.946-4.91c19.755-2.864,39.333-6.493,58.673-11.422c57.269-14.598,110.349-38.795,159.76-70.91
			c19.55-12.708,40.077-24.195,56.031-42.021"/>
		<path fill-rule="evenodd" clip-rule="evenodd" fill="#FCEF03" d="M480.908,456.359c6.043,0.449,14.81-0.619,23.465-2.632
			c9.833-2.287,18.956-6.067,26.159-13.465c7.086-7.279,6.782-15.222-0.814-21.99c-4.201-3.739-9.21-6.05-14.507-7.749
			c-14.078-4.514-28.61-6.146-43.301-6.502c-14.985-0.361-29.85,1.307-44.644,3.423c-9.438,1.351-18.764,3.397-27.289,7.971
			c-10.764,5.771-13.365,22.919-4.107,29.095c7.472,4.985,15.67,8.931,24.911,9.374C439.861,454.791,458.952,455.47,480.908,456.359
			z M761.85,424.716c12.878-0.651,25.411-3.378,37.801-6.792c16.125-4.443,32.051-9.467,45.981-19.165
			c6.833-4.759,13.239-9.996,17.764-17.204c6.085-9.69,1.995-25.322-11.907-27.072c-9.404-1.184-18.744-1.206-28.039,0.718
			c-22.518,4.657-42.666,14.768-61.81,27.087c-5.356,3.45-10.026,7.787-14.072,12.805c-5.984,7.423-3.455,14.73-0.065,22.112
			C750.347,423.397,755.464,425.237,761.85,424.716z M653.776,485.785c-14.213,0.916-28.255,3.064-42.2,5.845
			c-5.497,1.096-6.046,2.378-3.759,7.767c3.51,8.279,6.457,16.741,7.549,25.694c0.482,3.974,2.603,4.885,5.96,4.233
			c12.446-2.414,24.867-4.963,37.327-7.313c3.104-0.585,3.924-2.245,3.193-4.979c-0.968-3.619-1.415-7.293-1.702-11.019
			c-0.394-5.092-0.906-10.18-1.552-15.245C658.244,488.032,657.277,485.581,653.776,485.785z M621.058,1014.876
			c0,0.277-0.001,0.548-0.001,0.825c-7.059,0-14.116,0.026-21.174-0.014c-3.335-0.016-5.029,1.416-5.361,4.88
			c-0.651,6.773-0.457,13.56-0.634,20.338c-0.078,3.062,1.644,4.523,4.569,4.758c14.514,1.177,29.051,1.146,43.591,0.806
			c3.814-0.089,5.888-2.018,5.878-5.95c-0.018-6.649,0.061-13.301-0.082-19.945c-0.088-4.066-1.843-5.645-6.01-5.681
			C634.909,1014.83,627.983,1014.876,621.058,1014.876z M500.676,535.025c0.012,0.072-0.035,0.675,0.185,1.158
			c3.076,6.772,6.046,13.602,9.374,20.25c1.094,2.185,3.332,3.061,6.032,2.155c11.62-3.89,23.255-7.739,34.925-11.481
			c2.858-0.917,3.29-2.588,2.323-5.062c-3.414-8.722-6.839-17.436-10.259-26.154c-1.193-3.043-3.443-4.035-6.282-2.622
			c-11.237,5.593-22.408,11.321-33.59,17.023C501.68,531.161,500.528,532.467,500.676,535.025z M779.249,512.853
			c0-0.373,0.004-0.747,0.004-1.118c13.845,0,27.685,0.027,41.528-0.039c1.644-0.007,4.282,1.129,4.72-0.846
			c0.445-1.995-2.541-1.891-3.921-2.847c-0.324-0.226-0.794-0.231-1.178-0.381c-15.958-6.229-32.369-10.998-49.104-14.552
			c-10.646-2.262-21.308-4.653-32.251-5.223c-3.943-0.206-6.187,1.668-7.214,5.388c-1.113,4.021-1.389,8.155-1.967,12.252
			c-0.815,5.782,0.458,7.355,6.208,7.361C750.469,512.864,764.859,512.853,779.249,512.853z M711.637,1011.824
			c-6.061,0.389-12.545,0.852-19.034,1.198c-6.49,0.351-12.993,0.483-19.479,0.907c-5.928,0.382-7.367,1.675-7.471,7.582
			c-0.104,6.074,0.294,12.165,0.667,18.235c0.204,3.331,2.339,5.044,5.602,4.651c12.746-1.53,25.617-2.021,38.248-4.471
			c5.931-1.148,7.557-3.063,8.377-9.081c0.464-3.417,0.815-6.854,1.306-10.269C720.913,1013.204,719.548,1011.646,711.637,1011.824z
			 M568.429,541.9c0.577-0.026,0.866,0.008,1.128-0.06c11.182-2.903,22.369-5.788,33.535-8.752c2.764-0.732,3.069-2.55,1.483-4.702
			c-5.896-8.008-9.155-17.19-12.048-26.561c-1.431-4.639-3.48-5.952-8.028-4.659c-8.729,2.482-17.398,5.178-26.041,7.95
			c-4.085,1.308-4.794,3.061-2.762,6.874c4.433,8.324,7.841,16.965,9.306,26.338C565.3,540.229,566.073,542.188,568.429,541.9z
			 M687.07,484.534c-1.105,0-2.211-0.004-3.318,0c-8.285,0.021-10.863,2.975-8.982,11.08c1.228,5.288,1.716,10.622,2.182,15.976
			c0.511,5.842,2.545,7.624,8.273,6.883c8.21-1.063,16.418-2.143,24.631-3.184c1.718-0.22,3.496-0.515,3.817-2.509
			c1.244-7.744,3.042-15.471,0.999-23.368c-0.884-3.434-2.869-5.252-6.541-4.881C701.111,485.246,694.091,485.211,687.07,484.534z
			 M426.087,597.514c1.297-0.543,2.444-0.986,3.563-1.497c19.558-8.905,39.115-17.815,58.662-26.749
			c1.371-0.629,2.691-1.401,3.963-2.219c2.9-1.867,3.99-4.317,2.761-7.784c-1.673-4.714-4.271-8.942-6.603-13.314
			c-2.119-3.974-3.408-4.285-7.046-1.551c-19.385,14.585-37.187,30.929-53.8,48.588
			C426.497,594.145,425.626,595.295,426.087,597.514z M544.893,1015.737c-1.797,0-3.593,0-5.391,0
			c-9.025,0.007-10.875,2.061-10.062,11.19c0.085,0.96,0.245,1.92,0.411,2.873c0.861,4.896,3.317,7.403,8.259,8.457
			c11.606,2.478,23.423,3.609,35.117,5.53c3.002,0.492,4.817-0.93,5.479-3.744c0.501-2.139,0.868-4.336,1.011-6.524
			c0.757-11.485-2.651-15.782-14.141-16.755C558.71,1016.177,551.827,1015.206,544.893,1015.737z M793.185,1013.674
			c-1.115-2.183,1.701-7.211-4.564-7.219c-15.674-0.014-31.12,2.676-46.706,3.709c-1.655,0.111-4.244,0.469-4.153,2.661
			c0.246,6.054-1.882,12.078-0.074,18.134c1.007,3.373,2.914,4.69,6.471,3.755c14.524-3.821,29.105-7.412,43.386-12.129
			C791.766,1021.186,793.718,1018.693,793.185,1013.674z M442.701,1009.659c21.799,9.553,44.17,16.446,66.837,22.423
			c4.174,1.102,6.608-0.938,6.906-5.336c0.135-1.99,0.856-3.744,1.391-5.59c1.184-4.089,0.217-5.583-3.993-6.261
			c-6.27-1.001-12.539-1.995-18.812-2.984c-14.869-2.339-29.667-5.25-44.803-5.404
			C447.358,1006.479,444.67,1006.67,442.701,1009.659z M831.518,1002.724c-6.596-1.161-12.554-0.283-18.454,0.839
			c-3.46,0.654-3.443,3.527-2.992,6.244c0.279,1.672,1.324,2.963,3.191,2.196C819.43,1009.474,825.839,1007.383,831.518,1002.724z
			 M606.277,443.836c-2.831,0.259-4.35,2.337-4.5,5.439c-0.191,3.993,2.677,7.008,6.479,7.064c2.914,0.043,5.564-2.59,5.511-5.479
			C613.709,447.498,610.045,443.805,606.277,443.836z M634.075,439.424c-3.238,0.07-4.545,1.546-4.458,5.027
			c0.098,3.957,2.508,6.711,5.84,6.674c3.147-0.036,5.039-2.243,4.98-5.807C640.375,441.462,638.081,439.336,634.075,439.424z"/>
		<g id="XMLID_1_">
			<g>
				<path fill="#FCEF03" d="M1110.1,761.125c-5.271,50.207-58.479,158.288-122.763,212.619
					c-34.12,27.976-43.141,29.314-62.687,42.026c-49.409,32.116-102.484,56.31-159.759,70.909
					c-19.338,4.93-38.917,8.555-58.671,11.423c-27.86,4.041-55.836,5.462-83.945,4.905c-26.704-0.523-53.067-3.874-79.248-9.063
					c-28.226-5.595-55.944-13.094-83.014-22.763c-23.221-8.289-43.789-21.5-63.053-36.723
					c-19.778-15.63-39.008-31.884-55.927-50.715c-26.239-29.215-45.826-62.387-59.66-99.026
					c-9.935-26.321-16.653-53.483-20.918-81.284c-3.351-21.857-5.362-43.814-6.709-65.871c-1.189-19.529-1.447-39.075-0.441-58.546
					c3.367-64.849,20.261-126.056,50.49-183.612c17.218-32.79,35.176-65.081,57.973-94.445
					c35.691-45.993,80.046-81.01,132.988-105.137c33.588-15.298,68.656-25.756,105.104-31.618c1.479-0.241,2.927-0.69,5.038-1.189
					c-30.562-21.383-63.086-25.158-98.212-14.267c2.278-5.554,6.385-7.923,11.058-9.262c26.813-7.699,52.843-5.961,77.876,6.851
					c5.287,2.71,10.317,5.853,15.231,9.179c7.49,5.071,15.479,7.283,24.691,5.745c5.205-0.873,10.676-0.158,16.728-0.158
					c-9.17-11.531-20.011-19.795-32.449-26.089c-16.353-8.272-34.045-12.338-51.712-16.503c-4.806-1.13-9.636-2.195-14.416-3.442
					c-1.006-0.266-2.927-0.075-2.636-1.82c0.225-1.331,1.396-2.328,3.076-2.204c4.415,0.316,8.846,0.408,13.235,0.931
					c16.445,1.954,32.615,5.105,47.963,11.598c15.231,6.435,28.758,15.389,39.849,27.693c6.926,7.69,15.281,11.215,25.54,11.498
					c21.591,0.607,43.174,1.355,64.74,2.486c47.663,2.494,93.157,14.192,136.896,33.015c41.52,17.858,78.433,42.517,109.152,75.806
					c42.484,46.026,76.621,98.793,93.972,159.136c11.515,40.039,23.554,59.036,28.168,123.868
					C1118.68,727.712,1115.371,710.801,1110.1,761.125z"/>
			</g>
			<g>
			</g>
		</g>
		<path fill-rule="evenodd" clip-rule="evenodd" fill="#3A4B73" d="M371.406,955.317c36.8,27.158,66.128,29.296,85.309,34.456
			c28.027,7.536,56.396,12.822,85.502,12.181c26.303-0.574,52.584-2.049,78.876-3.067c34.869-1.36,69.725-2.832,104.527-5.504
			c22.765-1.748,45.51-3.695,68.203-6.164c22.126-2.402,44.197-5.296,66.275-8.116c11.026-1.404,21.926-3.677,31.297-10.003
			c29.765-20.096,58.545-41.449,83.238-67.76c42.619-45.412,58.828-98.651,45.403-159.759
			c-16.313-74.262-53.406-136.06-113.102-183.826c-14.691-11.759-30.131-21.98-48.803-26.333
			c-14.413-3.36-29.114-3.308-43.762-3.604c-23.124-0.468-46.265-0.442-69.372,0.841c-19.208,1.067-38.376,2.712-57.454,5.168
			c-29.339,3.781-58.322,9.484-87.092,16.342c-62.777,14.957-123.41,35.886-181.303,64.575
			c-11.744,5.819-15.008,8.545-27.842,25.247C355.75,697.15,337.816,875.504,371.406,955.317z"/>
		<path fill-rule="evenodd" clip-rule="evenodd" fill="#3A4B73" d="M480.908,456.359c-21.956-0.89-41.047-1.568-60.127-2.476
			c-9.24-0.443-17.438-4.389-24.911-9.374c-9.258-6.176-6.657-23.323,4.107-29.095c8.525-4.573,17.85-6.62,27.289-7.971
			c14.794-2.116,29.658-3.784,44.644-3.423c14.69,0.355,29.223,1.988,43.301,6.502c5.297,1.699,10.306,4.01,14.507,7.749
			c7.597,6.769,7.9,14.711,0.814,21.99c-7.203,7.397-16.326,11.178-26.159,13.465C495.718,455.74,486.951,456.809,480.908,456.359z"
			/>
		<path fill-rule="evenodd" clip-rule="evenodd" fill="#3A4B73" d="M761.85,424.716c-6.386,0.521-11.503-1.318-14.348-7.512
			c-3.39-7.382-5.919-14.689,0.065-22.112c4.046-5.018,8.716-9.354,14.072-12.805c19.144-12.319,39.292-22.43,61.81-27.087
			c9.295-1.923,18.635-1.901,28.039-0.718c13.902,1.75,17.992,17.382,11.907,27.072c-4.524,7.208-10.931,12.445-17.764,17.204
			c-13.931,9.698-29.856,14.722-45.981,19.165C787.261,421.338,774.728,424.064,761.85,424.716z"/>
		<path fill-rule="evenodd" clip-rule="evenodd" fill="#3A4B73" d="M653.776,485.785c3.501-0.204,4.468,2.247,4.816,4.982
			c0.646,5.065,1.158,10.153,1.552,15.245c0.287,3.726,0.734,7.399,1.702,11.019c0.73,2.734-0.09,4.395-3.193,4.979
			c-12.46,2.351-24.881,4.899-37.327,7.313c-3.357,0.651-5.478-0.26-5.96-4.233c-1.092-8.953-4.039-17.415-7.549-25.694
			c-2.287-5.389-1.738-6.671,3.759-7.767C625.521,488.85,639.563,486.701,653.776,485.785z"/>
		<path fill-rule="evenodd" clip-rule="evenodd" fill="#3A4B73" d="M621.058,1014.876c6.926,0,13.852-0.046,20.776,0.017
			c4.167,0.036,5.922,1.614,6.01,5.681c0.143,6.645,0.064,13.296,0.082,19.945c0.01,3.933-2.063,5.861-5.878,5.95
			c-14.54,0.34-29.077,0.371-43.591-0.806c-2.926-0.234-4.647-1.696-4.569-4.758c0.177-6.778-0.018-13.564,0.634-20.338
			c0.332-3.464,2.026-4.896,5.361-4.88c7.058,0.04,14.115,0.014,21.174,0.014C621.057,1015.424,621.058,1015.153,621.058,1014.876z"
			/>
		<path fill-rule="evenodd" clip-rule="evenodd" fill="#3A4B73" d="M500.676,535.025c-0.147-2.559,1.004-3.864,2.708-4.732
			c11.182-5.702,22.353-11.431,33.59-17.023c2.839-1.413,5.089-0.421,6.282,2.622c3.42,8.719,6.845,17.433,10.259,26.154
			c0.967,2.474,0.535,4.145-2.323,5.062c-11.67,3.742-23.305,7.592-34.925,11.481c-2.7,0.905-4.938,0.029-6.032-2.155
			c-3.328-6.648-6.298-13.478-9.374-20.25C500.641,535.7,500.688,535.098,500.676,535.025z"/>
		<path fill-rule="evenodd" clip-rule="evenodd" fill="#3A4B73" d="M779.249,512.853c-14.39,0-28.78,0.012-43.174-0.004
			c-5.75-0.006-7.023-1.579-6.208-7.361c0.578-4.097,0.854-8.231,1.967-12.252c1.027-3.72,3.271-5.594,7.214-5.388
			c10.943,0.569,21.605,2.961,32.251,5.223c16.734,3.554,33.146,8.322,49.104,14.552c0.384,0.149,0.854,0.155,1.178,0.381
			c1.38,0.956,4.366,0.852,3.921,2.847c-0.438,1.975-3.076,0.839-4.72,0.846c-13.844,0.066-27.684,0.039-41.528,0.039
			C779.253,512.105,779.249,512.479,779.249,512.853z"/>
		<path fill-rule="evenodd" clip-rule="evenodd" fill="#3A4B73" d="M711.637,1011.824c7.911-0.179,9.276,1.38,8.215,8.754
			c-0.49,3.415-0.842,6.852-1.306,10.269c-0.82,6.019-2.446,7.933-8.377,9.081c-12.631,2.449-25.502,2.94-38.248,4.471
			c-3.263,0.393-5.397-1.32-5.602-4.651c-0.373-6.07-0.771-12.161-0.667-18.235c0.104-5.907,1.543-7.2,7.471-7.582
			c6.486-0.424,12.989-0.557,19.479-0.907C699.092,1012.676,705.576,1012.213,711.637,1011.824z"/>
		<path fill-rule="evenodd" clip-rule="evenodd" fill="#3A4B73" d="M568.429,541.9c-2.355,0.288-3.129-1.672-3.427-3.571
			c-1.465-9.373-4.873-18.014-9.306-26.338c-2.032-3.813-1.323-5.566,2.762-6.874c8.643-2.772,17.313-5.468,26.041-7.95
			c4.548-1.293,6.598,0.021,8.028,4.659c2.893,9.37,6.152,18.553,12.048,26.561c1.586,2.152,1.28,3.97-1.483,4.702
			c-11.166,2.964-22.354,5.849-33.535,8.752C569.295,541.908,569.006,541.874,568.429,541.9z"/>
		<path fill-rule="evenodd" clip-rule="evenodd" fill="#3A4B73" d="M687.07,484.534c7.021,0.677,14.041,0.712,21.061-0.003
			c3.672-0.371,5.657,1.447,6.541,4.881c2.043,7.897,0.245,15.624-0.999,23.368c-0.321,1.994-2.1,2.289-3.817,2.509
			c-8.213,1.041-16.421,2.121-24.631,3.184c-5.729,0.741-7.763-1.041-8.273-6.883c-0.466-5.354-0.954-10.688-2.182-15.976
			c-1.881-8.105,0.697-11.059,8.982-11.08C684.859,484.53,685.965,484.534,687.07,484.534z"/>
		<path fill-rule="evenodd" clip-rule="evenodd" fill="#3A4B73" d="M426.087,597.514c-0.461-2.219,0.41-3.369,1.501-4.526
			c16.613-17.659,34.415-34.003,53.8-48.588c3.638-2.734,4.927-2.423,7.046,1.551c2.331,4.372,4.93,8.601,6.603,13.314
			c1.229,3.467,0.14,5.917-2.761,7.784c-1.271,0.817-2.592,1.59-3.963,2.219c-19.547,8.934-39.104,17.844-58.662,26.749
			C428.531,596.527,427.384,596.971,426.087,597.514z"/>
		<path fill-rule="evenodd" clip-rule="evenodd" fill="#3A4B73" d="M544.891,1015.74c6.937-0.534,13.819,0.437,20.687,1.024
			c11.489,0.973,14.897,5.27,14.141,16.755c-0.143,2.188-0.51,4.386-1.011,6.524c-0.662,2.814-2.478,4.236-5.479,3.744
			c-11.694-1.921-23.511-3.053-35.117-5.53c-4.941-1.054-7.397-3.561-8.259-8.457c-0.166-0.953-0.326-1.913-0.411-2.873
			c-0.813-9.13,1.036-11.184,10.062-11.19C541.3,1015.737,543.096,1015.737,544.891,1015.74z"/>
		<path fill-rule="evenodd" clip-rule="evenodd" fill="#3A4B73" d="M793.185,1013.674c0.533,5.02-1.419,7.512-5.642,8.911
			c-14.28,4.717-28.861,8.308-43.386,12.129c-3.557,0.936-5.464-0.382-6.471-3.755c-1.808-6.056,0.32-12.08,0.074-18.134
			c-0.091-2.192,2.498-2.55,4.153-2.661c15.586-1.033,31.032-3.723,46.706-3.709
			C794.886,1006.463,792.069,1011.491,793.185,1013.674z"/>
		<path fill-rule="evenodd" clip-rule="evenodd" fill="#3A4B73" d="M442.701,1009.659c1.969-2.989,4.657-3.18,7.526-3.152
			c15.136,0.154,29.934,3.065,44.803,5.404c6.272,0.989,12.542,1.983,18.812,2.984c4.21,0.678,5.177,2.172,3.993,6.261
			c-0.534,1.846-1.256,3.6-1.391,5.59c-0.298,4.398-2.732,6.438-6.906,5.336C486.871,1026.105,464.5,1019.212,442.701,1009.659z"/>
		<path fill-rule="evenodd" clip-rule="evenodd" fill="#3A4B73" d="M831.518,1002.724c-5.679,4.659-12.088,6.75-18.255,9.279
			c-1.867,0.767-2.912-0.524-3.191-2.196c-0.451-2.717-0.468-5.59,2.992-6.244C818.964,1002.44,824.922,1001.563,831.518,1002.724z"
			/>
		<path fill-rule="evenodd" clip-rule="evenodd" fill="#3A4B73" d="M606.277,443.836c3.768-0.031,7.432,3.662,7.489,7.024
			c0.054,2.89-2.597,5.522-5.511,5.479c-3.802-0.057-6.67-3.071-6.479-7.064C601.928,446.173,603.446,444.095,606.277,443.836z"/>
		<path fill-rule="evenodd" clip-rule="evenodd" fill="#3A4B73" d="M634.075,439.424c4.006-0.088,6.3,2.038,6.362,5.895
			c0.059,3.563-1.833,5.771-4.98,5.807c-3.332,0.037-5.742-2.717-5.84-6.674C629.53,440.97,630.837,439.494,634.075,439.424z"/>
	</g>
	<path fill-rule="evenodd" clip-rule="evenodd" fill="#FCEF03" d="M1409.74,989.646"/>
	<path fill-rule="evenodd" clip-rule="evenodd" fill="#3A4B73" d="M1409.74,989.646"/>
	<path fill-rule="evenodd" clip-rule="evenodd" fill="#3A4B73" d="M102.097,1002.031C62.052,944.245-3.219,761.718-5.188,734.202
		c-0.31-4.343-0.478-8.845-2.93-12.753c0-31.313,0-62.623,0-93.937c1.891-0.441,1.476-2.021,1.672-3.33
		c2.924-19.559,5.847-39.12,11.211-58.201c14.722-52.375,33.894-103.169,56.177-152.72c38.488-85.585,91.938-160.68,160.544-224.836
		c84.985-79.477,184.173-133.557,295.836-165.308c36.481-10.376,73.51-18.262,111.006-23.86c20.52-3.064,41.057-6.12,61.838-7.014
		c3.393-0.146,6.905-0.456,9.968-2.326c32.697,0,65.396,0,98.094,0c1.395,1.292,3.194,1.502,4.935,1.702
		c14.162,1.625,28.402,2.32,42.578,3.898c50.511,5.619,99.083,18.389,145.91,38.129c62.267,26.248,118.323,62.307,169.475,106.249
		c43.138,37.057,80.965,78.741,110.576,127.502c40.768,67.14,62.351,140.045,65.279,218.514c0.143,3.785,0.122,7.719,2.408,11.09
		c0,32.42,0,64.841,0,97.26c-3.39,2.72-1.452,6.497-1.698,9.72c-2.095,27.19-4.525,54.336-8.104,81.383
		c-6.207,46.953-15.115,93.362-27.666,139.033C1264.896,959.113,842.617,1629.45,801.31,1695
		c-31.214,37.403-94.833,173.199-157.144,173.572c-63.521,0.38-125.721-135.463-155-181.572
		C489.166,1687,158.36,1083.225,102.097,1002.031z M1076.528,533.203c-17.357-60.338-48.492-113.109-90.975-159.137
		c-30.717-33.281-67.627-57.941-109.15-75.803c-43.745-18.82-89.237-30.518-136.896-33.017c-21.564-1.132-43.154-1.88-64.739-2.481
		c-10.263-0.287-18.62-3.814-25.542-11.496c-11.088-12.306-24.62-21.267-39.844-27.699c-15.354-6.488-31.525-9.646-47.969-11.598
		c-4.386-0.521-8.822-0.613-13.234-0.932c-1.676-0.121-2.851,0.871-3.074,2.21c-0.293,1.737,1.627,1.554,2.63,1.815
		c4.783,1.244,9.611,2.31,14.425,3.442c17.662,4.167,35.353,8.23,51.709,16.505c12.44,6.295,23.274,14.554,32.448,26.086
		c-6.056,0-11.523-0.715-16.728,0.158c-9.213,1.544-17.198-0.672-24.692-5.744c-4.914-3.328-9.939-6.467-15.229-9.176
		c-25.037-12.813-51.063-14.553-77.881-6.852c-4.67,1.342-8.78,3.708-11.059,9.256c35.132-10.886,67.651-7.11,98.218,14.27
		c-2.11,0.504-3.561,0.95-5.042,1.189c-36.443,5.86-71.513,16.317-105.103,31.622c-52.944,24.124-97.296,59.144-132.99,105.133
		c-22.791,29.366-40.751,61.653-57.974,94.446c-30.222,57.555-47.12,118.761-50.483,183.61c-1.012,19.477-0.755,39.018,0.437,58.544
		c1.346,22.06,3.355,44.018,6.71,65.874c4.267,27.803,10.981,54.963,20.918,81.28c13.832,36.643,33.424,69.813,59.662,99.029
		c16.918,18.838,36.142,35.081,55.925,50.72c19.262,15.217,39.829,28.43,63.05,36.723c27.07,9.667,54.787,17.166,83.017,22.761
		c26.181,5.188,52.544,8.539,79.244,9.063c28.112,0.554,56.087-0.869,83.946-4.91c19.755-2.864,39.333-6.493,58.673-11.422
		c57.269-14.598,110.349-38.795,159.76-70.91c19.55-12.708,15.049-1.779,56.031-44.021
		C1133.622,773.555,1076.528,533.203,1076.528,533.203z"/>
</g>
</svg>
